<svg xmlns="http://www.w3.org/2000/svg" xmlns:xlink="http://www.w3.org/1999/xlink" viewBox="0 0 812.95 853.61"><defs><style>.cls-1{isolation:isolate;}.cls-12,.cls-13,.cls-19,.cls-2,.cls-21,.cls-3,.cls-4,.cls-57,.cls-63{opacity:0.5;}.cls-11,.cls-12,.cls-13,.cls-14,.cls-15,.cls-16,.cls-17,.cls-18,.cls-19,.cls-2,.cls-20,.cls-21,.cls-3,.cls-4,.cls-5,.cls-57,.cls-59,.cls-6,.cls-60{mix-blend-mode:overlay;}.cls-2{fill:url(#linear-gradient);}.cls-3{fill:url(#linear-gradient-2);}.cls-4{fill:url(#linear-gradient-3);}.cls-5{fill:url(#linear-gradient-4);}.cls-6{fill:url(#linear-gradient-5);}.cls-10,.cls-68,.cls-69,.cls-7,.cls-70,.cls-71,.cls-74,.cls-8,.cls-9{fill:none;}.cls-10,.cls-24,.cls-68,.cls-69,.cls-7,.cls-70,.cls-71,.cls-74,.cls-8,.cls-9{stroke-miterlimit:10;}.cls-10,.cls-7,.cls-74,.cls-8,.cls-9{stroke-width:1.1px;}.cls-7{stroke:url(#linear-gradient-6);}.cls-8{stroke:url(#linear-gradient-7);}.cls-9{stroke:url(#linear-gradient-8);}.cls-10{stroke:url(#linear-gradient-9);}.cls-11{fill:url(#linear-gradient-10);}.cls-12{fill:url(#linear-gradient-11);}.cls-13{fill:url(#linear-gradient-12);}.cls-14,.cls-15,.cls-16,.cls-17,.cls-18,.cls-20{opacity:0.15;}.cls-14{fill:url(#linear-gradient-13);}.cls-15{fill:url(#linear-gradient-14);}.cls-16{fill:url(#linear-gradient-15);}.cls-17{fill:url(#linear-gradient-16);}.cls-18{fill:url(#linear-gradient-17);}.cls-19{fill:url(#linear-gradient-18);}.cls-20{fill:url(#linear-gradient-19);}.cls-21{fill:url(#linear-gradient-20);}.cls-22{fill:url(#linear-gradient-21);}.cls-23{fill:url(#linear-gradient-22);}.cls-24{stroke:#1e2a72;stroke-width:1.03px;fill:url(#linear-gradient-23);}.cls-25{fill:url(#linear-gradient-24);}.cls-26{fill:url(#linear-gradient-25);}.cls-27{fill:url(#linear-gradient-26);}.cls-28{fill:url(#linear-gradient-27);}.cls-29{fill:url(#linear-gradient-28);}.cls-30{fill:url(#linear-gradient-29);}.cls-31{fill:url(#linear-gradient-30);}.cls-32{fill:url(#linear-gradient-31);}.cls-33{fill:url(#linear-gradient-32);}.cls-34{fill:url(#linear-gradient-33);}.cls-35{fill:url(#linear-gradient-34);}.cls-36{fill:#fff;}.cls-37{fill:url(#linear-gradient-35);}.cls-38{fill:#dcf8ff;}.cls-39{fill:url(#linear-gradient-36);}.cls-40,.cls-43{mix-blend-mode:soft-light;}.cls-40{fill:url(#linear-gradient-37);}.cls-41{fill:url(#linear-gradient-38);}.cls-42{fill:url(#linear-gradient-39);}.cls-43{fill:url(#linear-gradient-40);}.cls-44{fill:url(#linear-gradient-41);}.cls-45{fill:url(#linear-gradient-42);}.cls-46{fill:url(#linear-gradient-43);}.cls-47{fill:url(#linear-gradient-44);}.cls-48{fill:url(#linear-gradient-45);}.cls-49{fill:url(#linear-gradient-46);}.cls-50{fill:url(#linear-gradient-47);}.cls-51{fill:url(#linear-gradient-48);}.cls-52{fill:url(#linear-gradient-49);}.cls-53{fill:url(#linear-gradient-50);}.cls-54{fill:url(#linear-gradient-51);}.cls-55{fill:url(#linear-gradient-52);}.cls-56{fill:url(#linear-gradient-53);}.cls-58{fill:url(#linear-gradient-54);}.cls-59{opacity:0.66;fill:url(#linear-gradient-55);}.cls-61{fill:url(#linear-gradient-56);}.cls-62{fill:url(#linear-gradient-57);}.cls-64{fill:url(#linear-gradient-58);}.cls-65{fill:url(#linear-gradient-59);}.cls-66{fill:url(#linear-gradient-60);}.cls-67{fill:url(#linear-gradient-61);}.cls-68,.cls-69,.cls-70,.cls-71{stroke-width:0.83px;}.cls-68{stroke:url(#linear-gradient-62);}.cls-69{stroke:url(#linear-gradient-63);}.cls-70{stroke:url(#linear-gradient-64);}.cls-71{stroke:url(#linear-gradient-65);}.cls-72{fill:url(#linear-gradient-66);}.cls-73{fill:url(#linear-gradient-67);}.cls-74{stroke:url(#linear-gradient-68);}.cls-75{fill:url(#linear-gradient-69);}.cls-76{fill:url(#linear-gradient-70);}.cls-77{fill:url(#linear-gradient-71);}.cls-78{fill:url(#linear-gradient-72);}.cls-79{fill:url(#linear-gradient-73);}.cls-80{fill:url(#linear-gradient-74);}.cls-81{fill:url(#linear-gradient-75);}.cls-82{fill:url(#linear-gradient-76);}.cls-83{fill:url(#linear-gradient-77);}.cls-84{fill:url(#linear-gradient-78);}.cls-85{fill:url(#linear-gradient-79);}.cls-86{fill:url(#linear-gradient-80);}.cls-87{fill:url(#linear-gradient-81);}.cls-88{fill:url(#linear-gradient-82);}</style><linearGradient id="linear-gradient" x1="719.29" y1="152.64" x2="759.61" y2="152.64" gradientUnits="userSpaceOnUse"><stop offset="0" stop-color="aqua"/><stop offset="1" stop-color="aqua"/></linearGradient><linearGradient id="linear-gradient-2" x1="672.29" y1="472.41" x2="719.29" y2="472.41" xlink:href="#linear-gradient"/><linearGradient id="linear-gradient-3" x1="638.78" y1="250.16" x2="703.85" y2="250.16" xlink:href="#linear-gradient"/><linearGradient id="linear-gradient-4" x1="110.76" y1="426.78" x2="175.83" y2="426.78" xlink:href="#linear-gradient"/><linearGradient id="linear-gradient-5" x1="720.37" y1="310.53" x2="748.5" y2="310.53" xlink:href="#linear-gradient"/><linearGradient id="linear-gradient-6" x1="770.97" y1="644.12" x2="800.21" y2="644.12" xlink:href="#linear-gradient"/><linearGradient id="linear-gradient-7" x1="89.76" y1="500.82" x2="118.99" y2="500.82" xlink:href="#linear-gradient"/><linearGradient id="linear-gradient-8" x1="200.88" y1="686.28" x2="246.8" y2="686.28" xlink:href="#linear-gradient"/><linearGradient id="linear-gradient-9" x1="120.33" y1="208.27" x2="166.25" y2="208.27" xlink:href="#linear-gradient"/><linearGradient id="linear-gradient-10" x1="438.22" y1="74.84" x2="466.35" y2="74.84" xlink:href="#linear-gradient"/><linearGradient id="linear-gradient-11" x1="143.29" y1="382.98" x2="208.36" y2="382.98" xlink:href="#linear-gradient"/><linearGradient id="linear-gradient-12" x1="302.1" y1="87.03" x2="350.39" y2="87.03" xlink:href="#linear-gradient"/><linearGradient id="linear-gradient-13" x1="523.75" y1="33.47" x2="564.07" y2="33.47" xlink:href="#linear-gradient"/><linearGradient id="linear-gradient-14" x1="410.21" y1="50.47" x2="450.53" y2="50.47" xlink:href="#linear-gradient"/><linearGradient id="linear-gradient-15" x1="8.32" y1="477.67" x2="48.64" y2="477.67" xlink:href="#linear-gradient"/><linearGradient id="linear-gradient-16" x1="220.58" y1="612.44" x2="282.41" y2="612.44" xlink:href="#linear-gradient"/><linearGradient id="linear-gradient-17" x1="125.59" y1="816.24" x2="187.42" y2="816.24" xlink:href="#linear-gradient"/><linearGradient id="linear-gradient-18" x1="529.87" y1="802.71" x2="607.05" y2="802.71" xlink:href="#linear-gradient"/><linearGradient id="linear-gradient-19" x1="677.23" y1="688.19" x2="731.2" y2="688.19" xlink:href="#linear-gradient"/><linearGradient id="linear-gradient-20" x1="731.2" y1="550.18" x2="771.52" y2="550.18" xlink:href="#linear-gradient"/><linearGradient id="linear-gradient-21" x1="247.66" y1="135.24" x2="613.34" y2="811.39" gradientUnits="userSpaceOnUse"><stop offset="0" stop-color="#0004ff"/><stop offset="1" stop-color="#000045"/></linearGradient><linearGradient id="linear-gradient-22" x1="226.72" y1="135.24" x2="592.4" y2="811.39" xlink:href="#linear-gradient"/><linearGradient id="linear-gradient-23" x1="242.82" y1="161.59" x2="570.1" y2="773.99" gradientUnits="userSpaceOnUse"><stop offset="0" stop-color="#8b0eff"/><stop offset="1" stop-color="#1881ff"/></linearGradient><linearGradient id="linear-gradient-24" x1="381.6" y1="162.51" x2="449.49" y2="162.51" gradientUnits="userSpaceOnUse"><stop offset="0" stop-color="#007cff"/><stop offset="1" stop-color="#004cff"/></linearGradient><linearGradient id="linear-gradient-25" x1="381.6" y1="162.51" x2="449.49" y2="162.51" xlink:href="#linear-gradient-24"/><linearGradient id="linear-gradient-26" x1="551.62" y1="257.84" x2="589.37" y2="328.48" xlink:href="#linear-gradient-23"/><linearGradient id="linear-gradient-27" x1="555" y1="257.84" x2="592.75" y2="328.48" xlink:href="#linear-gradient"/><linearGradient id="linear-gradient-28" x1="551.62" y1="348.76" x2="589.37" y2="419.4" xlink:href="#linear-gradient-23"/><linearGradient id="linear-gradient-29" x1="555" y1="348.76" x2="592.75" y2="419.4" xlink:href="#linear-gradient"/><linearGradient id="linear-gradient-30" x1="604.66" y1="375.48" x2="731.35" y2="496.47" xlink:href="#linear-gradient-21"/><linearGradient id="linear-gradient-31" x1="744.5" y1="490.44" x2="589.14" y2="381.62" gradientUnits="userSpaceOnUse"><stop offset="0" stop-color="#00aeff"/><stop offset="1" stop-color="aqua"/></linearGradient><linearGradient id="linear-gradient-32" x1="576.83" y1="406.67" x2="678.54" y2="508.38" xlink:href="#linear-gradient-23"/><linearGradient id="linear-gradient-33" x1="592.74" y1="383.95" x2="695.3" y2="486.52" xlink:href="#linear-gradient-23"/><linearGradient id="linear-gradient-34" x1="650.66" y1="372.5" x2="685.61" y2="400.95" xlink:href="#linear-gradient-23"/><linearGradient id="linear-gradient-35" x1="19.14" y1="62.28" x2="300.86" y2="344.01" gradientUnits="userSpaceOnUse"><stop offset="0" stop-color="#e9ac38"/><stop offset="1" stop-color="#ff7c00"/></linearGradient><linearGradient id="linear-gradient-36" x1="291.72" y1="331.61" x2="157.23" y2="215.74" gradientUnits="userSpaceOnUse"><stop offset="0" stop-color="#e9ac38"/><stop offset="1" stop-color="#ff0"/></linearGradient><linearGradient id="linear-gradient-37" x1="398.47" y1="717.07" x2="473.79" y2="787.71" xlink:href="#linear-gradient"/><linearGradient id="linear-gradient-38" x1="313.88" y1="733.72" x2="501.83" y2="733.72" xlink:href="#linear-gradient-31"/><linearGradient id="linear-gradient-39" x1="329.18" y1="733.59" x2="348.45" y2="733.59" xlink:href="#linear-gradient-21"/><linearGradient id="linear-gradient-40" x1="398.47" y1="664.58" x2="473.79" y2="735.22" xlink:href="#linear-gradient"/><linearGradient id="linear-gradient-41" x1="313.88" y1="681.23" x2="501.83" y2="681.23" xlink:href="#linear-gradient-31"/><linearGradient id="linear-gradient-42" x1="329.18" y1="686.31" x2="348.45" y2="686.31" xlink:href="#linear-gradient-21"/><linearGradient id="linear-gradient-43" x1="334.71" y1="673.06" x2="342.92" y2="673.06" xlink:href="#linear-gradient-21"/><linearGradient id="linear-gradient-44" x1="529.93" y1="541.13" x2="727.35" y2="650.7" xlink:href="#linear-gradient-21"/><linearGradient id="linear-gradient-45" x1="521.35" y1="588.95" x2="696.87" y2="588.95" xlink:href="#linear-gradient-31"/><linearGradient id="linear-gradient-46" x1="496.21" y1="549.69" x2="658.03" y2="549.69" xlink:href="#linear-gradient-23"/><linearGradient id="linear-gradient-47" x1="496.21" y1="573.56" x2="658.03" y2="573.56" xlink:href="#linear-gradient-23"/><linearGradient id="linear-gradient-48" x1="526.95" y1="598.37" x2="611.73" y2="598.37" xlink:href="#linear-gradient-23"/><linearGradient id="linear-gradient-49" x1="526.95" y1="598.37" x2="611.73" y2="598.37" xlink:href="#linear-gradient-23"/><linearGradient id="linear-gradient-50" x1="526.95" y1="598.37" x2="611.73" y2="598.37" xlink:href="#linear-gradient-23"/><linearGradient id="linear-gradient-51" x1="526.95" y1="598.37" x2="611.73" y2="598.37" xlink:href="#linear-gradient-23"/><linearGradient id="linear-gradient-52" x1="695.31" y1="675.9" x2="626.79" y2="603.85" xlink:href="#linear-gradient-35"/><linearGradient id="linear-gradient-53" x1="690.24" y1="675.9" x2="621.72" y2="603.85" xlink:href="#linear-gradient-36"/><linearGradient id="linear-gradient-54" x1="260.92" y1="464.39" x2="526.16" y2="464.39" xlink:href="#linear-gradient"/><linearGradient id="linear-gradient-55" x1="260.92" y1="464.39" x2="545.17" y2="464.39" xlink:href="#linear-gradient"/><linearGradient id="linear-gradient-56" x1="241.9" y1="464.39" x2="507.15" y2="464.39" xlink:href="#linear-gradient"/><linearGradient id="linear-gradient-57" x1="241.9" y1="464.39" x2="507.15" y2="464.39" xlink:href="#linear-gradient"/><linearGradient id="linear-gradient-58" x1="260.92" y1="464.39" x2="526.16" y2="464.39" xlink:href="#linear-gradient"/><linearGradient id="linear-gradient-59" x1="241.9" y1="464.39" x2="526.16" y2="464.39" xlink:href="#linear-gradient"/><linearGradient id="linear-gradient-60" x1="274.03" y1="365" x2="474.84" y2="589.48" gradientUnits="userSpaceOnUse"><stop offset="0" stop-color="#bd0eff"/><stop offset="1" stop-color="#1881ff"/></linearGradient><linearGradient id="linear-gradient-61" x1="316.56" y1="454.62" x2="451.5" y2="454.62" xlink:href="#linear-gradient-36"/><linearGradient id="linear-gradient-62" x1="505.88" y1="368.3" x2="524.89" y2="368.3" xlink:href="#linear-gradient"/><linearGradient id="linear-gradient-63" x1="497.24" y1="358.09" x2="516.26" y2="358.09" xlink:href="#linear-gradient"/><linearGradient id="linear-gradient-64" x1="243.17" y1="368.3" x2="262.18" y2="368.3" xlink:href="#linear-gradient"/><linearGradient id="linear-gradient-65" x1="251.84" y1="358.09" x2="270.86" y2="358.09" xlink:href="#linear-gradient"/><linearGradient id="linear-gradient-66" x1="701.04" y1="146.99" x2="556.72" y2="-4.77" xlink:href="#linear-gradient-35"/><linearGradient id="linear-gradient-67" x1="694.86" y1="146.99" x2="550.54" y2="-4.77" xlink:href="#linear-gradient-36"/><linearGradient id="linear-gradient-68" x1="692.52" y1="138.47" x2="540.2" y2="-21.7" xlink:href="#linear-gradient"/><linearGradient id="linear-gradient-69" x1="122.48" y1="540.78" x2="209.83" y2="627.45" xlink:href="#linear-gradient-21"/><linearGradient id="linear-gradient-70" x1="116.3" y1="584.31" x2="196.72" y2="584.31" xlink:href="#linear-gradient-31"/><linearGradient id="linear-gradient-71" x1="188.05" y1="76.88" x2="289.9" y2="76.88" xlink:href="#linear-gradient-21"/><linearGradient id="linear-gradient-72" x1="180.96" y1="76.88" x2="282.81" y2="76.88" xlink:href="#linear-gradient"/><linearGradient id="linear-gradient-73" x1="628.61" y1="762.32" x2="730.46" y2="762.32" xlink:href="#linear-gradient-35"/><linearGradient id="linear-gradient-74" x1="719.39" y1="807.65" x2="617.49" y2="709.25" xlink:href="#linear-gradient-36"/><linearGradient id="linear-gradient-75" x1="615.24" y1="288.61" x2="670.37" y2="288.61" xlink:href="#linear-gradient-21"/><linearGradient id="linear-gradient-76" x1="611.4" y1="288.61" x2="666.53" y2="288.61" xlink:href="#linear-gradient"/><linearGradient id="linear-gradient-77" x1="54.99" y1="747.76" x2="243.37" y2="747.76" xlink:href="#linear-gradient-21"/><linearGradient id="linear-gradient-78" x1="216.46" y1="821.31" x2="41.78" y2="709.84" xlink:href="#linear-gradient-31"/><linearGradient id="linear-gradient-79" x1="675.99" y1="196.16" x2="812.95" y2="196.16" xlink:href="#linear-gradient-21"/><linearGradient id="linear-gradient-80" x1="793.39" y1="249.62" x2="666.39" y2="168.59" xlink:href="#linear-gradient-31"/><linearGradient id="linear-gradient-81" x1="8.32" y1="138.44" x2="121.82" y2="138.44" xlink:href="#linear-gradient-21"/><linearGradient id="linear-gradient-82" x1="133.09" y1="201.79" x2="2.31" y2="115.81" xlink:href="#linear-gradient-31"/></defs><g class="cls-1"><g id="Layer_2" data-name="Layer 2"><g id="Layer_1-2" data-name="Layer 1"><rect class="cls-2" x="719.29" y="128.27" width="40.32" height="48.74" rx="4.75"/><rect class="cls-3" x="672.29" y="444" width="47" height="56.82" rx="4.05"/><rect class="cls-4" x="638.78" y="210.83" width="65.07" height="78.66" rx="4.38"/><rect class="cls-5" x="110.76" y="387.45" width="65.07" height="78.66" rx="4.81"/><rect class="cls-6" x="720.37" y="293.52" width="28.13" height="34.01" rx="2.58"/><rect class="cls-7" x="771.52" y="627.11" width="28.13" height="34.01" rx="2.58"/><rect class="cls-8" x="90.31" y="483.81" width="28.13" height="34.01" rx="2.58"/><rect class="cls-9" x="201.43" y="659.19" width="44.82" height="54.18" rx="4.11"/><rect class="cls-10" x="120.88" y="181.18" width="44.82" height="54.18" rx="4.11"/><rect class="cls-11" x="438.22" y="57.84" width="28.13" height="34.01" rx="2.58"/><rect class="cls-12" x="143.29" y="343.66" width="65.07" height="78.66" rx="4.81"/><rect class="cls-13" x="302.1" y="57.84" width="48.29" height="58.38" rx="3.79"/><rect class="cls-14" x="523.75" y="9.1" width="40.32" height="48.74" rx="3.16"/><rect class="cls-15" x="410.21" y="26.1" width="40.32" height="48.74" rx="3.16"/><rect class="cls-16" x="8.32" y="453.3" width="40.32" height="48.74" rx="3.16"/><rect class="cls-17" x="220.58" y="575.07" width="61.83" height="74.75" rx="4.85"/><rect class="cls-18" x="125.59" y="778.86" width="61.83" height="74.75" rx="4.85"/><rect class="cls-19" x="529.87" y="756.06" width="77.17" height="93.29" rx="6.05"/><rect class="cls-20" x="677.23" y="656.97" width="53.97" height="62.45" rx="4.14"/><rect class="cls-21" x="731.2" y="525.81" width="40.32" height="48.74" rx="4.17"/><rect class="cls-22" x="283.19" y="138.44" width="298.97" height="677.8" rx="19.89"/><rect class="cls-23" x="262.25" y="138.44" width="298.97" height="677.8" rx="19.89"/><path class="cls-24" d="M550,197V758.38c0,24.48-16.41,44.33-36.67,44.33H310.12c-20.27,0-36.67-19.86-36.67-44.33V197c0-24.46,16.4-44.32,36.67-44.32h34.52a8,8,0,0,1,7.07,4.93l6.37,13.36c2.28,4.78,6.53,7.74,11.08,7.74H454.3c4.58,0,8.8-3,11.1-7.74l6.38-13.36a8,8,0,0,1,7.06-4.93h34.53C533.62,152.64,550,172.48,550,197Z"/><path class="cls-25" d="M434.55,167.32H375.17c-2.19,0-4-2.15-4-4.81h0c0-2.65,1.78-4.8,4-4.8h59.38c2.2,0,4,2.15,4,4.8h0C438.53,165.17,436.75,167.32,434.55,167.32Z"/><path class="cls-26" d="M452.29,162.51c0,2.66-1.78,4.81-4,4.81s-4-2.15-4-4.81,1.78-4.8,4-4.8S452.29,159.86,452.29,162.51Z"/><rect class="cls-27" x="565.08" y="252.74" width="12.04" height="83.13" rx="1.36"/><rect class="cls-28" x="568.46" y="252.74" width="12.04" height="83.13" rx="1.36"/><rect class="cls-29" x="565.08" y="343.66" width="12.04" height="83.13" rx="1.36"/><rect class="cls-30" x="568.46" y="343.66" width="12.04" height="83.13" rx="1.36"/><rect class="cls-31" x="600.76" y="364.28" width="103.09" height="113.39" rx="2.76"/><path class="cls-32" d="M696.87,372V470c0,4.23-2.83,7.66-6.33,7.66H600.11c-3.49,0-6.33-3.43-6.33-7.66V372c0-4.23,2.84-7.67,6.33-7.67h90.43C694,364.28,696.87,367.72,696.87,372Z"/><path class="cls-33" d="M654,477.67H600.11c-3.49,0-6.33-3.43-6.33-7.66V418.25L605,394.75c2.07-4.36,7.27-4.36,9.35,0l31.23,65.39Z"/><path class="cls-34" d="M696.87,463.12V470c0,4.23-2.83,7.66-6.33,7.66H637.23l8.36-17.53,20.26-42.41c2.08-4.35,7.27-4.35,9.35,0Z"/><ellipse class="cls-35" cx="669.92" cy="388.18" rx="13.43" ry="16.23"/><path class="cls-36" d="M690.54,365.39c2.88,0,5.23,2.94,5.23,6.56V470c0,3.62-2.35,6.56-5.23,6.56H600.11c-2.88,0-5.23-2.94-5.23-6.56V372c0-3.62,2.35-6.56,5.23-6.56h90.43m0-1.11H600.11c-3.49,0-6.33,3.44-6.33,7.67V470c0,4.23,2.84,7.66,6.33,7.66h90.43c3.5,0,6.33-3.43,6.33-7.66V372c0-4.23-2.83-7.67-6.33-7.67Z"/><path class="cls-37" d="M225.57,202.75v9.59c0,3.64-2.44,6.59-5.45,6.59H156.56c-3,0-5.45,2.95-5.45,6.59v97.13c0,3.64,2.44,6.59,5.45,6.59h126c3,0,5.45-2.95,5.45-6.59V202.75c0-3.64-2.44-6.59-5.45-6.59H231C228,196.16,225.57,199.11,225.57,202.75Z"/><rect class="cls-38" x="158.82" y="201.63" width="85.15" height="57.49" rx="1.5"/><rect class="cls-36" x="151.64" y="210.83" width="85.15" height="57.49" rx="1.5"/><path class="cls-39" d="M217.76,202.75v9.59c0,3.64-2.44,6.59-5.45,6.59H148.75c-3,0-5.46,2.95-5.46,6.59v97.13c0,3.64,2.44,6.59,5.46,6.59h126c3,0,5.45-2.95,5.45-6.59V202.75c0-3.64-2.44-6.59-5.45-6.59H223.21C220.2,196.16,217.76,199.11,217.76,202.75Z"/><path class="cls-36" d="M233.66,268.58h-.58v-7.73c0-12.65-8.49-23-19-23s-19,10.3-19,23v7.73H195c-2.94,0-5.33,2.88-5.33,6.43v29.08c0,3.56,2.39,6.44,5.33,6.44h38.68c3,0,5.35-2.88,5.35-6.44V275C239,271.46,236.63,268.58,233.66,268.58ZM217.44,290a1.52,1.52,0,0,0-.59,1.53l1.07,4.75c.66,2.88-1.14,5.67-3.58,5.67s-4.23-2.79-3.6-5.67l1.09-4.81a1.45,1.45,0,0,0-.58-1.5,8.14,8.14,0,0,1-2.91-8.06,7,7,0,0,1,4.76-5.73c4-.95,7.48,2.69,7.48,7.32A7.77,7.77,0,0,1,217.44,290Zm10.85-21.42H199.92v-7.73c0-9.44,6.36-17.13,14.17-17.13s14.2,7.69,14.2,17.13Z"/><rect class="cls-40" x="322.26" y="714.2" width="187.94" height="39.05" rx="3.02"/><rect class="cls-41" x="313.88" y="714.2" width="187.94" height="39.05" rx="3.02"/><path class="cls-42" d="M346.36,731.39h-.23v-3c0-4.94-3.31-9-7.41-9s-7.41,4-7.41,9v3h-.05a2.32,2.32,0,0,0-2.08,2.51v11.35a2.32,2.32,0,0,0,2.08,2.51h15.1a2.32,2.32,0,0,0,2.09-2.51V733.9A2.32,2.32,0,0,0,346.36,731.39ZM340,739.75a.59.59,0,0,0-.23.6l.41,1.85a1.55,1.55,0,1,1-2.8,0l.43-1.88a.56.56,0,0,0-.23-.58,3.2,3.2,0,0,1-1.14-3.15,2.71,2.71,0,0,1,1.86-2.23c1.56-.37,2.92,1,2.92,2.86A3,3,0,0,1,340,739.75Zm4.23-8.36H333.19v-3c0-3.69,2.48-6.69,5.53-6.69s5.54,3,5.54,6.69Z"/><path class="cls-36" d="M344.68,731.39h-.22v-3c0-4.94-3.32-9-7.41-9s-7.41,4-7.41,9v3h-.05a2.32,2.32,0,0,0-2.08,2.51v11.35a2.32,2.32,0,0,0,2.08,2.51h15.09a2.32,2.32,0,0,0,2.09-2.51V733.9A2.32,2.32,0,0,0,344.68,731.39Zm-6.33,8.36a.58.58,0,0,0-.22.6l.41,1.85a1.55,1.55,0,1,1-2.8,0l.43-1.88a.56.56,0,0,0-.23-.58,3.18,3.18,0,0,1-1.14-3.15,2.71,2.71,0,0,1,1.86-2.23c1.55-.37,2.92,1,2.92,2.86A3,3,0,0,1,338.35,739.75Zm4.24-8.36H331.52v-3c0-3.69,2.48-6.69,5.53-6.69s5.54,3,5.54,6.69Z"/><path class="cls-36" d="M375.25,734.3a2.89,2.89,0,0,0-1.48-2.65,3.31,3.31,0,0,0-.5-3.14,2.06,2.06,0,0,0-2.59-.6,2.23,2.23,0,0,0-4.38,0,2.08,2.08,0,0,0-2.6.6,3.33,3.33,0,0,0-.5,3.14,3.1,3.1,0,0,0,0,5.29,3.33,3.33,0,0,0,.5,3.14,2.19,2.19,0,0,0,1.68.84,2.07,2.07,0,0,0,.92-.24,2.23,2.23,0,0,0,4.38,0,2,2,0,0,0,.92.24,2.17,2.17,0,0,0,1.67-.84,3.31,3.31,0,0,0,.5-3.14A2.88,2.88,0,0,0,375.25,734.3Z"/><path class="cls-36" d="M397.34,734.3a2.89,2.89,0,0,0-1.48-2.65,3.33,3.33,0,0,0-.5-3.14,2.07,2.07,0,0,0-2.6-.6,2.23,2.23,0,0,0-4.37,0,2.08,2.08,0,0,0-2.6.6,3.33,3.33,0,0,0-.5,3.14,3.1,3.1,0,0,0,0,5.29,3.33,3.33,0,0,0,.5,3.14,2.17,2.17,0,0,0,1.68.84,2.07,2.07,0,0,0,.92-.24,2.23,2.23,0,0,0,4.37,0,2.07,2.07,0,0,0,.93.24,2.17,2.17,0,0,0,1.67-.84,3.33,3.33,0,0,0,.5-3.14A2.88,2.88,0,0,0,397.34,734.3Z"/><path class="cls-36" d="M419.43,734.3a2.89,2.89,0,0,0-1.48-2.65,3.33,3.33,0,0,0-.5-3.14,2.08,2.08,0,0,0-2.6-.6,2.23,2.23,0,0,0-4.37,0,2.07,2.07,0,0,0-2.6.6,3.33,3.33,0,0,0-.5,3.14,3.1,3.1,0,0,0,0,5.29,3.33,3.33,0,0,0,.5,3.14,2.17,2.17,0,0,0,1.67.84,2.07,2.07,0,0,0,.93-.24,2.23,2.23,0,0,0,4.37,0,2.07,2.07,0,0,0,.92.24,2.17,2.17,0,0,0,1.68-.84,3.33,3.33,0,0,0,.5-3.14A2.88,2.88,0,0,0,419.43,734.3Z"/><path class="cls-36" d="M441.52,734.3a2.89,2.89,0,0,0-1.49-2.65,3.3,3.3,0,0,0-.49-3.14,2.08,2.08,0,0,0-2.6-.6,2.23,2.23,0,0,0-4.38,0,2.06,2.06,0,0,0-2.59.6,3.31,3.31,0,0,0-.5,3.14,3.1,3.1,0,0,0,0,5.29,3.31,3.31,0,0,0,.5,3.14,2.17,2.17,0,0,0,1.67.84,2,2,0,0,0,.92-.24,2.23,2.23,0,0,0,4.38,0,2.07,2.07,0,0,0,.92.24,2.19,2.19,0,0,0,1.68-.84,3.3,3.3,0,0,0,.49-3.14A2.89,2.89,0,0,0,441.52,734.3Z"/><path class="cls-36" d="M463.61,734.3a2.89,2.89,0,0,0-1.49-2.65,3.28,3.28,0,0,0-.5-3.14,2.06,2.06,0,0,0-2.59-.6,2.23,2.23,0,0,0-4.38,0,2.06,2.06,0,0,0-2.59.6,3.28,3.28,0,0,0-.5,3.14,3.09,3.09,0,0,0,0,5.29,3.28,3.28,0,0,0,.5,3.14,2.15,2.15,0,0,0,1.67.84,2,2,0,0,0,.92-.24,2.23,2.23,0,0,0,4.38,0,2,2,0,0,0,.92.24,2.15,2.15,0,0,0,1.67-.84,3.28,3.28,0,0,0,.5-3.14A2.89,2.89,0,0,0,463.61,734.3Z"/><path class="cls-36" d="M485.69,734.3a2.89,2.89,0,0,0-1.48-2.65,3.31,3.31,0,0,0-.5-3.14,2.06,2.06,0,0,0-2.59-.6,2.23,2.23,0,0,0-4.38,0,2.08,2.08,0,0,0-2.6.6,3.3,3.3,0,0,0-.49,3.14,3.09,3.09,0,0,0,0,5.29,3.3,3.3,0,0,0,.49,3.14,2.19,2.19,0,0,0,1.68.84,2.07,2.07,0,0,0,.92-.24,2.23,2.23,0,0,0,4.38,0,2,2,0,0,0,.92.24,2.17,2.17,0,0,0,1.67-.84,3.31,3.31,0,0,0,.5-3.14A2.88,2.88,0,0,0,485.69,734.3Z"/><rect class="cls-43" x="322.26" y="661.71" width="187.94" height="39.05" rx="3.02"/><rect class="cls-44" x="313.88" y="661.71" width="187.94" height="39.05" rx="3.02"/><path class="cls-45" d="M338.81,679.41h0c-5.32,0-9.63,5.22-9.63,11.65v1.17a.9.9,0,0,0,.81,1h17.65a.9.9,0,0,0,.81-1v-1.17C348.45,684.63,344.13,679.41,338.81,679.41Z"/><path class="cls-46" d="M342.92,672.43c0,2.74-1.84,6.22-4.11,6.22s-4.1-3.48-4.1-6.22,1.84-5,4.1-5S342.92,669.69,342.92,672.43Z"/><path class="cls-36" d="M337.14,679.41h0c-5.32,0-9.63,5.22-9.63,11.65v1.17a.9.9,0,0,0,.8,1H346a.9.9,0,0,0,.8-1v-1.17C346.77,684.63,342.46,679.41,337.14,679.41Z"/><path class="cls-36" d="M341.24,672.43c0,2.74-1.83,6.22-4.1,6.22s-4.1-3.48-4.1-6.22,1.84-5,4.1-5S341.24,669.69,341.24,672.43Z"/><rect class="cls-36" x="361.47" y="673.32" width="13.09" height="15.82" rx="0.61"/><rect class="cls-36" x="384.03" y="673.32" width="13.09" height="15.82" rx="0.61"/><rect class="cls-36" x="406.12" y="673.32" width="13.09" height="15.82" rx="0.61"/><rect class="cls-36" x="428.21" y="673.32" width="13.09" height="15.82" rx="0.61"/><rect class="cls-36" x="450.3" y="673.32" width="13.09" height="15.82" rx="0.61"/><rect class="cls-36" x="472.38" y="673.32" width="13.09" height="15.82" rx="0.61"/><rect class="cls-47" x="528.32" y="528.17" width="175.52" height="121.56" rx="4.09"/><rect class="cls-48" x="521.35" y="528.17" width="175.52" height="121.56" rx="4.09"/><rect class="cls-49" x="528.32" y="535.7" width="161.82" height="27.96" rx="1.54"/><rect class="cls-50" x="528.32" y="568.9" width="161.82" height="9.32" rx="1.33"/><rect class="cls-51" x="528.32" y="584.29" width="12.25" height="28.16" rx="0.78"/><rect class="cls-52" x="543.91" y="584.29" width="7.6" height="28.16" rx="0.61"/><rect class="cls-53" x="588.59" y="584.29" width="20.65" height="28.16" rx="1.01"/><rect class="cls-54" x="555" y="584.29" width="30.1" height="28.16" rx="1.21"/><ellipse class="cls-55" cx="657.39" cy="636.02" rx="27.46" ry="33.2"/><ellipse class="cls-56" cx="652.32" cy="636.02" rx="27.46" ry="33.2"/><path class="cls-36" d="M662.91,632.93h-.31v-4.24c0-6.94-4.66-12.59-10.42-12.59s-10.41,5.65-10.41,12.59v4.24h-.07c-1.61,0-2.92,1.58-2.92,3.52V652.4c0,2,1.31,3.53,2.92,3.53h21.21a3.27,3.27,0,0,0,2.94-3.53V636.45A3.27,3.27,0,0,0,662.91,632.93ZM654,644.67a.84.84,0,0,0-.32.84l.58,2.61c.36,1.58-.62,3.11-2,3.11s-2.32-1.53-2-3.11l.6-2.64a.79.79,0,0,0-.32-.82,4.46,4.46,0,0,1-1.6-4.42,3.81,3.81,0,0,1,2.61-3.15c2.18-.52,4.1,1.48,4.1,4A4.23,4.23,0,0,1,654,644.67Zm6-11.74H644.41v-4.24c0-5.18,3.49-9.39,7.77-9.39s7.79,4.21,7.79,9.39Z"/><g class="cls-57"><path class="cls-58" d="M399.23,637.24a22,22,0,0,1-11.4,0C268.3,605.92,260.77,419.91,260.92,370.52c0-6.78,4.12-12.56,9.68-13.55,68.63-12.26,104.07-47.25,117-63.17a7.29,7.29,0,0,1,11.79,0c13,15.92,48.42,50.91,117.05,63.17,5.55,1,9.66,6.77,9.68,13.55C526.29,419.91,518.77,605.92,399.23,637.24Z"/></g><path class="cls-59" d="M545.17,370.52c0-6.78-4.13-12.56-9.68-13.55-68.63-12.26-104.08-47.25-117-63.17a7.58,7.58,0,0,0-5.9-3h-19a7.58,7.58,0,0,0-5.89,3c-13,15.92-48.41,50.91-117,63.17-5.56,1-9.67,6.77-9.68,13.55-.15,49.39,7.38,235.4,126.91,266.72a22.09,22.09,0,0,0,5.7.75h19a22,22,0,0,0,5.7-.75C537.78,605.92,545.3,419.91,545.17,370.52Z"/><g class="cls-60"><path class="cls-61" d="M380.22,637.24a22,22,0,0,1-11.4,0C249.29,605.92,241.76,419.91,241.91,370.52c0-6.78,4.12-12.56,9.68-13.55,68.62-12.26,104.07-47.25,117-63.17a7.29,7.29,0,0,1,11.79,0c13,15.92,48.41,50.91,117,63.17,5.56,1,9.67,6.77,9.68,13.55C507.27,419.91,499.76,605.92,380.22,637.24Z"/></g><path class="cls-62" d="M374.52,291.63a6.78,6.78,0,0,1,5.26,2.69c12.17,14.94,48,51,117.54,63.46,5.11.92,9,6.39,9,12.74.06,23.08-1.63,82.9-18.56,139.9-9.39,31.65-22.15,58-37.92,78.37-18.92,24.43-42.41,40.46-69.84,47.65a21.25,21.25,0,0,1-11,0c-27.42-7.19-50.91-23.22-69.83-47.65-15.77-20.36-28.52-46.72-37.92-78.37-16.94-57.05-18.61-116.84-18.55-139.9,0-6.35,3.89-11.82,9-12.74,69.56-12.42,105.37-48.52,117.54-63.46a6.78,6.78,0,0,1,5.25-2.69m0-.83a7.56,7.56,0,0,0-5.89,3c-13,15.92-48.42,50.91-117,63.17-5.56,1-9.67,6.77-9.68,13.55-.15,49.39,7.38,235.4,126.91,266.72a22,22,0,0,0,11.4,0c119.54-31.32,127-217.33,126.92-266.72,0-6.78-4.12-12.56-9.68-13.55-68.63-12.26-104.07-47.25-117-63.17a7.6,7.6,0,0,0-5.9-3Z"/><g class="cls-63"><path class="cls-64" d="M393.53,291.63a6.76,6.76,0,0,1,5.26,2.69c12.17,14.94,48,51,117.54,63.46,5.12.92,9,6.39,9,12.74.06,23.08-1.63,82.9-18.55,139.9-9.4,31.65-22.16,58-37.92,78.37-18.92,24.43-42.42,40.46-69.85,47.65a21.25,21.25,0,0,1-11,0c-27.41-7.19-50.91-23.22-69.83-47.65-15.76-20.36-28.52-46.72-37.92-78.37-16.94-57.05-18.61-116.84-18.54-139.9,0-6.35,3.88-11.82,9-12.74,69.56-12.42,105.38-48.52,117.55-63.46a6.74,6.74,0,0,1,5.24-2.69m0-.83a7.58,7.58,0,0,0-5.89,3c-13,15.92-48.41,50.91-117,63.17-5.56,1-9.67,6.77-9.68,13.55-.15,49.39,7.38,235.4,126.91,266.72a22,22,0,0,0,11.4,0c119.54-31.32,127.06-217.33,126.93-266.72,0-6.78-4.13-12.56-9.68-13.55-68.63-12.26-104.08-47.25-117-63.17a7.58,7.58,0,0,0-5.9-3Z"/></g><path class="cls-65" d="M393.53,291.63a6.76,6.76,0,0,1,5.26,2.69c12.17,14.94,48,51,117.54,63.46,5.12.92,9,6.39,9,12.74.06,23.08-1.63,82.9-18.55,139.9-9.4,31.65-22.16,58-37.92,78.37-18.92,24.43-42.42,40.46-69.85,47.65a21,21,0,0,1-5.48.72h-19a21,21,0,0,1-5.49-.72c-27.42-7.19-50.91-23.22-69.83-47.65-15.77-20.36-28.52-46.72-37.92-78.37-16.94-57.05-18.61-116.84-18.55-139.9,0-6.35,3.88-11.82,9-12.74,69.56-12.42,105.37-48.52,117.54-63.46a6.78,6.78,0,0,1,5.25-2.69h19m0-.83h-19a7.56,7.56,0,0,0-5.89,3c-13,15.92-48.42,50.91-117,63.17-5.56,1-9.67,6.77-9.68,13.55-.15,49.39,7.38,235.4,126.91,266.72a22,22,0,0,0,5.7.75h19a22.09,22.09,0,0,0,5.7-.75c119.54-31.32,127.06-217.33,126.93-266.72,0-6.78-4.13-12.56-9.68-13.55-68.63-12.26-104.08-47.25-117-63.17a7.58,7.58,0,0,0-5.9-3Z"/><ellipse class="cls-66" cx="374.52" cy="477.34" rx="58.68" ry="70.94"/><path class="cls-67" d="M316.56,438.71s33.88,1.79,56.54,33.38c0,0,19.93-51.76,78.4-82.82,0,0-63.5,62.28-78.39,130.7C373.11,520,359.18,467.31,316.56,438.71Z"/><line class="cls-68" x1="505.88" y1="368.3" x2="524.89" y2="368.3"/><line class="cls-69" x1="497.24" y1="358.09" x2="516.26" y2="358.09"/><line class="cls-70" x1="243.17" y1="368.3" x2="262.18" y2="368.3"/><line class="cls-71" x1="251.84" y1="358.09" x2="270.86" y2="358.09"/><path class="cls-72" d="M663.81,15.7c-16.21,0-29.81,13.43-33.69,31.57H544.65a1.7,1.7,0,0,0-1.51,1.83V66.58a1.7,1.7,0,0,0,1.51,1.83h2.72v6.41h-2.66a1.76,1.76,0,0,0-1.57,1.9V86a1.76,1.76,0,0,0,1.57,1.9h19.58a1.76,1.76,0,0,0,1.57-1.9V76.72a1.76,1.76,0,0,0-1.57-1.9h-2.66V68.41h16.48V85.75a2,2,0,0,0,1.73,2.1h10.75a1.94,1.94,0,0,0,1.73-2.1V68.41h37.8c4.2,19.59,19.71,33.67,37.6,31.31,16-2.11,28.91-17.72,30.71-37C700.79,37.27,684.41,15.7,663.81,15.7Zm0,62.45c-9.28,0-16.81-9.07-16.81-20.33s7.53-20.29,16.81-20.29,16.82,9.07,16.82,20.29S673.09,78.15,663.81,78.15Z"/><path class="cls-73" d="M657.63,15.7c-16.21,0-29.81,13.43-33.69,31.57H538.47A1.7,1.7,0,0,0,537,49.1V66.58a1.7,1.7,0,0,0,1.51,1.83h2.72v6.41h-2.66a1.76,1.76,0,0,0-1.57,1.9V86a1.76,1.76,0,0,0,1.57,1.9h19.58a1.76,1.76,0,0,0,1.57-1.9V76.72a1.76,1.76,0,0,0-1.57-1.9h-2.66V68.41h16.48V85.75a2,2,0,0,0,1.73,2.1h10.75a1.94,1.94,0,0,0,1.73-2.1V68.41H624c4.19,19.59,19.7,33.67,37.59,31.31,16-2.11,28.91-17.72,30.71-37C694.61,37.27,678.23,15.7,657.63,15.7Zm0,62.45c-9.28,0-16.81-9.07-16.81-20.33s7.53-20.29,16.81-20.29,16.82,9.07,16.82,20.29S666.92,78.15,657.63,78.15Z"/><rect class="cls-74" x="514.8" y="0.55" width="203.11" height="115.67" rx="4.66"/><rect class="cls-75" x="126.14" y="535.7" width="80.42" height="97.22" rx="3.19"/><rect class="cls-76" x="116.3" y="535.7" width="80.42" height="97.22" rx="3.19"/><path class="cls-36" d="M193.53,536.81a2.09,2.09,0,0,1,2.09,2.09v90.83a2.09,2.09,0,0,1-2.09,2.09h-74a2.09,2.09,0,0,1-2.09-2.09V538.9a2.09,2.09,0,0,1,2.09-2.09h74m0-1.11h-74a3.19,3.19,0,0,0-3.19,3.2v90.83a3.19,3.19,0,0,0,3.19,3.2h74a3.19,3.19,0,0,0,3.19-3.2V538.9a3.19,3.19,0,0,0-3.19-3.2Z"/><path class="cls-36" d="M145.92,563.61l26,18.16a3.27,3.27,0,0,1,0,5.09l-26,18.16c-1.62,1.12-3.64-.29-3.64-2.55V566.15C142.28,563.9,144.3,562.48,145.92,563.61Z"/><path class="cls-77" d="M287.45,66.62H284.5a2.28,2.28,0,0,1-2.07-2A60.21,60.21,0,0,0,276.9,48.4a3,3,0,0,1,.28-3.2l2.07-2.5a3.41,3.41,0,0,0,0-4.19l-8.54-10.32a2.15,2.15,0,0,0-2-.81v-.05h-7v3.16a40.39,40.39,0,0,0-12.61-6.16,2.51,2.51,0,0,1-1.68-2.5V18.28a2.74,2.74,0,0,0-2.45-3H232.93a2.74,2.74,0,0,0-2.45,3v3.55a2.51,2.51,0,0,1-1.67,2.5A40.54,40.54,0,0,0,215.41,31a1.86,1.86,0,0,1-2.65-.34l-2.06-2.49a2.25,2.25,0,0,0-1.7-.86h-7.16l2.58,4.27-5.73,6.92a3.44,3.44,0,0,0,0,4.19l2.07,2.5a3,3,0,0,1,.28,3.2,60.44,60.44,0,0,0-5.53,16.19,2.28,2.28,0,0,1-2.07,2H190.5a2.74,2.74,0,0,0-2.45,3v14.6a2.73,2.73,0,0,0,2.45,3h2.94a2.28,2.28,0,0,1,2.07,2A60.44,60.44,0,0,0,201,105.36a3,3,0,0,1-.28,3.2l-2.07,2.5a3.44,3.44,0,0,0,0,4.19l5.49,6.64-2.27,4.55H209a2.22,2.22,0,0,0,1.71-.86l2.07-2.5a1.87,1.87,0,0,1,2.65-.34,40.47,40.47,0,0,0,13.39,6.68,2.51,2.51,0,0,1,1.67,2.5v3.57a2.74,2.74,0,0,0,2.45,3H245a2.74,2.74,0,0,0,2.45-3v-3.57a2.51,2.51,0,0,1,1.68-2.5,40.56,40.56,0,0,0,13.39-6.68l.14-.07-.81,3.78h7l0,0a2.19,2.19,0,0,0,1.84-.85l8.54-10.32a3.41,3.41,0,0,0,0-4.19l-2.07-2.5a3,3,0,0,1-.28-3.2,60.56,60.56,0,0,0,5.53-16.19,2.28,2.28,0,0,1,2.07-2h2.95a2.74,2.74,0,0,0,2.45-3V69.58A2.75,2.75,0,0,0,287.45,66.62Zm-51.34,41.46C224.21,106.54,214.57,95,213.2,80.6c-1.81-19,10.42-35.09,25.77-35.09,14.34,0,25.94,14.06,25.94,31.36C264.91,95.35,251.73,110.1,236.11,108.08Z"/><path class="cls-78" d="M282.81,84.18V69.58a2.75,2.75,0,0,0-2.45-3h-2.94a2.28,2.28,0,0,1-2.08-2,60.2,60.2,0,0,0-5.52-16.19,3,3,0,0,1,.27-3.2l2.07-2.5a3.41,3.41,0,0,0,0-4.19l-8.54-10.32a2.16,2.16,0,0,0-3.46,0l-2.07,2.49a1.86,1.86,0,0,1-2.65.34,40.49,40.49,0,0,0-13.39-6.69,2.52,2.52,0,0,1-1.68-2.5V18.28a2.73,2.73,0,0,0-2.45-3H225.85a2.73,2.73,0,0,0-2.45,3v3.55a2.52,2.52,0,0,1-1.68,2.5A40.63,40.63,0,0,0,208.32,31a1.86,1.86,0,0,1-2.65-.34l-2.06-2.49a2.17,2.17,0,0,0-3.47,0l-8.53,10.32a3.41,3.41,0,0,0,0,4.19l2.06,2.5a3,3,0,0,1,.28,3.2,60.44,60.44,0,0,0-5.53,16.19,2.28,2.28,0,0,1-2.07,2h-2.94a2.75,2.75,0,0,0-2.45,3v14.6a2.74,2.74,0,0,0,2.45,3h2.94a2.27,2.27,0,0,1,2.07,2A60.44,60.44,0,0,0,194,105.36a3,3,0,0,1-.28,3.2l-2.06,2.5a3.41,3.41,0,0,0,0,4.19l8.53,10.32a2.17,2.17,0,0,0,3.47,0l2.07-2.5a1.87,1.87,0,0,1,2.65-.34,40.47,40.47,0,0,0,13.39,6.68,2.53,2.53,0,0,1,1.68,2.5v3.57a2.73,2.73,0,0,0,2.45,3h12.07a2.73,2.73,0,0,0,2.45-3v-3.57a2.52,2.52,0,0,1,1.68-2.5,40.47,40.47,0,0,0,13.39-6.68,1.86,1.86,0,0,1,2.65.34l2.07,2.5a2.16,2.16,0,0,0,3.46,0l8.54-10.32a3.41,3.41,0,0,0,0-4.19l-2.07-2.5a3,3,0,0,1-.28-3.2,60.44,60.44,0,0,0,5.53-16.19,2.28,2.28,0,0,1,2.07-2h2.95A2.74,2.74,0,0,0,282.81,84.18ZM229,108.08c-11.9-1.54-21.53-13.12-22.9-27.48-1.81-19,10.41-35.09,25.76-35.09,14.34,0,25.95,14.06,25.95,31.36C257.83,95.35,244.64,110.1,229,108.08Z"/><path class="cls-79" d="M728,752.06h-2.94a2.27,2.27,0,0,1-2.07-2,60.56,60.56,0,0,0-5.53-16.19,3,3,0,0,1,.28-3.2l2.07-2.5a3.44,3.44,0,0,0,0-4.19l-8.54-10.32a2.17,2.17,0,0,0-2-.81v-.05h-7v3.16a40.45,40.45,0,0,0-12.62-6.16,2.51,2.51,0,0,1-1.67-2.5v-3.55a2.74,2.74,0,0,0-2.45-3H673.5a2.74,2.74,0,0,0-2.45,3v3.55a2.51,2.51,0,0,1-1.68,2.5A40.49,40.49,0,0,0,656,716.46a1.87,1.87,0,0,1-2.66-.34l-2.06-2.49a2.23,2.23,0,0,0-1.7-.86H642.4L645,717,639.26,724a3.41,3.41,0,0,0,0,4.19l2.06,2.5a3,3,0,0,1,.28,3.2A60.44,60.44,0,0,0,636.07,750a2.27,2.27,0,0,1-2.07,2h-2.94a2.75,2.75,0,0,0-2.45,3v14.6a2.74,2.74,0,0,0,2.45,3H634a2.28,2.28,0,0,1,2.08,2,60.09,60.09,0,0,0,5.53,16.19,3,3,0,0,1-.28,3.2l-2.07,2.5a3.41,3.41,0,0,0,0,4.19l5.49,6.64-2.28,4.55h7.09a2.2,2.2,0,0,0,1.7-.86l2.07-2.5a1.87,1.87,0,0,1,2.65-.34,40.56,40.56,0,0,0,13.39,6.68,2.51,2.51,0,0,1,1.68,2.5v3.57a2.74,2.74,0,0,0,2.45,3h12.08a2.74,2.74,0,0,0,2.45-3v-3.57a2.51,2.51,0,0,1,1.67-2.5,40.47,40.47,0,0,0,13.39-6.68l.15-.07-.82,3.78h7l0,0a2.21,2.21,0,0,0,1.84-.85l8.54-10.32a3.44,3.44,0,0,0,0-4.19l-2.07-2.5a3,3,0,0,1-.28-3.2A60.56,60.56,0,0,0,723,774.61a2.27,2.27,0,0,1,2.07-2H728a2.73,2.73,0,0,0,2.45-3V755A2.74,2.74,0,0,0,728,752.06Zm-51.34,41.46C664.78,792,655.14,780.4,653.77,766,652,747.07,664.18,731,679.54,731c14.33,0,25.94,14.06,25.94,31.36C705.48,780.79,692.3,795.54,676.67,793.52Z"/><path class="cls-80" d="M723.37,769.62V755a2.74,2.74,0,0,0-2.45-3H718a2.28,2.28,0,0,1-2.07-2,60.56,60.56,0,0,0-5.53-16.19,3,3,0,0,1,.28-3.2l2.07-2.5a3.44,3.44,0,0,0,0-4.19l-8.54-10.32a2.16,2.16,0,0,0-3.46,0l-2.07,2.49a1.86,1.86,0,0,1-2.65.34,40.59,40.59,0,0,0-13.39-6.69,2.51,2.51,0,0,1-1.68-2.5v-3.55a2.74,2.74,0,0,0-2.45-3H666.41a2.74,2.74,0,0,0-2.45,3v3.55a2.51,2.51,0,0,1-1.68,2.5,40.49,40.49,0,0,0-13.39,6.69,1.86,1.86,0,0,1-2.65-.34l-2.07-2.49a2.16,2.16,0,0,0-3.46,0L632.17,724a3.41,3.41,0,0,0,0,4.19l2.07,2.5a3,3,0,0,1,.28,3.2A60.09,60.09,0,0,0,629,750a2.28,2.28,0,0,1-2.08,2H624a2.75,2.75,0,0,0-2.45,3v14.6a2.74,2.74,0,0,0,2.45,3h2.95a2.28,2.28,0,0,1,2.07,2,60.44,60.44,0,0,0,5.53,16.19,3,3,0,0,1-.28,3.2l-2.07,2.5a3.41,3.41,0,0,0,0,4.19L640.71,811a2.16,2.16,0,0,0,3.46,0l2.07-2.5a1.88,1.88,0,0,1,2.66-.34,40.51,40.51,0,0,0,13.38,6.68,2.51,2.51,0,0,1,1.68,2.5v3.57a2.74,2.74,0,0,0,2.45,3h12.08a2.74,2.74,0,0,0,2.45-3v-3.57a2.51,2.51,0,0,1,1.68-2.5A40.51,40.51,0,0,0,696,808.17a1.86,1.86,0,0,1,2.65.34l2.08,2.5a2.16,2.16,0,0,0,3.46,0l8.54-10.32a3.44,3.44,0,0,0,0-4.19l-2.07-2.5a3,3,0,0,1-.28-3.2,60.44,60.44,0,0,0,5.53-16.19,2.27,2.27,0,0,1,2.07-2h2.94A2.73,2.73,0,0,0,723.37,769.62Zm-53.79,23.9C657.69,792,648.05,780.4,646.68,766c-1.81-19,10.41-35.09,25.77-35.09,14.33,0,25.94,14.06,25.94,31.36C698.39,780.79,685.21,795.54,669.58,793.52Z"/><path class="cls-81" d="M669.05,283.05h-1.6a1.23,1.23,0,0,1-1.12-1.09,32.54,32.54,0,0,0-3-8.77,1.61,1.61,0,0,1,.15-1.73l1.12-1.36a1.83,1.83,0,0,0,0-2.26L660,262.25a1.19,1.19,0,0,0-1.07-.44v0h-3.78v1.7a22.11,22.11,0,0,0-6.83-3.33,1.36,1.36,0,0,1-.91-1.35v-1.93a1.48,1.48,0,0,0-1.33-1.6h-6.54a1.48,1.48,0,0,0-1.32,1.6v1.92a1.36,1.36,0,0,1-.91,1.36,21.85,21.85,0,0,0-7.25,3.62,1,1,0,0,1-1.44-.18l-1.11-1.35a1.24,1.24,0,0,0-.92-.47H622.7l1.4,2.31-3.1,3.75a1.83,1.83,0,0,0,0,2.26l1.12,1.36a1.63,1.63,0,0,1,.15,1.73,32.9,32.9,0,0,0-3,8.77,1.22,1.22,0,0,1-1.12,1.09h-1.59a1.49,1.49,0,0,0-1.32,1.61v7.9a1.48,1.48,0,0,0,1.32,1.6h1.59a1.24,1.24,0,0,1,1.13,1.1,32.35,32.35,0,0,0,3,8.76,1.63,1.63,0,0,1-.15,1.74L621,307.11a1.85,1.85,0,0,0,0,2.27l3,3.59-1.23,2.47h3.83a1.2,1.2,0,0,0,.93-.46l1.12-1.36a1,1,0,0,1,1.43-.18,22.33,22.33,0,0,0,7.25,3.62,1.35,1.35,0,0,1,.91,1.35v1.93a1.49,1.49,0,0,0,1.32,1.61h6.54a1.49,1.49,0,0,0,1.33-1.61V318.4a1.35,1.35,0,0,1,.91-1.35,22.18,22.18,0,0,0,7.24-3.62s.06,0,.08,0l-.44,2.05H659v0a1.2,1.2,0,0,0,1-.45l4.62-5.59a1.85,1.85,0,0,0,0-2.27l-1.12-1.35a1.61,1.61,0,0,1-.15-1.74,32.7,32.7,0,0,0,3-8.76,1.23,1.23,0,0,1,1.12-1.1h1.6a1.48,1.48,0,0,0,1.32-1.6v-7.9A1.49,1.49,0,0,0,669.05,283.05Zm-27.8,22.45c-6.44-.84-11.65-7.1-12.4-14.88-1-10.27,5.64-19,13.95-19,7.76,0,14.05,7.62,14.05,17C656.85,298.6,649.71,306.59,641.25,305.5Z"/><path class="cls-82" d="M666.53,292.56v-7.9a1.49,1.49,0,0,0-1.32-1.61h-1.6a1.24,1.24,0,0,1-1.12-1.09,32.54,32.54,0,0,0-3-8.77,1.61,1.61,0,0,1,.15-1.73l1.12-1.36a1.83,1.83,0,0,0,0-2.26l-4.62-5.59a1.17,1.17,0,0,0-1.88,0l-1.11,1.35a1,1,0,0,1-1.44.18,22,22,0,0,0-7.25-3.62,1.36,1.36,0,0,1-.91-1.35v-1.93a1.48,1.48,0,0,0-1.32-1.6H635.7a1.49,1.49,0,0,0-1.33,1.6v1.92a1.36,1.36,0,0,1-.91,1.36,21.94,21.94,0,0,0-7.25,3.62,1,1,0,0,1-1.43-.18l-1.12-1.35a1.17,1.17,0,0,0-1.88,0l-4.62,5.59a1.83,1.83,0,0,0,0,2.26l1.12,1.36a1.61,1.61,0,0,1,.15,1.73,32.54,32.54,0,0,0-3,8.77,1.23,1.23,0,0,1-1.12,1.09h-1.6a1.49,1.49,0,0,0-1.32,1.61v7.9a1.48,1.48,0,0,0,1.32,1.6h1.6a1.23,1.23,0,0,1,1.12,1.1,32.35,32.35,0,0,0,3,8.76,1.63,1.63,0,0,1-.15,1.74l-1.12,1.35a1.85,1.85,0,0,0,0,2.27l4.62,5.59a1.18,1.18,0,0,0,1.88,0l1.12-1.36a1,1,0,0,1,1.44-.18,22.18,22.18,0,0,0,7.24,3.62,1.35,1.35,0,0,1,.91,1.35v1.93a1.49,1.49,0,0,0,1.33,1.61h6.54a1.49,1.49,0,0,0,1.32-1.61V318.4a1.35,1.35,0,0,1,.91-1.35,22.33,22.33,0,0,0,7.25-3.62,1,1,0,0,1,1.43.18l1.12,1.36a1.18,1.18,0,0,0,1.88,0l4.62-5.59a1.85,1.85,0,0,0,0-2.27l-1.12-1.35a1.63,1.63,0,0,1-.15-1.74,32.35,32.35,0,0,0,3-8.76,1.23,1.23,0,0,1,1.12-1.1h1.6A1.48,1.48,0,0,0,666.53,292.56ZM637.42,305.5c-6.44-.84-11.66-7.1-12.4-14.88-1-10.27,5.63-19,13.94-19,7.77,0,14,7.62,14,17C653,298.6,645.87,306.59,637.42,305.5Z"/><path class="cls-83" d="M204.3,718.48v-.11H188.74v2.89a37.75,37.75,0,0,0-7.11,4c-2.44-26.27-20.77-46.7-43.09-46.95v0H124.32v2.73c-17.4,7-30,26.81-30,50.2,0,2,.1,3.89.27,5.79a28.33,28.33,0,0,0-6.2-.7C70,736.36,55,754.45,55,776.77s15,40.42,33.43,40.42H202.5c22.58,0,40.87-22.12,40.87-49.41C243.37,741.23,226,719.63,204.3,718.48Z"/><path class="cls-84" d="M188.7,718.37a35.54,35.54,0,0,0-20.88,6.94c-2.45-26.43-21-47-43.5-47-24.18,0-43.78,23.7-43.78,52.93,0,2,.1,3.89.27,5.79a28.33,28.33,0,0,0-6.2-.7c-18.46,0-33.43,18.09-33.43,40.41s15,40.42,33.43,40.42H188.7c22.57,0,40.87-22.12,40.87-49.41S211.27,718.37,188.7,718.37Z"/><path class="cls-85" d="M784.55,174.87v-.08H773.23v2.1a27.63,27.63,0,0,0-5.17,2.94c-1.77-19.1-15.09-34-31.33-34.13v0H726.4v2c-12.65,5.08-21.79,19.48-21.79,36.49,0,1.43.07,2.83.19,4.22a20.36,20.36,0,0,0-4.5-.52C686.88,187.86,676,201,676,217.25s10.89,29.38,24.31,29.38h82.94c16.41,0,29.71-16.08,29.71-35.92C813,191.4,800.35,175.7,784.55,174.87Z"/><path class="cls-86" d="M773.2,174.79a25.86,25.86,0,0,0-15.18,5c-1.78-19.21-15.25-34.15-31.62-34.15-17.58,0-31.83,17.23-31.83,38.48,0,1.43.07,2.83.19,4.22a20.36,20.36,0,0,0-4.5-.52C676.84,187.86,666,201,666,217.25s10.89,29.38,24.31,29.38H773.2c16.41,0,29.72-16.08,29.72-35.92S789.61,174.79,773.2,174.79Z"/><path class="cls-87" d="M98.28,120.8v-.06H88.9v1.73a23,23,0,0,0-4.28,2.44c-1.47-15.82-12.51-28.13-26-28.28v0H50.09v1.65C39.61,102.47,32,114.41,32,128.5c0,1.18.06,2.35.16,3.5a16.47,16.47,0,0,0-3.73-.43c-11.12,0-20.14,10.9-20.14,24.35s9,24.35,20.14,24.35H97.2c13.6,0,24.62-13.32,24.62-29.77C121.82,134.51,111.38,121.49,98.28,120.8Z"/><path class="cls-88" d="M88.88,120.74a21.4,21.4,0,0,0-12.58,4.17C74.82,109,63.66,96.61,50.09,96.61c-14.57,0-26.38,14.28-26.38,31.89,0,1.18.06,2.35.16,3.5a16.47,16.47,0,0,0-3.73-.43C9,131.57,0,142.47,0,155.92s9,24.35,20.14,24.35H88.88c13.6,0,24.62-13.32,24.62-29.77S102.48,120.74,88.88,120.74Z"/></g></g></g></svg>