<!-- <svg xmlns="http://www.w3.org/2000/svg" width="397" height="810" viewBox="0 0 397 810" fill="none">
  <path d="M363.127 0.953857H33.4247C15.0137 0.953857 0.0742188 17.4124 0.0742188 37.7584V773.026C0.0742188 793.33 15.0137 809.831 33.4247 809.831H363.127C381.558 809.831 396.517 793.33 396.517 773.026V37.7584C396.517 17.4124 381.558 0.953857 363.127 0.953857ZM375.668 750.293C375.668 769.646 362.288 785.302 345.789 785.302H50.8216C34.2829 785.302 20.9037 769.646 20.9037 750.293V65.626C20.9037 26.2016 34.2829 24.2789 50.8216 24.2789H109.897C113.33 24.2789 116.138 28.5045 116.138 33.7442V36.0049C116.138 48.2801 122.34 48.3223 129.966 48.3223H266.605C274.29 48.3223 280.433 48.2801 280.433 36.0049V33.7442C280.433 28.5045 283.203 24.2789 286.694 24.2789H345.789C362.288 24.2789 375.668 29.5186 375.668 65.626V750.293Z" fill="#263238"/>
</svg> -->
<svg width="397" height="810" viewBox="0 0 397 810" fill="none" xmlns="http://www.w3.org/2000/svg">
<path d="M363.127 0.953857H33.4247C15.0137 0.953857 0.0742188 17.4124 0.0742188 37.7584V773.026C0.0742188 793.33 15.0137 809.831 33.4247 809.831H363.127C381.558 809.831 396.517 793.33 396.517 773.026V37.7584C396.517 17.4124 381.558 0.953857 363.127 0.953857ZM375.668 750.293C375.668 769.646 362.288 785.302 345.789 785.302H50.8216C34.2829 785.302 20.9037 769.646 20.9037 750.293V65.626C20.9037 26.2016 34.2829 24.2789 50.8216 24.2789H109.897C113.33 24.2789 116.138 28.5045 116.138 33.7442V36.0049C116.138 48.2801 122.34 48.3223 129.966 48.3223H266.605C274.29 48.3223 280.433 48.2801 280.433 36.0049V33.7442C280.433 28.5045 283.203 24.2789 286.694 24.2789H345.789C362.288 24.2789 375.668 29.5186 375.668 65.626V750.293Z" fill="#263238"/>
<path d="M375.67 65.6259V750.293C375.67 769.646 362.291 785.302 345.791 785.302H50.8242C34.2855 785.302 20.9062 769.646 20.9062 750.293V65.6259C20.9062 26.2014 34.2855 24.2788 50.8242 24.2788H109.9C113.332 24.2788 116.141 28.5044 116.141 33.744V36.0047C116.141 48.28 122.343 48.3222 129.968 48.3222H266.608C274.292 48.3222 280.436 48.28 280.436 36.0047V33.744C280.436 28.5044 283.205 24.2788 286.696 24.2788H345.791C362.291 24.2788 375.67 29.5185 375.67 65.6259Z" fill="white"/>
</svg>
