<svg width="194" height="315" viewBox="0 0 194 315" fill="none" xmlns="http://www.w3.org/2000/svg">
<path d="M113.197 182.239C113.197 182.239 146.546 174.048 164.826 155.804C183.107 137.56 193.317 104.874 193.317 104.874C193.317 104.874 173.687 108.769 155.915 115.516C152.933 118.974 147.25 126.101 144.599 132.847C144.599 132.847 144.038 125.72 144.512 120.455C139.757 122.832 135.618 125.454 132.634 128.266C117.478 142.633 113.197 182.239 113.197 182.239Z" fill="#FFC727"/>
<path d="M172.493 120.759C177.04 117.352 181.668 114.064 186.194 110.627C186.467 110.419 186.21 109.957 185.919 110.145C177.326 115.706 168.854 121.649 160.657 127.871C157.798 130.041 154.993 132.299 152.218 134.602C152.411 134.245 152.604 133.888 152.799 133.531C153.8 131.716 154.855 129.935 155.91 128.158C158.03 124.584 160.347 121.066 162.989 117.922C163.089 117.806 162.921 117.633 162.826 117.753C160.234 120.996 157.64 124.207 155.266 127.649C154.139 129.287 153.095 130.979 152.097 132.711C151.578 133.609 151.077 134.518 150.599 135.441C150.439 135.75 150.264 136.058 150.1 136.375C145.788 140.043 141.589 143.867 137.581 147.913C135.108 150.408 132.722 152.998 130.419 155.667C131.708 151.295 132.834 146.873 134.329 142.568C134.38 142.422 134.158 142.358 134.109 142.508C132.658 147.023 131.069 151.562 129.945 156.199C127.388 159.189 124.946 162.288 122.645 165.512C122.684 165.316 122.723 165.117 122.766 164.925C123.144 163.222 123.538 161.523 123.96 159.833C124.771 156.565 125.656 153.317 126.674 150.117C128.761 143.55 131.468 137.127 135.634 131.786C135.728 131.666 135.564 131.494 135.47 131.617C128.956 139.971 125.136 149.99 122.698 160.509C122.341 162.049 122.005 163.594 121.682 165.14C121.51 165.958 121.311 166.795 121.182 167.638C120.174 169.112 119.185 170.604 118.237 172.132C112.447 181.466 107.932 191.666 104.127 202.11C99.8399 213.87 96.5088 226.016 93.437 238.205C93.3766 238.443 93.7081 238.526 93.7783 238.298C100.3 217.157 106.963 195.714 118.128 176.818C120.486 172.829 123.037 168.986 125.742 165.276C131.228 164.942 136.765 163.653 141.961 161.777C147.707 159.702 153.129 156.829 158.215 153.273C161.152 151.221 163.826 148.826 166.545 146.457C166.672 146.347 166.529 146.151 166.403 146.267C161.891 150.4 156.471 153.634 151.116 156.286C145.735 158.948 140.073 161.035 134.292 162.4C131.829 162.981 129.333 163.41 126.834 163.778C129.918 159.664 133.204 155.728 136.67 151.976C137.793 150.759 138.961 149.593 140.118 148.416C143.947 145.386 148.192 142.994 152.446 140.765C157.909 137.905 163.288 134.875 168.696 131.894C171.746 130.212 174.779 128.492 177.855 126.865C177.986 126.796 177.865 126.589 177.736 126.656C172.255 129.523 166.689 132.204 161.156 134.951C155.949 137.535 150.681 140.127 145.684 143.17C145.468 143.301 145.267 143.444 145.054 143.577C149.569 139.316 154.246 135.255 159.03 131.342C163.452 127.715 167.935 124.176 172.493 120.759Z" fill="#263238"/>
<path d="M170.598 139.386C167.885 140.674 165.124 141.815 162.44 143.174C159.679 144.573 157.063 146.21 154.442 147.89C154.327 147.964 154.434 148.139 154.549 148.078C157.207 146.7 159.901 145.409 162.536 143.975C165.233 142.504 167.899 140.934 170.665 139.62C170.795 139.559 170.731 139.322 170.598 139.386Z" fill="#263238"/>
<path d="M4.85938 0.172607C4.85938 0.172607 14.2229 11.7887 14.8275 30.1783C14.9367 33.4193 14.4647 37.9322 14.1195 43.2437C26.5548 50.4356 35.8812 63.3933 35.8812 63.3933C28.8172 58.7959 19.1201 56.9387 13.8894 57.6888C14.0668 61.1812 14.4491 64.8088 15.1629 68.4851C17.4721 68.3414 21.9325 68.6752 29.3086 71.5148C29.3086 71.5148 22.071 71.3162 16.5535 74.2614C22.4981 94.749 40.17 115.799 88.9651 124.736C88.9651 124.736 98.3793 88.848 80.3232 50.3511C65.7017 19.1961 4.85938 0.172607 4.85938 0.172607Z" fill="#FFC727"/>
<path d="M105.855 212.405C105.006 203.652 103.943 194.922 102.695 186.226C100.197 168.825 96.9632 151.523 92.8539 134.482C90.9172 126.445 88.5944 118.575 85.8113 110.903C85.9927 109.513 85.9634 108.064 85.9907 106.671C86.0239 104.979 86.0317 103.284 86.0141 101.592C85.979 98.2054 85.8327 94.827 85.5656 91.4508C85.0409 84.7871 84.1028 78.1129 82.5679 71.633C81.6747 67.868 80.639 64.1601 79.619 60.4331C79.5781 60.281 79.3616 60.3528 79.4025 60.505C81.1286 66.9489 82.1213 73.6549 83.0048 80.2869C83.8805 86.8577 84.4207 93.4897 84.6431 100.124C84.7035 101.941 84.7347 103.758 84.7367 105.575C84.7367 106.344 84.7055 107.126 84.6801 107.909C82.2773 101.618 79.5683 95.4609 76.4595 89.4733C71.5408 80.0038 65.8887 71.0033 59.7569 62.4064C59.8135 61.4261 59.5404 60.393 59.3571 59.4507C59.1289 58.2697 58.891 57.0907 58.6472 55.9139C58.1479 53.499 57.5882 51.0967 56.9836 48.7093C55.7705 43.9196 54.1692 39.2906 52.7865 34.5622C52.7436 34.4122 52.5271 34.4819 52.57 34.634C53.8591 39.3159 54.7153 44.1647 55.7041 48.9312C56.1937 51.289 56.6696 53.649 57.1493 56.009C57.3892 57.1879 57.6213 58.369 57.8456 59.5521C57.8612 59.6366 57.8749 59.7296 57.8905 59.8162C55.9187 57.1203 53.9079 54.4603 51.8484 51.8468C42.5297 40.011 32.3139 29.0901 22.0318 18.2494C20.768 16.9162 19.471 15.6169 18.1897 14.3048C18.0824 14.195 17.9322 14.3682 18.0336 14.4823C27.8594 25.5871 37.5369 36.8207 46.6995 48.5784C48.8761 51.3736 51.0214 54.2004 53.1278 57.0632C52.02 56.2498 50.9005 55.4575 49.7986 54.6758C46.9608 52.6623 44.0841 50.7038 41.1235 48.908C38.1629 47.11 35.1789 45.3542 32.1364 43.7211C29.0081 42.0414 25.6633 40.6745 22.6442 38.7708C22.5155 38.6884 22.4024 38.9272 22.535 38.9863C25.6477 40.3681 28.5537 42.4766 31.4382 44.3295C34.4086 46.2374 37.3731 48.16 40.2888 50.1629C43.1558 52.1342 46.0403 54.0779 48.8878 56.0808C51.2613 57.752 53.5997 59.5775 56.0591 61.1198C61.6877 69.0174 66.977 77.198 71.6929 85.7675C74.6652 91.1677 77.3488 96.7074 79.7731 102.368C79.188 102.091 78.6009 101.822 78.0236 101.546C76.5355 100.829 75.0455 100.113 73.5555 99.397C70.6865 98.0173 67.802 96.6715 64.9233 95.3151C59.4527 92.7375 53.8923 90.3691 48.525 87.5401C45.5156 85.9555 42.5531 84.2822 39.7661 82.2708C39.6432 82.1821 39.5379 82.3976 39.6569 82.4863C49.6601 89.9571 60.8784 95.2221 71.9503 100.529L76.752 102.83C78.0705 103.462 79.3928 104.17 80.7502 104.721C84.017 112.646 86.7787 120.812 89.002 129.217C93.4449 146.005 96.8306 163.159 99.6176 180.354C102.416 197.62 104.306 215.002 105.773 232.453C105.956 234.634 106.138 236.808 106.364 238.984C106.455 239.85 107.643 239.85 107.635 238.95C107.544 230.087 106.707 221.211 105.855 212.405Z" fill="#263238"/>
<path d="M76.1649 66.4249C75.2697 61.05 73.9493 55.7955 72.6114 50.5368C72.5724 50.3847 72.3579 50.4544 72.3949 50.6086C73.6295 55.7723 74.511 61.0352 75.4082 66.2791C76.3209 71.6202 77.1283 76.9887 77.8227 82.3679C77.8344 82.4587 77.965 82.4609 77.9592 82.3637C77.6374 77.012 77.0425 71.7026 76.1649 66.4249Z" fill="#263238"/>
<path d="M55.139 80.999C51.8313 78.4637 48.1179 76.541 44.5273 74.5296C42.7486 73.5345 40.9485 72.588 39.1464 71.6436C37.2897 70.6696 35.3588 69.854 33.5177 68.8526C33.3871 68.7808 33.2778 68.9963 33.4085 69.0681C35.1931 70.0379 36.884 71.2126 38.6393 72.2479C40.4472 73.3148 42.2435 74.4008 44.0573 75.4571C47.6244 77.5319 51.1331 79.8349 54.8777 81.5188C55.2014 81.6624 55.4257 81.2208 55.139 80.999Z" fill="#263238"/>
<path opacity="0.1" d="M113.805 119.657C113.805 119.657 144.665 111.672 158.834 89.2452C172.365 67.828 176.738 31.3192 177.087 28.1099C176.531 31.0551 170.163 62.9623 149.152 77.8257C133.068 89.2135 117.524 98.5732 113.805 119.657Z" fill="#263238"/>
<path d="M142.288 61.8973C136.858 67.5617 132.786 74.2254 130.912 82.1969C130.896 82.2645 130.988 82.3004 131.009 82.2328C133.328 74.8085 137.153 67.4941 142.44 62.0811C142.546 61.9713 142.393 61.7875 142.288 61.8973Z" fill="#263238"/>
<path d="M113.803 119.657C113.803 119.657 144.663 111.672 158.832 89.2452C172.364 67.828 176.736 31.3192 177.085 28.1098C177.115 27.9598 177.12 27.8838 177.12 27.8838C177.12 27.8838 162.323 50.6764 146.766 56.4866C131.208 62.2988 109.343 82.4041 113.803 119.657Z" fill="#FFC727"/>
<path d="M171.654 40.455C168.793 46.5356 165.791 52.5696 162.115 58.1262C158.534 63.5371 154.222 68.1429 149.42 72.2776C145.229 75.8841 140.796 79.1526 136.554 82.6873C136.587 82.6324 136.616 82.5754 136.649 82.5204C137.447 81.2401 138.299 79.9956 139.177 78.7786C140.944 76.332 142.875 74.0249 144.817 71.741C148.652 67.2344 152.568 62.8124 156.004 57.934C157.908 55.2317 159.581 52.3563 160.952 49.2991C161.017 49.1575 160.8 49.0793 160.738 49.2209C155.733 60.52 145.736 67.7479 138.602 77.2913C137.585 78.6498 136.628 80.0506 135.75 81.5168C135.132 82.55 134.375 83.7036 133.973 84.9142C130.092 88.3601 126.506 92.1145 123.446 96.4415C123.703 94.2463 124.144 92.0575 124.684 89.9511C125.451 86.9573 126.455 84.143 127.955 81.4851C128.031 81.3499 127.84 81.2126 127.766 81.3499C126.322 83.9888 125.006 86.8284 124.167 89.7609C123.487 92.1441 123.165 94.5316 123.044 96.9803C123.038 96.9887 123.032 96.995 123.028 97.0035C121.489 99.243 120.12 101.601 118.858 104.026C118.987 103.312 119.112 102.598 119.243 101.886C119.855 98.5543 120.532 95.233 121.33 91.9476C122.948 85.286 125.135 78.8272 128.752 73.1143C128.834 72.9833 128.645 72.8481 128.563 72.9791C124.992 78.616 122.285 84.91 120.339 91.4046C119.356 94.6858 118.566 98.0219 117.874 101.385C117.536 103.031 117.23 104.681 116.939 106.336C116.789 107.191 116.618 108.066 116.491 108.947C113.337 116.169 111.122 123.914 109.372 131.609C106.224 145.462 104.262 159.713 102.792 173.879C101.247 188.755 100.44 203.792 100.664 218.761C100.691 220.641 100.795 222.517 100.89 224.396C100.915 224.879 101.583 224.951 101.604 224.44C101.906 217.022 102.084 209.6 102.489 202.188C102.895 194.768 103.49 187.369 104.223 179.977C105.663 165.477 107.74 150.998 110.653 136.755C113.156 124.533 116.401 112.23 122.566 101.523C125.657 96.1542 129.353 91.4046 133.7 87.1791C138.026 82.9725 142.758 79.2858 147.32 75.3877C151.856 71.5107 156.219 67.2915 159.817 62.373C163.7 57.0657 166.756 51.1119 169.631 45.1179C170.359 43.6009 171.106 42.0966 171.843 40.586C171.911 40.4507 171.72 40.3156 171.654 40.455Z" fill="#263238"/>
<path d="M166.327 45.3566C164.348 49.88 161.966 54.1837 159.452 58.3797C159.392 58.479 159.53 58.5783 159.595 58.4811C162.282 54.3738 164.521 49.9624 166.542 45.4347C166.604 45.2931 166.388 45.215 166.327 45.3566Z" fill="#263238"/>
<path d="M0.559228 104.874C0.559228 104.874 0.0696978 152.381 26.2918 166.095C52.512 179.829 66.5718 168.386 84.39 172.981C84.39 172.981 84.3724 172.977 84.3588 172.956C83.6684 171.823 70.9503 152.02 50.7255 146.569C29.9194 140.949 6.86658 124.668 0.559228 104.874Z" fill="#FFC727"/>
<path opacity="0.1" d="M0.559228 104.874C0.559228 104.874 0.0696978 152.381 26.2918 166.095C52.512 179.829 66.5718 168.386 84.39 172.981C84.39 172.981 84.3724 172.977 84.3588 172.956C83.6196 172.567 70.611 165.517 54.5461 163.429C38.0133 161.272 6.42385 149.601 0.559228 104.874Z" fill="black"/>
<path d="M86.1154 173.826C82.9871 170.773 79.4863 168.147 75.6851 166.176C75.1234 165.884 74.5442 165.645 73.9727 165.383C73.6958 165.003 73.4013 164.644 73.0931 164.293C72.3071 163.404 71.488 162.554 70.624 161.754C68.976 160.222 67.2207 158.823 65.3503 157.632C61.0069 154.866 56.2462 152.929 51.8034 150.359C51.6747 150.286 51.5635 150.501 51.6942 150.575C53.8902 151.811 56.0161 153.172 58.1517 154.524C60.2288 155.838 62.3546 157.091 64.3771 158.504C66.1929 159.774 67.9404 161.177 69.5669 162.717C70.0292 163.154 70.4719 163.63 70.9146 164.112C68.0223 163.038 65.05 162.218 62.0523 161.561C57.2506 160.511 52.3963 159.768 47.6063 158.661C45.2503 158.116 42.9294 157.437 40.6475 156.626C38.471 154.729 36.3003 152.842 34.2388 150.784C31.7501 148.3 29.4663 145.597 27.4614 142.642C27.3756 142.515 27.1786 142.646 27.2683 142.77C30.5039 147.294 33.9735 151.853 38.0185 155.62C36.8893 155.156 35.7698 154.657 34.6659 154.114C25.7568 149.73 17.8287 142.764 12.321 133.975C12.2391 133.844 12.0441 133.973 12.1279 134.104C16.9277 141.632 23.0185 148.076 30.2035 152.901C33.8058 155.32 37.605 157.302 41.6246 158.758C46.2469 160.431 51.0369 161.422 55.8172 162.392C60.4979 163.34 65.1963 164.31 69.7152 165.973C73.8967 167.513 77.8344 169.744 81.3703 172.613C88.1204 178.09 93.3394 185.584 97.0821 193.72C102.044 204.506 104.417 216.561 105.736 228.456C105.792 228.965 106.518 228.965 106.485 228.437C105.254 208.474 100.327 187.694 86.1154 173.826Z" fill="#263238"/>
<path d="M55.6854 158.335C54.3747 156.068 52.4127 154.367 50.2947 153.043C47.8178 151.492 45.5963 149.821 43.8839 147.296C43.7981 147.167 43.6012 147.3 43.6909 147.425C45.2745 149.628 47.1741 151.437 49.3527 152.918C51.6404 154.473 53.9496 155.996 55.5215 158.445C55.5917 158.555 55.7517 158.449 55.6854 158.335Z" fill="#263238"/>
<path d="M69.5977 208.89L70.7913 235.014L74.4481 314.831H129.457L133.116 235.014L134.307 208.89H69.5977Z" fill="#455A64"/>
<path d="M69.5977 208.89L70.7913 235.014H133.116L134.307 208.89H69.5977Z" fill="#263238"/>
<path d="M65.7427 222.907H138.164V197.985H65.7427V222.907Z" fill="#455A64"/>
</svg>
