<svg xmlns="http://www.w3.org/2000/svg" width="356" height="762" viewBox="0 0 356 762" fill="none">
  <path d="M355.67 41.6259V726.293C355.67 745.646 342.291 761.302 325.791 761.302H30.8242C14.2855 761.302 0.90625 745.646 0.90625 726.293V41.6259C0.90625 2.20144 14.2855 0.278809 30.8242 0.278809H89.8995C93.3321 0.278809 96.1406 4.50436 96.1406 9.74405V12.0047C96.1406 24.28 102.343 24.3222 109.968 24.3222H246.608C254.292 24.3222 260.436 24.28 260.436 12.0047V9.74405C260.436 4.50436 263.205 0.278809 266.696 0.278809H325.791C342.291 0.278809 355.67 5.5185 355.67 41.6259Z" fill="white"/>
</svg>