<svg width="27" height="30" viewBox="0 0 27 30" fill="none" xmlns="http://www.w3.org/2000/svg">
<g clip-path="url(#clip0_261_499)">
<path fill-rule="evenodd" clip-rule="evenodd" d="M11.081 4.74016C10.449 4.74016 9.89598 4.18714 9.89598 3.55512C9.89598 2.9231 10.449 2.37008 11.081 2.37008C11.713 2.37008 12.2661 2.9231 12.2661 3.55512C12.2661 4.18714 11.713 4.74016 11.081 4.74016ZM15.0312 3.16011H13.7671C13.4511 3.16011 13.2141 3.0021 13.0561 2.76509C12.6611 2.05407 11.871 1.58005 11.081 1.58005C10.291 1.58005 9.50096 2.05407 9.10595 2.76509C8.94795 3.0021 8.71094 3.16011 8.39493 3.16011H7.13088V5.53019H15.0312V3.16011ZM4.7608 22.9108C4.28679 22.9108 3.97078 22.5948 3.97078 22.1208C3.97078 21.6467 4.28679 21.3307 4.7608 21.3307H13.4511C13.9251 21.3307 14.2411 21.6467 14.2411 22.1208C14.2411 22.5948 13.9251 22.9108 13.4511 22.9108H4.7608ZM4.7608 19.7507C4.28679 19.7507 3.97078 19.4347 3.97078 18.9606C3.97078 18.4866 4.28679 18.1706 4.7608 18.1706H13.4511C13.9251 18.1706 14.2411 18.4866 14.2411 18.9606C14.2411 19.4347 13.9251 19.7507 13.4511 19.7507H4.7608ZM4.7608 16.5906C4.28679 16.5906 3.97078 16.2746 3.97078 15.8005C3.97078 15.3265 4.28679 15.0105 4.7608 15.0105H10.291C10.765 15.0105 11.081 15.3265 11.081 15.8005C11.081 16.2746 10.765 16.5906 10.291 16.5906H4.7608ZM4.7608 13.4305C4.28679 13.4305 3.97078 13.1144 3.97078 12.6404C3.97078 12.1664 4.28679 11.8504 4.7608 11.8504H10.291C10.765 11.8504 11.081 12.1664 11.081 12.6404C11.081 13.1144 10.765 13.4305 10.291 13.4305H4.7608ZM20.5613 19.9087L20.7983 19.6717C23.7214 17.1436 24.4325 16.4326 24.9855 15.4845C25.2225 15.0895 25.3015 14.6945 25.3015 14.2995C25.3015 13.1144 24.3535 12.2454 23.0894 12.2454C22.3784 12.2454 21.6674 12.5614 21.1934 13.0354C20.8773 13.3515 20.3243 13.3515 20.0083 13.0354C19.5343 12.5614 18.8233 12.2454 18.1123 12.2454C16.8482 12.2454 15.9002 13.1144 15.9002 14.2995C15.9002 15.6425 16.8482 16.7486 20.4033 19.6717L20.5613 19.9087ZM21.3514 11.0604C21.9044 10.8234 22.4574 10.6654 23.0894 10.6654C25.2225 10.6654 26.8816 12.2454 26.8816 14.2995C26.8816 14.9315 26.7236 15.5635 26.4075 16.1956C25.7755 17.4596 24.9855 18.1706 21.9044 20.8567L21.3514 21.3307V28.441C21.3514 28.915 21.0354 29.231 20.5613 29.231H1.6007C1.12668 29.231 0.810669 28.915 0.810669 28.441V3.16011C0.810669 2.68609 1.12668 2.37008 1.6007 2.37008H5.55083C5.55083 1.89606 5.86684 1.58005 6.34086 1.58005H7.99991C8.71094 0.632021 9.81697 0 11.081 0C12.3451 0 13.4511 0.632021 14.1621 1.58005H15.8212C16.2952 1.58005 16.6112 1.89606 16.6112 2.37008H20.5613C21.0354 2.37008 21.3514 2.68609 21.3514 3.16011V11.0604ZM19.7713 11.0604V3.95013H16.6112V6.32021C16.6112 6.79423 16.2952 7.11024 15.8212 7.11024H6.34086C5.86684 7.11024 5.55083 6.79423 5.55083 6.32021V3.95013H2.39072V27.6509H19.7713V21.3307L19.2973 20.9357C15.3472 17.6966 14.2411 16.4326 14.2411 14.3785C14.2411 12.3244 15.9002 10.7444 18.0333 10.7444C18.6653 10.6654 19.2183 10.8234 19.7713 11.0604Z" fill="currentcolor"></path>
</g>
<defs>
<clipPath id="clip0_261_499">
<rect width="26.0709" height="29.231" fill="white" transform="translate(0.810669)"></rect>
</clipPath>
</defs>
</svg>