<?xml version="1.0" encoding="UTF-8"?><svg width="140" height="29" viewBox="0 0 140 29" fill="none" xmlns="http://www.w3.org/2000/svg">
<path fill-rule="evenodd" clip-rule="evenodd" d="M19.8519 6.65136C21.1516 5.82438 22.4052 5.44889 23.782 5.44889C27.0183 5.44889 28.8978 7.75714 28.8978 11.3089V21.9099C28.8978 22.1908 28.6699 22.4182 28.3897 22.4182H25.1037C24.823 22.4182 24.5955 22.1908 24.5955 21.9099V11.9182C24.5955 10.3197 24.0027 9.44644 22.8502 9.44644C21.7945 9.44644 20.8019 9.90319 19.8519 10.5803V21.9099C19.8519 22.1908 19.6246 22.4182 19.3437 22.4182H16.0584C15.7777 22.4182 15.5502 22.1908 15.5502 21.9099V9.58206V5.6182V1.28247C15.5502 1.00138 15.7777 0.773438 16.0584 0.773438H19.3437C19.6246 0.773438 19.8519 1.00138 19.8519 1.28247V6.65136ZM40.2566 21.3846L40.2112 21.4079C38.8163 22.124 37.9128 22.5878 36.2759 22.5878C33.1056 22.5878 31.0486 20.3645 31.0486 17.4482C31.0486 14.1705 33.7634 12.1895 36.9031 12.1895H40.2566V11.6476C40.2566 10.0886 39.1896 9.27767 37.9462 9.27767C36.2941 9.27767 34.4836 9.88011 33.6282 10.206C33.4959 10.2564 33.3513 10.249 33.2249 10.1887C33.0988 10.1269 33.0033 10.0164 32.9617 9.88295L32.1515 7.29065C32.0735 7.04008 32.1989 6.77189 32.4421 6.66973C33.3613 6.28933 35.5986 5.44922 37.4611 5.44922C42.2375 5.44922 44.5589 7.39642 44.5589 11.9525V21.9103C44.5589 22.1911 44.3315 22.4185 44.0508 22.4185H40.9636C40.7439 22.4185 40.5493 22.2775 40.48 22.0678L40.2566 21.3846ZM106.675 5.44922C102.949 5.44922 100.006 7.54889 100.006 11.6136V16.4236C100.006 20.4882 102.958 22.5878 106.684 22.5878C110.411 22.5878 113.354 20.4882 113.354 16.4236V11.6136C113.354 7.54889 110.402 5.44922 106.675 5.44922ZM78.8988 11.6136C78.8988 7.54889 81.8412 5.44922 85.569 5.44922C89.2961 5.44922 92.2472 7.54889 92.2472 11.6136V15.4159C92.2472 15.6971 92.0204 15.9253 91.7399 15.9253H83.2022V16.254C83.2022 17.5638 84.2631 18.6245 85.5734 18.6245C87.3985 18.6245 89.2756 18.444 90.1727 18.3454C90.3118 18.3297 90.4534 18.3755 90.5592 18.4644C90.6669 18.5578 90.7296 18.6898 90.7366 18.8305L90.851 21.6715C90.8621 21.9348 90.6711 22.1608 90.4114 22.1961C89.4734 22.3221 87.282 22.5878 85.5786 22.5878C81.8521 22.5878 78.8988 20.4882 78.8988 16.4236V11.6136ZM72.7803 5.61853C72.5604 5.61853 72.3643 5.75962 72.2965 5.96798L72.0721 6.65169C70.7731 5.8247 69.5542 5.44922 68.1766 5.44922C64.9413 5.44922 63.0608 7.75747 63.0608 11.3092V16.0506C63.0608 19.6029 64.9413 21.9103 68.1766 21.9103C69.5542 21.9103 70.8071 21.5352 72.106 20.7081V21.8928C72.106 23.202 71.0448 24.2641 69.7346 24.2641C67.9106 24.2641 66.0329 24.084 65.1363 23.9839C64.9966 23.9688 64.8557 24.0117 64.7487 24.1039C64.6419 24.196 64.5781 24.3277 64.5719 24.4695L64.4576 27.3105C64.4468 27.5733 64.6377 27.799 64.8981 27.8344C65.8351 27.9598 68.0256 28.227 69.7296 28.227C73.4569 28.227 76.4092 26.1273 76.4092 22.0623V21.6722V17.8133V6.12647C76.4092 5.8457 76.1813 5.61853 75.9013 5.61853H72.7803ZM135.888 5.96798C135.955 5.75962 136.151 5.61853 136.371 5.61853H139.492C139.771 5.61853 140 5.8457 140 6.12647V17.8133V21.6722V22.0623C140 26.1273 137.047 28.227 133.32 28.227C131.617 28.227 129.425 27.9598 128.489 27.8344C128.227 27.799 128.037 27.5733 128.047 27.3105L128.162 24.4688C128.168 24.3277 128.233 24.196 128.34 24.1039C128.446 24.0117 128.587 23.9688 128.727 23.9839C129.623 24.084 131.501 24.2641 133.325 24.2641C134.635 24.2641 135.697 23.202 135.697 21.8928V20.7081C134.396 21.5352 133.145 21.9103 131.767 21.9103C128.531 21.9103 126.652 19.6029 126.652 16.0506V11.3092C126.652 7.75747 128.531 5.44922 131.767 5.44922C133.145 5.44922 134.363 5.8247 135.663 6.65169L135.888 5.96798ZM51.018 22.4185C51.2981 22.4185 51.5254 22.191 51.5254 21.9103V10.5807C52.4756 9.90351 53.4681 9.44665 54.5232 9.44665C55.6761 9.44665 56.268 10.32 56.268 11.9185V21.9103C56.268 22.191 56.4954 22.4185 56.7767 22.4185H60.0633C60.3441 22.4185 60.5719 22.191 60.5719 21.9103V11.3092C60.5719 7.75747 58.6908 5.44922 55.4551 5.44922C54.078 5.44922 52.8251 5.82459 51.5254 6.65158L51.3282 5.98329C51.2641 5.76662 51.0651 5.61842 50.8405 5.61842H47.7308C47.45 5.61842 47.2238 5.8457 47.2238 6.12636V21.9103C47.2238 22.191 47.45 22.4185 47.7308 22.4185H51.018ZM95.7085 17.8719C94.3844 17.8719 93.3615 18.9243 93.3615 20.1885C93.3615 21.5419 94.3844 22.6553 95.7393 22.6553C97.184 22.6553 98.0867 21.5117 98.0867 20.1885C98.0867 18.9243 97.0632 17.8719 95.7085 17.8719ZM125.158 5.9892C125.165 5.84756 125.111 5.70931 125.011 5.60803C124.912 5.50741 124.774 5.45414 124.632 5.45808C122.873 5.52119 121.875 5.91888 120.18 7.07497L119.933 6.01163C119.879 5.78106 119.674 5.6182 119.437 5.6182H116.352C116.071 5.6182 115.844 5.84549 115.844 6.12614V21.91C115.844 22.1908 116.071 22.4183 116.352 22.4183H119.639C119.918 22.4183 120.146 22.1908 120.146 21.91V11.0894C121.549 10.0993 122.639 9.6058 124.528 9.5382C124.793 9.52891 125.006 9.31869 125.017 9.05477L125.158 5.9892ZM13.3452 16.5628C13.3361 16.4649 13.2948 16.3714 13.2228 16.2997C13.1351 16.2104 13.0128 16.16 12.8845 16.16H9.49693C9.27019 16.16 9.07747 16.3138 9.03886 16.5245C9.02948 16.5759 9.0084 16.6757 8.99869 16.7217L8.99369 16.7455C8.7675 17.8192 7.81507 18.6245 6.67363 18.6245C5.36452 18.6245 4.30227 17.5637 4.30227 16.2537V11.8171C4.30227 10.5076 5.36452 9.44676 6.67363 9.44676C7.69836 9.44676 8.56844 10.0965 8.89996 11.006C8.94611 11.1587 8.98538 11.3171 9.01874 11.4812L9.0277 11.5237C9.03334 11.55 9.03899 11.5764 9.04389 11.6033C9.06785 11.7348 9.15568 11.8387 9.27074 11.9023C9.33975 11.9403 9.41654 11.9675 9.50119 11.9675H12.8845C12.9701 11.9675 13.0521 11.9436 13.1241 11.9023C13.1596 11.8818 13.1936 11.8585 13.2223 11.8291C13.3038 11.7471 13.3465 11.6397 13.3463 11.5269C13.3463 11.518 13.3457 11.4885 13.3452 11.4818C13.2814 7.50405 10.3551 5.44922 6.66893 5.44922C6.66458 5.44922 6.66032 5.44946 6.65603 5.44971H6.65602C6.65167 5.44996 6.6473 5.45021 6.64279 5.45021C2.92874 5.45983 0 7.55819 0 11.6136V16.4236C0 20.4882 2.95225 22.5878 6.67801 22.5878C7.96885 22.5878 9.16191 22.3318 10.1745 21.8334C10.8309 21.5106 11.4127 21.088 11.8907 20.5601C12.7317 19.6309 13.2587 18.386 13.3373 16.8337C13.3398 16.802 13.3471 16.5844 13.3452 16.5628ZM106.679 18.6246C107.99 18.6246 109.051 17.5638 109.051 16.2538V11.8173C109.051 10.5077 107.99 9.44688 106.679 9.44688C105.37 9.44688 104.308 10.5077 104.308 11.8173V16.2538C104.308 17.5638 105.37 18.6246 106.679 18.6246ZM83.202 12.5715V11.8168C83.202 10.5073 84.2628 9.44643 85.5732 9.44643C86.8831 9.44643 87.9452 10.5073 87.9452 11.8168V12.5715H83.202ZM67.3632 15.4404C67.3632 17.0401 67.9553 17.9135 69.1085 17.9135C70.1637 17.9135 71.1569 17.4576 72.1061 16.7793V10.5803C71.1569 9.90318 70.1637 9.44643 69.1085 9.44643C67.9553 9.44643 67.3632 10.3197 67.3632 11.9182V15.4404ZM132.698 17.9135C131.546 17.9135 130.954 17.0401 130.954 15.4404V11.9182C130.954 10.3197 131.546 9.44643 132.698 9.44643C133.755 9.44643 134.748 9.90318 135.697 10.5803V16.7793C134.748 17.4576 133.755 17.9135 132.698 17.9135ZM37.5119 15.3732H40.2566V17.5234C39.7329 18.0665 38.8013 18.7261 37.3988 18.7261C36.1157 18.7261 35.3869 18.1458 35.3869 17.1589C35.3869 16.1928 36.2008 15.3732 37.5119 15.3732Z" fill="#9CA393"/>
</svg>
