<?xml version="1.0" encoding="UTF-8"?><svg width="118" height="73" viewBox="0 0 118 73" fill="none" xmlns="http://www.w3.org/2000/svg">
<path fill-rule="evenodd" clip-rule="evenodd" d="M79.0432 46.7186C78.8139 44.2954 82.3724 43.8949 82.6141 46.253C82.8683 48.7287 79.2525 48.919 79.0432 46.7186ZM97.1844 7.08202C99.5019 6.89928 102.971 8.12838 104.66 9.0621C111.418 12.8045 113.918 20.3668 114.493 28.3497C115.004 35.4414 112.751 43.542 108.687 49.0516C107.528 50.6212 104.007 54.3185 102.33 54.8717L98.4752 51.3972C98.0989 51.0943 97.4161 50.4384 97.1196 50.1155C97.5532 49.6174 97.7152 49.6975 98.3082 49.2819C98.697 49.0116 99.1281 48.7112 99.452 48.4233C102.245 45.9351 102.716 45.4019 104.807 41.6069C109.507 33.0809 109.185 20.6522 103.509 12.9972C103.185 12.5591 102.918 12.2938 102.619 11.8908C102.208 11.3376 102.021 11.2449 101.565 10.7843L99.5118 8.8368C98.8714 8.26606 97.8273 7.70533 97.1844 7.08202ZM79.9677 4.27336C81.5999 8.57646 82.3275 9.42006 82.9829 14.7996L86.7981 14.2413L86.5962 16.5944L88.2434 16.3991L85.6867 38.1675C84.3435 38.4053 81.8142 37.2012 77.7025 39.0737C75.9084 39.8922 76.1675 39.6769 76.1127 40.518L77.7748 40.3228L75.1483 62.1887C72.7237 61.7006 71.4154 61.8383 68.9958 62.4416C65.679 63.2701 62.1704 65.2152 59.5987 67.2003L56.7106 69.5458C56.3393 69.7961 55.9605 70.0139 55.644 70.3368C66.5911 71.4683 81.6198 69.6259 91.6374 65.12C107.949 57.783 117.74 45.5145 116.863 27.4335C116.714 24.332 116.228 21.3931 115.174 18.7247C114.329 16.5844 112.741 13.7157 111.271 12.1436C107.653 8.27357 104.075 5.56254 98.5525 3.93292C94.9043 2.85652 93.1699 2.69881 89.1454 2.9141C86.7532 3.04176 82.0684 3.62252 79.9677 4.27336Z" fill="#87888B"/>
<path fill-rule="evenodd" clip-rule="evenodd" d="M13.6453 38.953L5.30736 41.8768C4.72176 40.3774 4.43269 36.3071 4.37289 34.5222C4.14114 27.4205 6.81497 20.7068 10.7821 15.5325C14.5349 10.6386 19.7481 7.11156 26.0501 5.40434C27.63 4.97628 32.1528 4.0701 33.5757 4.73096C33.3839 5.26916 33.9894 4.89618 32.4245 5.32674C31.961 5.4544 31.5024 5.61211 31.029 5.77232C26.242 7.37941 21.2955 10.4334 18.233 14.3785C17.6548 15.1245 17.1689 15.6477 16.6132 16.4462C12.0978 22.9397 10.5952 30.1791 13.6478 38.953H13.6453ZM42.8532 10.9966C43.4662 10.8314 45.6117 11.3521 46.5861 11.3646C49.6436 11.4021 53.9347 9.01654 55.4299 7.41445C54.1715 6.71855 46.925 4.58076 45.0934 4.0676C41.6072 3.09383 37.2538 2.10254 33.3714 2.10254C28.5445 2.10254 22.8131 3.49936 18.9506 5.37179C15.3025 7.13909 12.9177 8.69362 10.1716 11.3671C9.7978 11.7326 9.55359 12.0204 9.18479 12.3859C-1.69743 23.1174 -2.22822 47.9097 11.2207 58.6311C16.9222 63.1745 23.5183 65.8205 30.6527 67.6704C32.4494 68.136 35.6689 69.0071 37.5005 69.1248C36.9448 68.2937 36.1524 67.4476 35.4671 66.5339C33.6281 64.0882 31.6943 60.844 30.3263 58.1455C29.0653 58.7838 28.4673 59.3721 26.4588 59.3721C16.2918 59.3721 16.7876 50.841 18.4074 48.9685C18.6068 48.7357 19.0977 48.2151 19.312 48.0298C19.8826 47.5367 20.8918 47.1011 21.8014 46.8283C23.4012 46.3451 23.7476 46.9509 24.854 46.9559C25.3275 43.4388 25.4695 39.709 27.0469 36.9654C28.3028 34.7826 30.9791 32.5947 34.7594 32.5972C36.2072 32.5972 36.8601 32.9852 38.0089 33.3282C37.64 32.5497 37.5429 33.0028 36.88 31.6159C34.0193 25.6257 38.5546 20.0033 43.825 22.5491C43.8699 22.469 43.8898 22.5141 43.992 22.1912C44.0069 22.1436 44.0393 21.9909 44.0493 21.9384L44.7545 17.6653C43.7727 17.5852 42.5641 17.5226 41.8016 17.1346L42.8581 11.0016L42.8532 10.9966Z" fill="#87888B"/>
<path fill-rule="evenodd" clip-rule="evenodd" d="M69.4592 55.4474C65.4223 55.4825 61.2682 56.699 58.4374 58.4663C55.5617 60.2612 52.8107 62.0886 49.788 63.8233C46.7129 65.5906 43.3164 67.458 39.1823 65.7333C37.5352 65.0474 36.0625 63.8809 34.9261 62.9046C34.034 62.1361 32.205 60.146 31.8237 58.8293C33.887 59.1397 35.3996 58.7367 37.0019 57.9306C37.6747 57.5902 38.355 57.1221 38.8858 56.7341C39.2272 56.4838 39.5437 56.2635 39.7605 56.0657C40.2115 55.6577 40.0196 55.6352 40.5928 55.2972L41.0488 55.8379C43.2541 58.4764 49.469 59.0446 51.4526 56.0832L51.9634 55.53C53.5607 56.9969 56.2645 57.3574 58.273 56.296C59.0654 55.8755 59.3868 55.3923 59.955 55.0469C62.8481 56.6214 64.1813 55.3222 65.9481 54.1257C67.503 54.4286 67.6276 55.0444 69.5938 54.3159L69.4592 55.4474ZM55.2777 52.799C54.879 51.2119 56.9323 37.8871 57.179 34.9457L53.0848 35.1835C52.6611 39.5442 52.1902 44.2829 51.5273 48.571C51.1785 50.8264 48.841 54.8667 45.9429 53.5449C45.0583 53.1419 44.52 52.5136 44.4079 51.3496C52.3447 50.8489 52.2176 40.3102 45.5841 42.1551C44.2783 42.5181 43.77 43.1063 43.0523 43.7872C41.8811 44.8987 40.9142 47.482 40.3137 49.2193C40.0919 48.9715 40.1567 49.2994 40.0321 48.6536C39.9199 48.0778 39.9997 47.86 39.7206 46.8312C39.5237 46.1052 39.2122 45.4844 38.8609 44.9112C37.0468 41.9599 37.1589 43.2641 35.3822 42.7058C35.7584 42.1726 36.0151 42.4255 36.9745 41.697C38.6291 40.4379 39.3393 38.7081 38.9032 36.3851C38.0111 31.6139 29.8326 32.0019 26.9819 38.1399C26.3116 39.5793 25.4219 44.9563 25.5465 46.7211C26.187 47.2968 26.6405 47.6448 26.8025 48.7187C26.9619 49.77 26.8972 50.8164 25.8331 50.914C25.873 50.1806 26.2493 49.6273 25.9452 48.9464C24.9933 46.8187 21.1309 45.9926 18.629 49.9703C17.8963 51.1343 17.9088 52.3859 18.2826 53.8428C19.7429 59.5427 27.8939 59.37 29.8949 54.9468C30.5304 56.0156 30.8469 56.8943 32.1003 57.2598C33.3263 57.6152 34.8265 57.057 35.726 56.4938C37.1913 55.5751 38.2852 54.386 39.0777 52.9191C39.3368 52.4385 39.4988 51.7977 39.8253 51.3821C40.0047 52.9967 39.9598 54.2934 40.9815 55.2822C43.7849 57.9982 48.7688 56.8517 51.176 53.953L51.5049 53.6526C52.397 54.6739 53.2144 56.2635 55.4396 55.7553C57.2039 55.3548 58.3776 53.7101 59.033 53.3121C60.9891 55.4925 63.0325 54.4336 64.6373 52.5011C64.8541 52.2407 64.894 52.1431 65.1806 51.8427C65.2055 51.8652 65.2404 51.8978 65.2528 51.9103L65.4422 52.1631C66.3592 53.4974 68.273 53.1594 69.3196 52.5687C70.0074 52.1782 69.6685 52.098 70.4734 51.7676L70.0573 55.933C67.8743 56.1784 66.3219 56.1308 64.1464 56.6264C60.9667 57.3524 57.964 59.3575 55.3898 60.9546C51.6968 63.2476 46.4687 67.2653 41.8213 66.9474C40.1043 66.8297 38.218 65.9936 37.1041 65.1951L34.3156 63.0573C33.9966 62.7945 33.8446 62.5967 33.5331 62.3564C34.1462 64.1387 36.8972 67.5607 38.4746 68.7572C43.0947 72.2568 48.0087 71.3656 52.7658 69.1352C60.274 65.6131 62.7385 60.156 73.1821 59.6504L75.6491 38.8533L72.3399 39.409C71.3331 41.5043 71.8764 49.1067 69.9576 49.9728C68.9483 50.4284 68.1634 49.7475 68.1634 48.7337L69.2125 39.8922L65.7188 40.3152C65.2628 41.8447 65.0285 45.3092 64.8018 47.0615C64.6847 47.9727 64.6049 49.725 64.2461 50.4058C63.8997 51.0617 62.8357 51.9729 61.9211 51.1969C61.3355 49.6999 63.8 37.4515 63.6505 34.5677L59.7158 34.753C59.1451 36.3951 58.6592 42.6733 58.3851 44.8536C58.1758 46.5308 57.954 48.2205 57.7546 49.9127C57.5802 51.3746 57.1466 53.0968 55.2802 52.8015L55.2777 52.799ZM79.8829 32.9231C78.9285 33.4237 77.832 34.2523 77.077 35.0459C76.4316 35.7217 75.6167 37.1361 75.3601 38.4002C71.5723 38.9259 71.7268 38.4878 71.4652 40.533L69.8205 40.7608L69.9576 39.2488L65.3974 39.8421L65.8908 35.8519L64.1663 35.947L64.3806 33.997L59.2573 34.2874L58.891 36.0346L57.5927 36.0997L57.782 34.395L52.6213 34.6829L51.485 43.9024C48.2355 40.6031 45.6987 40.3102 42.362 43.8598C42.0331 44.2103 42.1353 44.0951 41.8886 44.4656C41.6169 44.8736 41.7017 44.7885 41.3403 45.0138C39.8402 43.3216 38.7388 43.4743 38.2578 42.7809C39.9947 42.2778 41.4475 41.1037 41.9558 39.4316C42.6935 37.0009 41.0787 35.7368 40.0221 34.5152C42.5165 34.8656 42.9103 35.5966 46.5609 34.6503C48.4647 34.1572 50.4334 32.8155 51.0364 31.4211C51.161 31.5288 51.166 31.5113 51.2906 31.6564C51.8164 32.2597 51.8413 32.7203 53.2542 33.3912C55.8658 34.6278 60.578 34.7104 62.3597 31.5738C63.3465 32.0019 65.4422 34.0571 68.8437 32.3323C69.6137 31.9418 70.0099 31.4762 70.5606 31.1758C72.761 32.4124 75.6342 31.6164 76.5363 30.0594C78.7964 31.0081 77.5754 30.7903 80.1745 30.4298L79.8879 32.9281L79.8829 32.9231ZM54.6323 18.5719C54.7369 16.3766 55.2253 16.4942 55.9056 16.2564C56.8924 15.9135 57.5677 15.4879 58.3726 15.0323L62.9129 12.2712L62.0258 19.9662C61.0265 19.3129 60.3587 18.1313 58.734 17.6933C57.2463 17.2928 55.5069 17.8785 54.6323 18.5694V18.5719ZM65.4921 10.5665C66.7355 9.53516 68.5746 8.52134 70.3339 7.75033C74.3209 6.00306 78.8986 6.69897 80.8896 10.8794C81.3506 11.8507 81.6372 12.5866 81.9736 13.648C82.1979 14.3589 82.5194 16.314 81.6148 16.6244L80.2816 16.7871L80.3289 15.2901L75.9407 15.8308L76.3568 11.8181L74.7122 11.9408L74.8716 10.0308C68.3528 10.3662 70.147 9.9507 69.4069 12.0685L68.2282 12.0985L68.3627 10.4138L65.4921 10.5665ZM42.8554 10.9996C43.4684 10.8343 45.614 11.355 46.5883 11.3675C49.6459 11.4051 53.937 9.01949 55.4322 7.4174C54.1737 6.7215 46.9272 4.58371 45.0957 4.07055C41.6095 3.09678 37.2561 2.10549 33.3737 2.10549C28.5468 2.10549 22.8154 3.50231 18.9529 5.37474C15.3047 7.14204 12.92 8.69656 10.1739 11.37C9.80008 11.7355 9.55587 12.0234 9.18707 12.3889C-1.69765 23.1178 -2.22843 47.9101 11.2205 58.6315C16.922 63.175 23.5181 65.8209 30.6525 67.6708C32.4492 68.1364 35.6687 69.0076 37.5003 69.1252C36.9446 68.2941 36.1522 67.448 35.4669 66.5343C33.6278 64.0887 31.6941 60.8444 30.326 58.1459C29.0651 58.7842 28.4671 59.3725 26.4586 59.3725C16.2915 59.3725 16.7874 50.8414 18.4072 48.969C18.6065 48.7362 19.0974 48.2155 19.3117 48.0303C19.8824 47.5371 20.8916 47.1015 21.8012 46.8287C23.401 46.3456 23.7474 46.9514 24.8538 46.9564C25.3272 43.4393 25.4693 39.7094 27.0467 36.9659C28.3026 34.783 30.9789 32.5952 34.7592 32.5977C36.207 32.5977 36.8599 32.9857 38.0086 33.3286C37.6398 32.5501 37.5427 33.0032 36.8798 31.6164C34.0191 25.6261 38.5544 20.0038 43.8248 22.5496C43.8696 22.4695 43.8896 22.5145 43.9917 22.1916C44.0067 22.1441 44.0391 21.9914 44.0491 21.9388L44.7543 17.6657C43.7725 17.5856 42.5639 17.5231 41.8013 17.135L42.8579 11.0021L42.8554 10.9996ZM79.3297 16.0136L79.7483 15.8784C79.7483 15.8784 79.9153 15.9135 79.6711 16.4642L78.7117 25.1029C78.8114 25.964 79.711 26.5298 80.5657 26.0542C81.9761 25.2706 82.0409 17.6382 82.7436 15.4504L86.17 14.9147L83.7155 35.7217C82.9405 35.9295 82.0683 35.922 81.2086 36.1122C78.0937 36.8056 76.6584 38.6205 75.7962 38.9534C76.2173 37.3489 76.6085 36.3651 77.4508 35.4239C78.9385 33.7617 79.0631 34.0295 80.466 33.2435L80.9793 27.7464C80.015 28.4272 78.3927 29.7465 76.6609 28.8678C76.1301 28.6 76.1525 28.3697 75.7837 27.9291L74.5303 29.2533C72.3922 31.4837 71.0465 30.8579 69.4941 29.3034C69.0331 30.0218 67.209 31.7015 65.7961 31.9243C63.5533 32.2798 62.7584 30.5175 61.9286 29.6488C61.5498 29.9617 61.5897 30.0243 61.3181 30.3372C59.8703 32.0194 57.0419 33.0558 54.6696 32.7704C50.1568 32.2297 51.0788 27.8966 50.8296 26.1092C50.2689 27.1306 49.7979 29.3009 49.2273 30.54C48.6143 31.8692 47.8368 33.231 46.5559 33.8818C45.1679 34.5878 42.8629 34.7405 41.2357 34.3399C35.2152 32.853 35.5815 25.0854 38.674 23.1754C40.0919 22.2993 41.754 21.736 43.4037 22.9101C45.6613 24.5147 44.9162 25.8289 45.2078 27.078C45.8383 26.9954 45.9529 26.7901 46.0177 26.0441C46.0625 25.521 45.9728 24.9277 45.8582 24.4571C45.6115 23.4583 45.1854 22.7874 44.5724 22.3669C44.6945 20.6096 45.5193 18.9324 45.3673 17.115C43.9245 16.9298 43.5881 17.2252 42.2898 16.6394L43.2516 11.5403C44.4104 11.6504 45.0458 12.131 46.4338 12.0785C49.2946 11.9733 52.1129 10.4964 54.403 8.88681C56.9149 7.12202 60.8596 4.50111 63.501 3.20442C67.3186 1.32948 70.0074 -0.277613 75.0137 1.18679C78.4849 2.20311 80.6529 5.47738 80.9569 9.82804C79.6711 7.54757 78.0314 5.68765 74.7844 5.13443C68.0787 3.99044 61.3206 11.1948 56.4339 13.7056L52.7434 15.4328C52.4543 15.916 51.2158 22.8575 51.1037 23.9264C51.5298 23.6435 51.1336 24.0891 51.5074 23.5684C51.5946 23.4483 51.5896 23.3982 51.6569 23.2555C52.5988 21.308 53.025 20.8549 54.4204 19.4055C57.3858 16.3215 63.3615 19.0275 59.965 24.8225C59.043 26.3946 57.5827 27.2958 55.0509 27.4685C55.031 31.4762 61.2732 30.4874 62.0258 24.412C62.5665 20.0614 63.2394 15.568 63.6156 11.2198L67.7049 10.9971C67.4607 14.0135 66.9947 17.2001 66.6259 20.199C66.4365 21.7385 66.2546 23.263 66.0777 24.7975C65.9381 25.9991 65.3475 28.0467 65.9954 28.9104C68.0463 29.1807 68.1584 26.6274 68.2905 25.581C68.5596 23.4458 69.9675 11.2724 70.2342 10.947C70.5307 10.584 73.698 10.6166 74.2138 10.6291C73.9446 13.4452 73.5634 16.3265 73.2345 19.1351C73.0675 20.5695 72.9055 21.9889 72.7386 23.4107C72.599 24.6073 72.0059 26.72 72.766 27.5085C75.233 27.9391 75.1134 24.805 75.3601 22.8024C75.5096 21.5733 75.8236 17.2277 76.2547 16.4867C76.8876 16.0862 78.455 16.0186 79.3247 16.0136H79.3297ZM79.9701 4.27331C81.6023 8.57641 82.33 9.42001 82.9853 14.7995L86.8005 14.2413L86.5986 16.5943L88.2458 16.3991L85.6891 38.1674C84.3459 38.4052 81.8166 37.2012 77.705 39.0736C75.9108 39.8922 76.1699 39.6769 76.1151 40.518L77.7772 40.3227L75.1507 62.1887C72.7261 61.7005 71.4178 61.8382 68.9982 62.4415C65.6814 63.2701 62.1728 65.2151 59.6011 67.2002L56.713 69.5458C56.3417 69.7961 55.9629 70.0139 55.6465 70.3368C66.5935 71.4683 81.6223 69.6259 91.6398 65.12C107.952 57.7829 117.743 45.5145 116.866 27.4334C116.716 24.3319 116.23 21.3931 115.176 18.7246C114.331 16.5843 112.744 13.7156 111.274 12.1436C107.655 8.27351 104.077 5.56249 98.5549 3.93287C94.9067 2.85647 93.1723 2.69876 89.1479 2.91404C86.7556 3.04171 82.0708 3.62246 79.9701 4.27331ZM56.7305 6.46366C54.9413 6.37104 50.1194 4.43602 48.1109 3.82272C37.7669 0.676128 29.8476 -0.27511 19.6756 3.93287C8.31988 8.63148 1.67891 17.8034 0.275953 30.182C-0.800557 39.6869 1.20046 49.74 7.55237 56.5964L12.0154 60.6116C19.1049 65.7608 25.7384 67.5932 34.4327 69.5608C35.9603 69.9062 37.6598 70.119 39.1475 70.5496C41.0961 71.1128 43.8248 74.9778 52.3821 71.681C54.3581 70.92 55.2777 71.288 57.488 71.3957C61.3031 71.5834 64.747 71.646 68.5646 71.3731C80.8348 70.492 93.2296 67.2152 102.624 59.9458L106.459 56.694L109.813 52.9692C118.874 42.1476 121.291 24.372 112.577 12.3839L109.935 9.32238C106.978 6.47367 103.501 4.29333 99.2277 2.94658C93.9224 1.2719 87.1369 1.62486 81.5375 2.80139C80.79 2.9591 79.843 3.25949 79.1627 3.33959C78.475 2.70377 77.832 1.95029 77.0197 1.48468C73.9521 -0.272607 70.4883 -0.380247 67.1542 0.691147C65.2653 1.29944 63.2917 2.34079 61.7118 3.25949C59.9575 4.28082 58.425 5.47487 56.7255 6.46616L56.7305 6.46366Z" fill="#313335"/>
<path fill-rule="evenodd" clip-rule="evenodd" d="M31.4873 45.1134C33.7001 43.8292 36.8698 49.5892 33.3637 53.1939C31.6866 54.9186 30.3684 52.6432 30.5528 50.8333C30.6151 50.22 30.944 45.4288 31.4873 45.1134ZM44.6247 48.8407C44.7767 44.4425 49.1052 43.8717 48.0536 46.7955C47.5976 48.0622 46.1149 48.8357 44.6247 48.8407ZM31.4973 42.8754C31.6343 41.5262 31.8386 40.1995 32.0181 38.8502C32.2673 36.9703 32.3146 36.9227 33.3338 35.7712C35.746 35.4433 35.903 37.939 35.4295 39.9967C35.0906 41.4711 33.1494 42.4899 31.4973 42.8754ZM55.2777 52.7959C54.879 51.2088 56.9323 37.8839 57.179 34.9426L53.0848 35.1804C52.6611 39.5411 52.1902 44.2798 51.5273 48.5678C51.1785 50.8233 48.841 54.8635 45.9429 53.5418C45.0583 53.1388 44.52 52.5105 44.4079 51.3465C52.3447 50.8458 52.2176 40.3071 45.5841 42.152C44.2783 42.515 43.77 43.1032 43.0523 43.7841C41.8811 44.8956 40.9142 47.4789 40.3137 49.2162C40.0919 48.9684 40.1567 49.2963 40.0321 48.6505C39.9199 48.0747 39.9997 47.8569 39.7206 46.8281C39.5237 46.1021 39.2122 45.4813 38.8609 44.9081C37.0468 41.9567 37.1589 43.2609 35.3822 42.7027C35.7584 42.1695 36.0151 42.4224 36.9745 41.6939C38.6291 40.4348 39.3393 38.705 38.9032 36.382C38.0111 31.6108 29.8326 31.9988 26.9819 38.1368C26.3116 39.5761 25.4219 44.9531 25.5465 46.7179C26.187 47.2937 26.6405 47.6416 26.8025 48.7155C26.962 49.7669 26.8972 50.8133 25.8331 50.9109C25.873 50.1774 26.2493 49.6242 25.9452 48.9433C24.9933 46.8156 21.1309 45.9895 18.629 49.9672C17.8963 51.1312 17.9088 52.3828 18.2826 53.8397C19.7429 59.5396 27.8939 59.3669 29.8949 54.9436C30.5304 56.0125 30.8469 56.8912 32.1003 57.2567C33.3263 57.6121 34.8265 57.0539 35.726 56.4907C37.1913 55.572 38.2852 54.3829 39.0777 52.916C39.3368 52.4354 39.4988 51.7945 39.8253 51.379C40.0047 52.9936 39.9598 54.2903 40.9815 55.2791C43.7849 57.9951 48.7688 56.8486 51.176 53.9499L51.5049 53.6495C52.397 54.6708 53.2144 56.2604 55.4396 55.7522C57.2039 55.3517 58.3776 53.707 59.033 53.309C60.9892 55.4894 63.0325 54.4305 64.6373 52.498C64.8541 52.2376 64.894 52.14 65.1806 51.8396C65.2055 51.8621 65.2404 51.8947 65.2528 51.9072L65.4422 52.16C66.3592 53.4943 68.273 53.1563 69.3196 52.5656C70.0074 52.175 69.6685 52.0949 70.4734 51.7645L70.0573 55.9299C67.8743 56.1752 66.3219 56.1277 64.1464 56.6233C60.9667 57.3493 57.964 59.3544 55.3898 60.9515C51.6968 63.2444 46.4687 67.2622 41.8213 66.9443C40.1044 66.8266 38.218 65.9905 37.1041 65.192L34.3156 63.0542C33.9967 62.7914 33.8446 62.5936 33.5332 62.3533C34.1462 64.1356 36.8972 67.5576 38.4746 68.7541C43.0947 72.2537 48.0087 71.3625 52.7658 69.1321C60.274 65.61 62.7385 60.1529 73.1821 59.6473L75.6491 38.8502L72.3399 39.4059C71.3331 41.5012 71.8764 49.1035 69.9576 49.9697C68.9483 50.4253 68.1634 49.7444 68.1634 48.7306L69.2125 39.8891L65.7188 40.3121C65.2628 41.8416 65.0286 45.3061 64.8018 47.0584C64.6847 47.9696 64.6049 49.7218 64.2461 50.4027C63.8997 51.0586 62.8357 51.9698 61.9211 51.1938C61.3355 49.6968 63.8 37.4484 63.6505 34.5646L59.7158 34.7499C59.1451 36.392 58.6592 42.6702 58.3851 44.8505C58.1758 46.5277 57.954 48.2174 57.7546 49.9096C57.5802 51.3715 57.1466 53.0937 55.2802 52.7984L55.2777 52.7959Z" fill="#F5F4F1"/>
<path fill-rule="evenodd" clip-rule="evenodd" d="M54.8717 24.8753C54.9863 21.4533 57.4384 20.3744 58.1859 21.173C58.9734 22.014 58.2881 24.5423 54.8717 24.8753ZM79.6663 16.4643L79.6763 16.0162H79.3249C78.4577 16.0187 76.8878 16.0863 76.2549 16.4869C75.8238 17.2303 75.5123 21.5735 75.3603 22.8026C75.1161 24.8027 75.2332 27.9393 72.7662 27.5087C72.0061 26.7177 72.5967 24.6049 72.7388 23.4109C72.9057 21.989 73.0677 20.5697 73.2346 19.1353C73.5636 16.3266 73.9424 13.4454 74.214 10.6292C73.6981 10.6167 70.5309 10.5842 70.2344 10.9471C69.9677 11.2726 68.5623 23.4459 68.2907 25.5812C68.1586 26.6276 68.0465 29.1809 65.9956 28.9105C65.3477 28.0469 65.9383 25.9992 66.0778 24.7977C66.2573 23.2632 66.4392 21.7387 66.6261 20.1992C66.9949 17.2003 67.4609 14.0136 67.7051 10.9972L63.6158 11.22C63.2395 15.5657 62.5667 20.059 62.026 24.4122C61.2709 30.4876 55.0287 31.4739 55.0511 27.4686C57.5829 27.2959 59.0431 26.3973 59.9652 24.8227C63.3616 19.0302 57.386 16.3216 54.4206 19.4057C53.0252 20.8575 52.599 21.3081 51.6571 23.2557C51.5898 23.3958 51.5948 23.4484 51.5076 23.5686C51.1338 24.0867 51.53 23.6412 51.1039 23.9265C51.216 22.8576 52.4545 15.9136 52.7436 15.433L56.4341 13.7057C61.3208 11.195 68.0789 3.99059 74.7846 5.13458C78.0291 5.6878 79.6688 7.54772 80.9571 9.82819C80.6531 5.47753 78.4851 2.20327 75.0139 1.18694C70.0076 -0.279965 67.3188 1.32963 63.5012 3.20457C60.8598 4.50126 56.9126 7.12467 54.4032 8.88696C52.1131 10.4966 49.2947 11.976 46.434 12.0786C45.046 12.1287 44.4106 11.6506 43.2518 11.5404L42.29 16.6396C43.5882 17.2253 43.9247 16.9299 45.3675 17.1152C45.5195 18.9325 44.6947 20.6097 44.5726 22.367C45.1881 22.7876 45.6117 23.4584 45.8584 24.4572C45.9755 24.9278 46.0652 25.5236 46.0179 26.0443C45.9531 26.7903 45.836 26.9955 45.208 27.0781C44.9164 25.829 45.6615 24.5148 43.4038 22.9102C41.7542 21.7362 40.0921 22.2994 38.6742 23.1756C35.5842 25.0855 35.2154 32.8532 41.2359 34.3401C42.8656 34.7431 45.1681 34.5879 46.5561 33.882C47.8395 33.2311 48.6145 31.8669 49.2275 30.5401C49.7981 29.301 50.2691 27.1307 50.8298 26.1094C51.079 27.8967 50.157 32.2298 54.6698 32.7705C57.0446 33.0559 59.8705 32.0171 61.3183 30.3374C61.5899 30.022 61.55 29.9619 61.9288 29.649C62.7586 30.5201 63.5535 32.2799 65.7963 31.9244C67.2067 31.7017 69.0333 30.022 69.4943 29.3035C71.0467 30.8581 72.3924 31.4839 74.5304 29.2535L75.7839 27.9292C76.1527 28.3698 76.1303 28.5976 76.661 28.868C78.3929 29.7466 80.0152 28.4274 80.9795 27.7465L80.4662 33.2437C79.0633 34.0297 78.9387 33.7618 77.451 35.424C76.6087 36.3652 76.2175 37.349 75.7963 38.9536C76.6561 38.6207 78.0939 36.8058 81.2088 36.1124C82.071 35.9196 82.9407 35.9297 83.7157 35.7219L86.1702 14.9148L82.7438 15.4505C82.0436 17.6384 81.9763 25.2708 80.5659 26.0543C79.7112 26.5299 78.8091 25.9642 78.7119 25.1031L79.6713 16.4643H79.6663Z" fill="#F5F4F1"/>
<path fill-rule="evenodd" clip-rule="evenodd" d="M97.1844 7.08174C97.8273 7.70505 98.8715 8.26578 99.5119 8.83652L101.565 10.7841C102.021 11.2447 102.208 11.3373 102.619 11.8905C102.918 12.2935 103.185 12.5589 103.509 12.9969C109.186 20.6519 109.507 33.0806 104.807 41.6067C102.716 45.4016 102.246 45.9348 99.4521 48.423C99.1281 48.7109 98.697 49.0113 98.3083 49.2817C97.7152 49.6947 97.5507 49.6171 97.1196 50.1152C97.4162 50.4407 98.099 51.094 98.4752 51.3969L102.33 54.8714C104.007 54.3182 107.528 50.6209 108.687 49.0514C112.751 43.5417 115.004 35.4411 114.493 28.3494C113.918 20.3665 111.418 12.8042 104.66 9.06182C102.973 8.1256 99.5044 6.899 97.1844 7.08174Z" fill="#F5F4F1"/>
<path fill-rule="evenodd" clip-rule="evenodd" d="M13.6449 38.9539C10.5923 30.18 12.0949 22.9405 16.6102 16.4471C17.1659 15.6486 17.6519 15.1254 18.23 14.3794C21.2926 10.4368 26.239 7.38029 31.026 5.7732C31.4995 5.61299 31.9605 5.45529 32.4215 5.32762C33.9864 4.89456 33.3809 5.27005 33.5728 4.73185C32.1499 4.07099 27.627 4.97717 26.0472 5.40522C19.7451 7.11244 14.5295 10.6395 10.7791 15.5334C6.81201 20.7076 4.13818 27.4214 4.36992 34.5231C4.42724 36.3104 4.71879 40.3807 5.3044 41.8777L13.6424 38.9539H13.6449Z" fill="#F5F4F1"/>
<path fill-rule="evenodd" clip-rule="evenodd" d="M80.1671 30.4252C77.5705 30.7856 78.7916 31.0059 76.5289 30.0547C75.6293 31.6117 72.7537 32.4077 70.5533 31.1711C70.0026 31.4715 69.6063 31.9396 68.8363 32.3276C65.4349 34.0524 63.3367 31.9972 62.3524 31.5692C60.5681 34.7082 55.8584 34.6231 53.2469 33.3865C51.834 32.7182 51.8115 32.2576 51.2832 31.6518C51.1586 31.5091 51.1537 31.5266 51.0291 31.4165C50.426 32.8108 48.4574 34.1525 46.5536 34.6457C42.9054 35.5919 42.5092 34.8609 40.0148 34.5105C41.0689 35.7321 42.6861 36.9962 41.9485 39.4269C41.4401 41.0991 39.9899 42.2731 38.2505 42.7762C38.7314 43.4696 39.8329 43.3194 41.333 45.0091C41.6943 44.7839 41.6096 44.869 41.8812 44.4609C42.1279 44.0905 42.0258 44.2056 42.3547 43.8551C45.6914 40.3055 48.2281 40.5984 51.4776 43.8977L52.6139 34.6782L57.7747 34.3903L57.5853 36.095L58.8836 36.03L59.2499 34.2827L64.3733 33.9923L64.159 35.9423L65.8834 35.8472L65.39 39.8374L69.9502 39.2441L69.8132 40.7561L71.4579 40.5283C71.7195 38.4832 71.5675 38.9237 75.3527 38.3955C75.6094 37.1314 76.4267 35.7171 77.0697 35.0412C77.8272 34.2476 78.9212 33.4191 79.8756 32.9184L80.1621 30.4202L80.1671 30.4252Z" fill="#87888B"/>
<path fill-rule="evenodd" clip-rule="evenodd" d="M69.5938 54.3162C67.6277 55.0447 67.5006 54.4289 65.9481 54.126C64.1838 55.3225 62.8482 56.6217 59.955 55.0472C59.3869 55.3926 59.0679 55.8758 58.273 56.2963C56.2645 57.3602 53.5633 56.9972 51.9634 55.5303L51.4526 56.0835C49.4665 59.0424 43.2542 58.4766 41.0488 55.8382L40.5928 55.2975C40.0197 55.6354 40.2115 55.658 39.7605 56.066C39.5412 56.2638 39.2272 56.484 38.8858 56.7344C38.3551 57.1249 37.6748 57.593 37.0019 57.9309C35.3996 58.737 33.887 59.14 31.8237 58.8296C32.205 60.1463 34.0341 62.1364 34.9262 62.9049C36.0625 63.8837 37.5352 65.0477 39.1824 65.7336C43.3165 67.4583 46.713 65.5909 49.788 63.8236C52.8107 62.0863 55.5618 60.2615 58.4375 58.4666C61.2683 56.6993 65.4223 55.4827 69.4592 55.4477L69.5938 54.3162Z" fill="#87888B"/>
<path fill-rule="evenodd" clip-rule="evenodd" d="M65.4897 10.5659L68.3604 10.4132L68.2259 12.0979L69.4046 12.0679C70.1447 9.95015 68.3505 10.3632 74.8693 10.0303L74.7099 11.9402L76.3545 11.8176L75.9384 15.8303L80.3267 15.2896L80.2793 16.7865L81.6125 16.6238C82.5171 16.3134 82.1956 14.3584 81.9713 13.6475C81.6349 12.5886 81.3508 11.8501 80.8873 10.8789C78.8963 6.69841 74.3211 6.00251 70.3315 7.74978C68.5747 8.52079 66.7357 9.53461 65.4897 10.5659Z" fill="#87888B"/>
<path fill-rule="evenodd" clip-rule="evenodd" d="M54.6299 18.5697C55.5021 17.8788 57.2439 17.293 58.7316 17.6935C60.3563 18.1316 61.0242 19.3106 62.0234 19.9665L62.9105 12.2715L58.3703 15.0326C57.5679 15.4882 56.8901 15.9137 55.9033 16.2567C55.223 16.4945 54.7345 16.3768 54.6299 18.5722V18.5697Z" fill="#87888B"/>
<path fill-rule="evenodd" clip-rule="evenodd" d="M32.6935 52.4839C32.3172 51.5803 33.005 47.5776 33.1171 46.2633C35.153 47.0769 34.2111 52.1986 33.157 52.544C32.529 52.7493 32.7209 52.4965 32.6935 52.4839ZM31.4849 45.1169C30.9417 45.4323 30.6127 50.2235 30.5504 50.8368C30.366 52.6466 31.6867 54.9196 33.3613 53.1974C36.865 49.5927 33.6977 43.8327 31.4849 45.1169Z" fill="#313335"/>
<path fill-rule="evenodd" clip-rule="evenodd" d="M34.1684 40.8604C34.0413 39.6213 33.9292 38.0518 35.0182 37.7764C35.205 38.8678 35.0231 40.4699 34.1684 40.8604ZM31.4971 42.878C33.1492 42.4951 35.0904 41.4762 35.4293 39.9993C35.9028 37.9391 35.7483 35.4434 33.3336 35.7738C32.3144 36.9253 32.2646 36.9704 32.0179 38.8528C31.841 40.2021 31.6341 41.5288 31.4971 42.878Z" fill="#313335"/>
<path fill-rule="evenodd" clip-rule="evenodd" d="M54.8716 24.8746C58.288 24.5442 58.9733 22.0134 58.1858 21.1723C57.4383 20.3738 54.9862 21.4527 54.8716 24.8746Z" fill="#313335"/>
<path fill-rule="evenodd" clip-rule="evenodd" d="M44.6245 48.8415C46.1147 48.8365 47.5974 48.063 48.0534 46.7964C49.105 43.8726 44.7765 44.4433 44.6245 48.8415Z" fill="#313335"/>
<path fill-rule="evenodd" clip-rule="evenodd" d="M32.693 52.4833C32.7229 52.4933 32.5285 52.7461 33.1565 52.5434C34.2106 52.1979 35.1525 47.0763 33.1166 46.2627C33.0045 47.5769 32.3167 51.5796 32.693 52.4833Z" fill="#87888B"/>
<path fill-rule="evenodd" clip-rule="evenodd" d="M80.1519 45.5317C80.73 45.3589 81.0913 45.3364 81.6221 45.6368C81.961 46.3903 81.5324 46.2651 81.2309 46.6857L81.6346 47.4617C80.6652 47.1312 81.5698 46.6106 80.4036 46.5355C80.4036 47.1062 80.4584 47.1588 80.1743 47.4316L80.1519 45.5317ZM80.3911 44.9684C78.405 45.5442 79.2623 48.7083 81.4228 47.9123C83.0525 47.3115 82.4918 44.3576 80.3911 44.9684Z" fill="#87888B"/>
<path fill-rule="evenodd" clip-rule="evenodd" d="M80.391 44.9684C82.4917 44.3601 83.0524 47.3139 81.4227 47.9122C79.2622 48.7082 78.405 45.5441 80.391 44.9684ZM79.0404 46.7181C79.2497 48.916 82.8655 48.7283 82.6113 46.2525C82.3696 43.8945 78.8111 44.295 79.0404 46.7181Z" fill="#313335"/>
<path fill-rule="evenodd" clip-rule="evenodd" d="M34.1683 40.8614C35.023 40.4709 35.2049 38.8688 35.018 37.7773C33.9291 38.0527 34.0437 39.6222 34.1683 40.8614Z" fill="#87888B"/>
<path fill-rule="evenodd" clip-rule="evenodd" d="M81.4601 45.7423C81.3579 46.5233 81.2832 46.3231 80.4035 46.3256V45.6322L81.4601 45.7423ZM80.1743 47.4295C80.4584 47.1567 80.4035 47.1066 80.4035 46.5333C81.5673 46.6084 80.6652 47.1291 81.6346 47.4596L81.2309 46.6835C81.5324 46.263 81.961 46.3882 81.6221 45.6347C81.0888 45.3343 80.73 45.3568 80.1519 45.5295L80.1743 47.4295Z" fill="#313335"/>
<path fill-rule="evenodd" clip-rule="evenodd" d="M80.4038 46.3252C81.2835 46.3252 81.3582 46.523 81.4604 45.742L80.4063 45.6318V46.3252H80.4038Z" fill="#87888B"/>
<path fill-rule="evenodd" clip-rule="evenodd" d="M79.6685 16.4637C79.9103 15.9155 79.7458 15.8804 79.7458 15.8779L79.3271 16.0131H79.6785L79.6685 16.4637Z" fill="#313335"/>
</svg>
