<svg width="29" height="30" viewBox="0 0 29 30" fill="none" xmlns="http://www.w3.org/2000/svg">
<g clip-path="url(#clip0_5766_5295)">
<path fill-rule="evenodd" clip-rule="evenodd" d="M18.8887 1C18.8887 0.4 19.2887 0 19.8887 0C20.4887 0 20.8887 0.4 20.8887 1V5C20.8887 5.6 20.4887 6 19.8887 6C19.2887 6 18.8887 5.6 18.8887 5V1ZM8.88867 1C8.88867 0.4 9.28867 0 9.88867 0C10.4887 0 10.8887 0.4 10.8887 1V5C10.8887 5.6 10.4887 6 9.88867 6C9.28867 6 8.88867 5.6 8.88867 5V1ZM16.8887 2C17.4887 2 17.8887 2.4 17.8887 3C17.8887 3.6 17.4887 4 16.8887 4H12.8887C12.2887 4 11.8887 3.6 11.8887 3C11.8887 2.4 12.2887 2 12.8887 2H16.8887ZM13.8887 15.8C13.5887 16 13.3887 16.3 13.3887 16.5C13.3887 16.7 13.5887 17 13.8887 17.2V15.8ZM15.8887 21.2C16.1887 21 16.3887 20.7 16.3887 20.5C16.3887 20.3 16.1887 20 15.8887 19.8V21.2ZM13.8887 21.2V19.3C12.4887 18.9 11.3887 17.8 11.3887 16.4C11.3887 15 12.4887 13.9 13.8887 13.5V13C13.8887 12.4 14.2887 12 14.8887 12C15.4887 12 15.8887 12.4 15.8887 13V13.6C17.2887 14 18.3887 15.1 18.3887 16.5C18.3887 17.1 17.9887 17.5 17.3887 17.5C16.7887 17.5 16.3887 17.1 16.3887 16.5C16.3887 16.2 16.1887 16 15.8887 15.8V17.7C17.2887 18.1 18.3887 19.2 18.3887 20.6C18.3887 22 17.2887 23 15.8887 23.4V24C15.8887 24.6 15.4887 25 14.8887 25C14.2887 25 13.8887 24.6 13.8887 24V23.4C12.4887 23 11.3887 21.9 11.3887 20.5C11.3887 19.9 11.7887 19.5 12.3887 19.5C12.9887 19.5 13.3887 19.9 13.3887 20.5C13.3887 20.8 13.5887 21 13.8887 21.2ZM2.88867 10V28H26.8887V10H2.88867ZM2.88867 8H26.8887V4H22.8887C22.2887 4 21.8887 3.6 21.8887 3C21.8887 2.4 22.2887 2 22.8887 2H27.8887C28.4887 2 28.8887 2.4 28.8887 3V29C28.8887 29.6 28.4887 30 27.8887 30H1.88867C1.28867 30 0.888672 29.6 0.888672 29V3C0.888672 2.4 1.28867 2 1.88867 2H6.88867C7.48867 2 7.88867 2.4 7.88867 3C7.88867 3.6 7.48867 4 6.88867 4H2.88867V8Z" fill="currentcolor"></path>
</g>
<defs>
<clipPath id="clip0_5766_5295">
<rect width="28" height="30" fill="white" transform="translate(0.888672)"></rect>
</clipPath>
</defs>
</svg>