<?xml version="1.0" encoding="UTF-8"?><svg width="91" height="79" viewBox="0 0 91 79" fill="none" xmlns="http://www.w3.org/2000/svg">
<path fill-rule="evenodd" clip-rule="evenodd" d="M18.3638 74.5285C18.1708 75.3083 17.8854 75.9575 17.5108 76.4677C17.1379 76.979 16.6811 77.361 16.1402 77.6152C15.5994 77.8655 14.991 77.9943 14.3128 77.9943C12.9559 77.9943 11.9003 77.4921 11.1478 76.4842C10.3947 75.478 10.0184 73.9127 10.0184 71.7862C10.0184 69.6603 10.4004 68.086 11.1642 67.0702C11.9292 66.052 12.9899 65.543 14.3463 65.543C15.7044 65.543 16.7617 66.0498 17.5199 67.0628C18.2787 68.0735 18.6578 69.6365 18.6578 71.7516C18.6578 72.8208 18.5596 73.7459 18.3638 74.5285ZM4.68153 68.4149C4.50276 68.1902 4.21333 68.0772 3.80982 68.0772H2.82745V71.0788H3.75931C4.17303 71.0788 4.47439 70.9625 4.66394 70.7327C4.85349 70.5039 4.9494 70.1152 4.9494 69.5619C4.9494 69.021 4.85916 68.6379 4.68153 68.4149ZM7.51849 71.3111C7.3227 71.8111 7.05029 72.218 6.69956 72.5284C6.34883 72.8377 5.93227 73.0653 5.44932 73.2083C4.96693 73.3513 4.43686 73.4256 3.86367 73.4256H2.82738V77.8052H0V65.7324H4.06968C4.60996 65.7324 5.10653 65.7982 5.56112 65.9304C6.0157 66.0632 6.40899 66.2766 6.74212 66.5689C7.07526 66.8617 7.33859 67.2476 7.52644 67.7238C7.71712 68.2011 7.8119 68.7901 7.8119 69.4927C7.8119 70.2061 7.71428 70.8128 7.51849 71.3111ZM27.566 77.0642C27.9161 76.764 28.1897 76.3934 28.3849 75.9501C28.5807 75.5086 28.6794 75.0046 28.6794 74.4417C28.6794 73.9366 28.617 73.4894 28.4978 73.1046C28.3747 72.7198 28.184 72.368 27.919 72.045C27.6539 71.7232 27.3129 71.4264 26.8929 71.1574C26.4718 70.8862 25.9588 70.6194 25.3492 70.3561C25.0388 70.2159 24.7857 70.0911 24.5916 69.9764C24.3947 69.8601 24.2392 69.7415 24.124 69.6223C24.0099 69.5008 23.9299 69.3783 23.8839 69.2494C23.8368 69.124 23.8147 68.9816 23.8147 68.8187C23.8147 68.5894 23.8907 68.3885 24.0388 68.2166C24.1875 68.0435 24.4004 67.9578 24.6773 67.9578C24.86 67.9578 25.0246 67.9782 25.1693 68.0174C25.3118 68.0593 25.4542 68.1303 25.591 68.233C25.7289 68.3369 25.8719 68.4725 26.0229 68.6376C26.1716 68.8062 26.3509 69.0099 26.5558 69.2494L28.5563 67.4572C28.3038 67.1462 28.0501 66.8744 27.7998 66.64C27.5455 66.4028 27.272 66.2013 26.978 66.0361C26.6869 65.867 26.3583 65.7444 25.9957 65.6639C25.6336 65.5838 25.2221 65.543 24.7624 65.543C24.1875 65.543 23.6677 65.6349 23.2023 65.8194C22.737 66.0032 22.3425 66.2524 22.0213 66.569C21.699 66.8857 21.4527 67.2563 21.279 67.6814C21.1076 68.1065 21.0219 68.5667 21.0219 69.061C21.0219 69.5332 21.0792 69.9498 21.1927 70.313C21.3079 70.6733 21.4952 71.0048 21.7546 71.3027C22.0117 71.6035 22.3522 71.8799 22.7721 72.1387C23.1915 72.3992 23.6989 72.6619 24.2982 72.9236C24.6427 73.0734 24.9151 73.2147 25.1154 73.3469C25.3186 73.478 25.473 73.6125 25.5825 73.743C25.692 73.8758 25.7641 74.0115 25.7976 74.1477C25.8316 74.2867 25.8487 74.4417 25.8487 74.6142C25.8487 74.9479 25.7516 75.1919 25.557 75.3469C25.3617 75.5029 25.1132 75.5801 24.8141 75.5801C24.5144 75.5801 24.1995 75.457 23.8663 75.209C23.5332 74.9626 23.1649 74.5966 22.7642 74.1142L20.7966 75.8905C21.0486 76.2237 21.3079 76.5188 21.5718 76.777C21.8369 77.0364 22.1269 77.2594 22.4436 77.4433C22.7597 77.6266 23.1093 77.7634 23.4861 77.8559C23.8663 77.9455 24.2925 77.9949 24.7624 77.9949C25.3254 77.9949 25.8458 77.9143 26.3254 77.7531C26.7998 77.5931 27.2141 77.361 27.566 77.0642ZM36.0218 68.2509V77.8051H33.1457V68.2509H30.6957V65.7328H38.4713V68.2509H36.0218ZM48.1116 75.1326V77.8051H50.7166V65.7328H48.1116L47.0595 68.6811C46.7967 69.4274 46.5612 70.1311 46.354 70.7871C46.1469 71.4403 45.9954 71.9806 45.9046 72.4074C45.8251 71.9806 45.6827 71.4392 45.475 70.778C45.2661 70.1152 45.0323 69.4228 44.7656 68.6998L43.6981 65.7328H41.0778V77.8051H43.6981V75.1326C43.6981 74.476 43.6924 73.8557 43.6805 73.2695C43.668 72.6826 43.6515 72.1367 43.6299 71.6299C43.6981 71.8711 43.7747 72.139 43.8609 72.4329C43.9489 72.7252 44.0431 73.0305 44.1464 73.3472C44.2497 73.6639 44.3552 73.9783 44.4653 74.295C44.524 74.4641 44.5797 74.6262 44.6328 74.7807L44.633 74.7814C44.6791 74.9154 44.7232 75.0437 44.7656 75.1661L45.9046 78.1836L47.043 75.1661C47.1338 74.8892 47.236 74.5969 47.3449 74.287C47.4533 73.9754 47.5612 73.6639 47.6644 73.3472C47.7613 73.0519 47.8483 72.7665 47.9318 72.4923L47.9499 72.4329C48.0345 72.139 48.1116 71.8711 48.1832 71.6299C48.1593 72.1475 48.1406 72.6968 48.1298 73.278C48.1173 73.8568 48.1116 74.476 48.1116 75.1326ZM59.4245 77.8048L58.9756 75.562H56.5954L56.1658 77.8048H53.1982L56.3207 65.7326H59.2883L62.3915 77.8048H59.4245ZM68.6 77.8051V68.2509H71.0471V65.7328H63.2693V68.2509H65.7187V77.8051H68.6ZM73.6511 77.8051V65.7328H80.7235V68.1987H76.5137V70.2514H79.2565V72.7167H76.5137V75.3381H80.8421V77.8051H73.6511ZM89.8876 77.0642C90.2384 76.764 90.5102 76.3934 90.706 75.9501C90.9029 75.5086 91 75.0046 91 74.4417C91 73.9366 90.9404 73.4894 90.8184 73.1046C90.6986 72.7198 90.5051 72.368 90.2418 72.045C89.9767 71.7232 89.634 71.4264 89.2146 71.1574C88.7957 70.8862 88.281 70.6194 87.672 70.3561C87.3599 70.2159 87.1091 70.0911 86.9121 69.9764C86.7186 69.8601 86.5625 69.7415 86.4479 69.6223C86.3321 69.5008 86.2521 69.3783 86.2067 69.2494C86.1596 69.124 86.1369 68.9816 86.1369 68.8187C86.1369 68.5894 86.2107 68.3885 86.3605 68.2166C86.5103 68.0435 86.7237 67.9578 86.999 67.9578C87.184 67.9578 87.3469 67.9782 87.491 68.0174C87.6329 68.0593 87.7748 68.1303 87.9132 68.233C88.0511 68.3369 88.1942 68.4725 88.344 68.6376C88.4949 68.8062 88.6714 69.0099 88.878 69.2494L90.8808 67.4572C90.6265 67.1462 90.3723 66.8744 90.1203 66.64C89.8689 66.4028 89.5937 66.2013 89.3014 66.0361C89.0085 65.867 88.6822 65.7444 88.319 65.6639C87.9569 65.5838 87.5455 65.543 87.0858 65.543C86.5103 65.543 85.9899 65.6349 85.5257 65.8194C85.0592 66.0032 84.6653 66.2524 84.343 66.569C84.0229 66.8857 83.7732 67.2563 83.6012 67.6814C83.4298 68.1065 83.3424 68.5667 83.3424 69.061C83.3424 69.5332 83.4009 69.9498 83.5167 70.313C83.6319 70.6733 83.818 71.0048 84.0762 71.3027C84.3345 71.6035 84.6738 71.8799 85.0944 72.1387C85.5138 72.3992 86.0217 72.6619 86.6199 72.9236C86.9638 73.0734 87.2373 73.2147 87.4399 73.3469C87.6397 73.478 87.7946 73.6125 87.9047 73.743C88.0148 73.8758 88.0852 74.0115 88.1198 74.1477C88.1556 74.2867 88.1726 74.4417 88.1726 74.6142C88.1726 74.9479 88.0738 75.1919 87.8798 75.3469C87.6823 75.5029 87.4377 75.5801 87.1363 75.5801C86.8384 75.5801 86.5217 75.457 86.1897 75.209C85.856 74.9626 85.486 74.5966 85.0847 74.1142L83.12 75.8905C83.3708 76.2237 83.6319 76.5188 83.8941 76.777C84.1597 77.0364 84.4502 77.2594 84.7646 77.4433C85.0819 77.6266 85.4298 77.7634 85.8106 77.8559C86.1897 77.9455 86.6125 77.9949 87.0858 77.9949C87.6476 77.9949 88.1681 77.9143 88.6459 77.7531C89.1238 77.5931 89.5363 77.361 89.8876 77.0642ZM15.6069 69.9663C15.5473 69.4811 15.4616 69.094 15.3475 68.8063C15.2323 68.518 15.0887 68.3114 14.9168 68.1911C14.7437 68.0708 14.5484 68.0095 14.33 68.0095C14.1001 68.0095 13.9009 68.0662 13.7335 68.1826C13.5683 68.2989 13.427 68.497 13.3113 68.7802C13.1978 69.0622 13.1149 69.4476 13.0604 69.9322C13.0093 70.4169 12.9855 71.0241 12.9855 71.7517C12.9855 72.4793 13.0139 73.0859 13.0701 73.5695C13.1279 74.0558 13.2153 74.4417 13.3289 74.7312C13.4441 75.0206 13.5854 75.2266 13.7505 75.3464C13.9191 75.4678 14.116 75.5285 14.3464 75.5285C14.5649 75.5285 14.7607 75.4695 14.9332 75.3543C15.1058 75.2402 15.2465 75.0405 15.3566 74.7567C15.465 74.4747 15.5473 74.0916 15.6069 73.6069C15.6636 73.1211 15.6926 72.5139 15.6926 71.7863C15.6926 71.0588 15.6636 70.4527 15.6069 69.9663ZM58.0363 70.6395C58.1583 71.3007 58.2866 72.0271 58.425 72.8211L58.4931 73.2166H57.0624L57.1305 72.8375C57.2786 72.0345 57.4103 71.3007 57.5198 70.6395C57.6282 69.9784 57.7111 69.3717 57.7695 68.8183C57.8274 69.3717 57.916 69.9784 58.0363 70.6395Z" fill="#87888B"/>
<path fill-rule="evenodd" clip-rule="evenodd" d="M54.6974 10.0184C55.1889 9.99461 56.3007 9.96169 57.5435 10.0326L62.8425 5.2825L60.5145 5.04925L54.6702 10.015L54.6725 10.0201C54.6804 10.019 54.6883 10.0184 54.6974 10.0184ZM16.1572 34.4111L14.437 31.3482L14.0278 34.8384L10.583 35.5285L13.7764 36.9933L13.3678 40.4841L15.7497 37.899L18.942 39.3666L17.2213 36.3032L19.6015 33.7215L16.1572 34.4111ZM27.6705 39.7089L25.9503 36.6466L25.5434 40.1357L22.098 40.8252L25.2914 42.2928L24.8828 45.7836L27.263 43.1986L30.4564 44.6662L28.7357 41.601L31.1159 39.02L27.6705 39.7089ZM29.2123 24.9272L27.4916 21.8649L27.0835 25.354L23.6381 26.0447L26.831 27.5123L26.4241 31.0014L28.8042 28.4163L31.9977 29.8845L30.2769 26.8216L32.6577 24.2366L29.2123 24.9272ZM71.9182 29.3379C71.097 29.9264 70.1861 30.3231 69.206 30.5195C66.508 31.0603 63.7278 29.9661 62.1205 27.7324C60.3624 25.2824 60.4203 22.0771 62.015 19.7122L67.6692 23.9107C67.7838 23.9958 67.9212 24.0293 68.0517 24.0134C68.1913 23.9987 68.3281 23.9272 68.4189 23.8063C68.5971 23.5696 68.5505 23.2342 68.3144 23.0566L62.8192 18.7264C63.0961 18.4438 63.3952 18.1765 63.7278 17.9381C64.5467 17.3485 65.4593 16.9501 66.4388 16.7537C69.1362 16.2129 71.9182 17.3088 73.5243 19.5414C75.7807 22.6843 75.0611 27.0775 71.9182 29.3379ZM53.1986 19.2169C51.5187 18.0053 48.0461 18.5904 45.7856 18.9672C46.5541 17.3504 47.9116 15.6767 48.3633 13.7279C48.6062 14.9566 52.6679 16.3538 52.6679 16.3538C52.6679 16.3538 54.5135 15.9452 56.1077 15.3203C56.1258 15.3357 56.144 15.3527 56.1605 15.3646L56.77 15.8175L53.1986 19.2169ZM55.6446 25.4267L54.0567 21.7673C54.1077 21.1861 54.0777 20.6646 53.9449 20.2299L56.7155 17.5926L55.6446 25.4267ZM54.984 30.2591C54.6917 30.2671 54.4017 30.3477 54.1316 30.4884C53.98 30.3119 53.7473 30.1348 53.3257 29.863C53.0045 29.657 51.5545 28.7881 51.6101 28.6054C51.8201 27.9743 52.2928 27.0345 52.9772 25.7031C53.6951 26.4953 54.4187 27.8443 55.1281 29.2041L54.984 30.2591ZM52.7696 33.3214C51.3337 31.4128 49.2038 30.2 46.9037 29.8885L47.1386 27.3681L49.1329 28.7773C48.9138 29.578 49.0075 30.002 49.6584 30.2636L53.1475 31.6149L53.1663 31.6285C53.0215 32.0791 53.0346 32.5745 53.2315 33.0234L52.7696 33.3214ZM49.8304 44.3035C49.012 44.8943 48.1 45.291 47.1199 45.4896C44.4231 46.0293 41.6428 44.9351 40.0362 42.7019C37.7786 39.5585 38.5004 35.1636 41.6428 32.9066C42.4617 32.3175 43.3749 31.9185 44.3533 31.7227C44.7324 31.6467 45.1126 31.6064 45.4911 31.5933L44.8249 38.7316C44.8033 38.9688 44.9191 39.1992 45.1223 39.3224C45.259 39.4064 45.4179 39.4319 45.5689 39.4007C45.6444 39.3865 45.7176 39.3576 45.7845 39.3133L51.9416 35.3412C53.5465 38.3888 52.7054 42.2394 49.8304 44.3035ZM46.7379 31.6625C48.5046 31.9201 50.1385 32.8458 51.2667 34.2912L46.1868 37.5709L46.7379 31.6625ZM51.1839 22.8576C50.5454 25.0709 49.9075 26.6253 49.4921 27.7218L47.5296 26.3348L51.1839 22.8576ZM43.5212 23.5015C43.7829 23.4976 44.057 23.4771 44.3578 23.4204C46.7215 23.1871 48.3718 22.9454 49.4711 22.7655L46.4916 25.6013L43.5212 23.5015ZM52.0437 12.8305C53.3456 12.9457 54.6855 12.8373 55.8648 12.6551L56.2938 13.6057C55.3654 13.663 54.4125 13.7629 53.5493 13.9054C52.862 14.0194 51.08 12.2533 52.0437 12.8305ZM74.9708 18.5023C72.9573 15.7011 69.4716 14.3294 66.0891 15.0076C64.8588 15.2533 63.7146 15.7521 62.688 16.4893C62.2164 16.8282 61.7913 17.2073 61.4083 17.6147L58.847 15.5978C59.5933 15.3191 61.9185 14.3839 60.9554 13.8771C60.6977 13.7403 60.1716 13.6478 59.4906 13.5973L61.3078 12.0162L61.7051 11.6711L65.1073 8.71037L63.5251 5.62817L58.3085 10.3068C58.3085 10.3068 58.3039 10.2994 57.7966 10.7631C57.792 10.7631 57.7852 10.7619 57.7818 10.7625L57.7858 10.7727L57.7829 10.7761L57.7807 10.7722C56.6734 10.7001 55.6326 10.7943 55.0594 10.8755L55.0583 10.8732C53.8892 11.0832 52.8994 11.2341 52.4278 11.1416C50.7156 10.8085 50.311 8.98788 49.5358 7.92889C49.0942 7.32846 48.2078 7.25922 48.1329 6.74335C48.3769 6.69851 48.6084 6.62814 48.815 6.52996C49.7554 6.08162 50.0817 5.65995 50.336 5.09073C50.6606 4.36828 50.3144 3.17933 49.8314 2.19411C50.2208 1.91263 51.6764 0.77702 51.6191 0.582928C51.5998 0.511421 49.7883 0.761129 49.0278 0.908684C48.9155 0.773615 48.8116 0.668056 48.7214 0.602224C48.1011 0.145939 47.592 -0.318292 46.1289 0.293494C43.6256 1.33943 43.7561 3.29113 44.5864 5.02944C44.9689 5.83418 45.6386 6.34097 46.3673 6.59693C46.3134 6.69851 46.2856 6.75697 46.2578 6.80861L46.3264 6.63495C42.3748 10.2001 33.1492 16.2022 30.7191 16.3219C32.7315 17.1062 38.5219 17.2141 40.9492 15.7652C40.2676 18.5375 40.2267 21.2718 41.3964 22.6271C40.498 23.2939 39.5701 24.0118 39.1235 24.4477C38.7711 24.7899 38.8778 24.9647 39.1802 25.3517C39.1802 25.3517 41.5286 25.3954 42.225 24.7331C42.4117 24.5566 42.5746 24.3955 42.7216 24.2456L45.9627 26.5367L45.6573 29.8102C45.108 29.8136 44.5541 29.8646 44.003 29.9753C42.7732 30.2216 41.6291 30.721 40.6024 31.4582C36.6622 34.2901 35.7581 39.7991 38.5883 43.7405C40.6019 46.5412 44.0887 47.9123 47.4706 47.2364C48.7009 46.9889 49.8445 46.4912 50.8711 45.7523C54.5208 43.131 55.5588 38.214 53.4454 34.3707L54.0878 33.9559C54.7337 34.3117 55.552 34.2947 56.1916 33.8356C56.8375 33.3713 57.1144 32.5899 56.9737 31.8578C57.8533 31.6041 58.7761 31.305 59.805 31.0002C60.8719 30.6847 61.0297 30.3652 60.7658 29.8374C60.4077 29.1183 57.7006 29.7682 57.3516 29.3612L56.6019 27.6343L58.0832 16.7924L60.5836 18.6493C58.54 21.622 58.4526 25.678 60.6739 28.7722C62.688 31.5734 66.1748 32.9446 69.5567 32.2675C70.7871 32.0201 71.9306 31.5218 72.9561 30.7846C76.8975 27.9527 77.8016 22.4426 74.9708 18.5023Z" fill="#87888B"/>
</svg>
