<svg width="64" height="64" viewBox="0 0 64 64" fill="none" xmlns="http://www.w3.org/2000/svg">
<path fill-rule="evenodd" clip-rule="evenodd" d="M39.381 22.0239H50.4524V24.9763H39.381V22.0239ZM11.7024 9.47632H23.1429V12.3549H11.7024V9.47632ZM7.42143 35.2358V38.1144H28.8262V35.2358C28.8262 33.6858 27.6452 32.3573 26.1691 32.3573H10.0786C8.60238 32.3573 7.42143 33.6858 7.42143 35.2358ZM5.28096 14.643H30.5976C32.5905 14.643 34.1405 16.2668 34.1405 18.1858V52.3597C34.1405 54.3525 32.5167 55.9025 30.5976 55.9025H5.28096C3.36191 55.9763 1.7381 54.3525 1.7381 52.4335V18.1858C1.7381 16.2668 3.36191 14.643 5.28096 14.643Z" fill="currentcolor" class="tint"></path>
<path fill-rule="evenodd" clip-rule="evenodd" d="M24.0286 50.0714H26.3167C27.35 50.0714 28.2357 49.1119 28.2357 47.8571V40.4762C28.2357 40.0333 28.531 39.7381 28.9738 39.7381C29.4167 39.7381 29.7119 40.0333 29.7119 40.4762V47.8571C29.7119 49.85 28.2357 51.5476 26.3167 51.5476H24.0286C23.5857 51.5476 23.2905 51.2524 23.2905 50.8095C23.2905 50.3667 23.6595 50.0714 24.0286 50.0714ZM19.7476 50.0714H21.15C21.5929 50.0714 21.8881 50.3667 21.8881 50.8095C21.8881 51.2524 21.5929 51.5476 21.15 51.5476H19.7476C19.3048 51.5476 19.0095 51.2524 19.0095 50.8095C19.0095 50.3667 19.3786 50.0714 19.7476 50.0714ZM8.38095 40.4762V47.8571C8.38095 49.1119 9.26667 50.0714 10.3 50.0714H16.869C17.3119 50.0714 17.6071 50.3667 17.6071 50.8095C17.6071 51.2524 17.3119 51.5476 16.869 51.5476H10.3C8.38095 51.5476 6.90476 49.85 6.90476 47.8571V40.4762C6.90476 40.0333 7.2 39.7381 7.64286 39.7381C8.08571 39.7381 8.38095 40.0333 8.38095 40.4762ZM8.15952 35.2357C8.15952 35.6786 7.86429 35.9738 7.42143 35.9738C6.97857 35.9738 6.68333 35.6786 6.68333 35.2357C6.68333 33.2429 8.23333 31.619 10.0786 31.619H26.0952C28.0143 31.619 29.4905 33.2429 29.4905 35.2357C29.4905 35.6786 29.1952 35.9738 28.7524 35.9738C28.3095 35.9738 28.0143 35.6786 28.0143 35.2357C28.0143 34.0548 27.1286 33.0952 26.0952 33.0952H10.0786C9.04524 33.0952 8.15952 34.0548 8.15952 35.2357ZM23.881 39V42.6905C23.881 43.1333 23.5857 43.4286 23.1429 43.4286C22.7 43.4286 22.4048 43.1333 22.4048 42.6905V39H7.64286C7.2 39 6.90476 38.7048 6.90476 38.2619C6.90476 37.819 7.2 37.5238 7.64286 37.5238H28.3095C28.7524 37.5238 29.0476 37.819 29.0476 38.2619C29.0476 38.7048 28.7524 39 28.3095 39H23.881ZM6.16667 15.381C4.1 15.381 2.47619 17.0048 2.47619 19.0714V51.5476C2.47619 53.6143 4.1 55.2381 6.16667 55.2381H29.7857C31.8524 55.2381 33.4762 53.6143 33.4762 51.5476V19.0714C33.4762 17.0048 31.8524 15.381 29.7857 15.381H6.16667ZM8.38095 22.7619C7.9381 22.7619 7.64286 22.4667 7.64286 22.0238C7.64286 21.581 7.9381 21.2857 8.38095 21.2857H27.5714C28.0143 21.2857 28.3095 21.581 28.3095 22.0238C28.3095 22.4667 28.0143 22.7619 27.5714 22.7619H8.38095ZM48.9762 44.9048H51.9286V41.5833L50.4524 40.6238L48.9762 41.5833V44.9048ZM49.7143 24.2381V23.5C49.7143 23.0571 49.419 22.7619 49.05 22.7619H40.7833C40.4143 22.7619 40.119 23.0571 40.119 23.5V24.2381H49.7143ZM23.1429 10.9524V10.2143C23.1429 9.77143 22.8476 9.47619 22.4048 9.47619H13.5476C13.1048 9.47619 12.8095 9.77143 12.8095 10.2143V10.9524H23.1429ZM40.119 27.1905H49.7143V25.7143H40.119V27.1905ZM51.1905 36.0476V39.369L53.1095 40.6238C53.331 40.7714 53.4048 40.9929 53.4048 41.2143V45.6429C53.4048 46.0857 53.1095 46.381 52.6667 46.381H48.2381C47.7952 46.381 47.5 46.0857 47.5 45.6429V41.2143C47.5 40.9929 47.6476 40.7714 47.7952 40.6238L49.7143 39.369V36.0476H38.6429C38.2 36.0476 37.9048 35.7524 37.9048 35.3095C37.9048 34.8667 38.2 34.5714 38.6429 34.5714H56.3571C56.8 34.5714 57.0952 34.8667 57.0952 35.3095C57.0952 35.7524 56.8 36.0476 56.3571 36.0476H51.1905ZM12.8095 13.9048H23.1429V12.4286H12.8095V13.9048ZM34.9524 28.6667V51.5476C34.9524 53.0238 34.3619 54.2786 33.4024 55.2381H57.8333C59.9 55.2381 61.5238 53.6143 61.5238 51.5476V32.3571C61.5238 30.2905 59.9 28.6667 57.8333 28.6667H34.9524ZM34.9524 27.1905H38.6429V23.5C38.6429 22.319 39.6024 21.2857 40.7833 21.2857H49.05C50.2309 21.2857 51.1905 22.319 51.1905 23.5V27.1905H57.8333C60.7119 27.1905 63 29.4786 63 32.3571V51.5476C63 54.4262 60.7119 56.7143 57.8333 56.7143H29.7857H6.16667C3.2881 56.7143 1 54.4262 1 51.5476V19.0714C1 16.1929 3.2881 13.9048 6.16667 13.9048H11.3333V10.2143C11.3333 8.95952 12.2929 8 13.5476 8H22.4048C23.6595 8 24.619 8.95952 24.619 10.2143V13.9048H29.7857C32.6643 13.9048 34.9524 16.1929 34.9524 19.0714V27.1905Z" fill="currentcolor" class="shade"></path>
</svg>