<svg width="51" height="50" viewBox="0 0 51 50" fill="none" xmlns="http://www.w3.org/2000/svg">
<path d="M36.5519 23.8725H27.3078C27.215 23.8725 27.1221 23.899 27.0293 23.9255C26.8171 23.5144 26.4723 23.1828 26.0611 22.9574C26.0877 22.8645 26.1142 22.785 26.1142 22.6789V9.60193C26.1142 8.97859 25.6102 8.47461 24.9869 8.47461C24.3635 8.47461 23.8595 8.97859 23.8595 9.60193V22.6921C23.8595 22.785 23.8861 22.8778 23.9126 22.9706C23.1832 23.3552 22.6792 24.1245 22.6792 24.9998C22.6792 26.273 23.7137 27.3075 24.9869 27.3075C25.8755 27.3075 26.6314 26.8035 27.016 26.0741C27.1089 26.1006 27.1885 26.1271 27.2946 26.1271H36.5386C37.1619 26.1271 37.6659 25.6231 37.6659 24.9998C37.6659 24.3765 37.1619 23.8725 36.5386 23.8725H36.5519Z" fill="currentcolor"></path>
<path d="M48.4615 14.9867V7.29443C48.4615 6.67109 47.9576 6.16711 47.3342 6.16711C46.7109 6.16711 46.2069 6.67109 46.2069 7.29443V11.7772C41.6578 4.4695 33.7268 0 25 0C11.2202 0 0 11.2202 0 25C0 38.7798 11.2202 50 25 50C28.9655 50 32.7719 49.0981 36.2865 47.3077C36.8435 47.0292 37.069 46.3528 36.7772 45.7958C36.4987 45.2387 35.8223 45.0133 35.2653 45.305C32.069 46.9231 28.6074 47.7454 24.9867 47.7454C12.4536 47.7454 2.25464 37.5464 2.25464 25C2.25464 12.4536 12.4536 2.25464 25 2.25464C33.2891 2.25464 40.7825 6.68435 44.8276 13.8594H39.6419C39.0186 13.8594 38.5146 14.3634 38.5146 14.9867C38.5146 15.6101 39.0186 16.1141 39.6419 16.1141H47.3475C47.9708 16.1141 48.4748 15.6101 48.4748 14.9867H48.4615Z" fill="currentcolor"></path>
<path d="M42.9705 38.9387C42.1482 39.9865 41.2331 40.9812 40.2517 41.8698C39.7875 42.2809 39.7477 42.9971 40.1721 43.4613C40.3976 43.7133 40.7026 43.8326 41.0076 43.8326C41.2729 43.8326 41.5514 43.7398 41.7636 43.5409C42.8511 42.5594 43.8591 41.4719 44.761 40.3181C45.1456 39.8273 45.0527 39.1244 44.562 38.7398C44.0713 38.3552 43.3551 38.448 42.9838 38.9387H42.9705Z" fill="currentcolor"></path>
<path d="M48.3818 29.9469C47.7849 29.7878 47.1616 30.1459 47.0024 30.756C46.7372 31.7904 46.3924 32.8117 45.968 33.8064C45.7292 34.3766 45.9945 35.0398 46.5648 35.2785C46.7107 35.3316 46.8566 35.3713 47.0024 35.3713C47.4401 35.3713 47.8645 35.1061 48.0369 34.6817C48.5011 33.5941 48.8725 32.4668 49.1775 31.3262C49.3367 30.7294 48.9786 30.1061 48.3685 29.9469H48.3818Z" fill="currentcolor"></path>
<path d="M49.6818 20.9681C49.589 20.358 49.0054 19.9336 48.3954 20.0397C47.7853 20.1458 47.3609 20.7161 47.467 21.3395C47.6659 22.5463 47.7588 23.7798 47.7588 25.0132C47.7588 25.6365 48.2627 26.1405 48.8861 26.1405C49.5094 26.1405 50.0134 25.6365 50.0134 25.0132C50.0134 23.6604 49.9073 22.3076 49.6951 20.9814L49.6818 20.9681Z" fill="currentcolor"></path>
</svg>