<svg xmlns="http://www.w3.org/2000/svg" xmlns:xlink="http://www.w3.org/1999/xlink" id="Layer_1" x="0px" y="0px" viewBox="0 0 1249.8 517.3" style="enable-background:new 0 0 1249.8 517.3;" xml:space="preserve">
<style type="text/css">
	.st0{fill:#3D3D3D;}
	.st1{fill:url(#Polygon_2_1_);}
	.st2{fill:url(#Polygon_5_1_);}
	.st3{fill:none;}
	.st4{fill:#FFFFFF;}
</style>
<path id="Fill_44" class="st0" d="M133.3,186.2c-5.7,0-10.3-4.6-10.3-10.3s4.6-10.3,10.3-10.3c5.7,0,10.3,4.6,10.3,10.3  C143.6,181.6,139,186.2,133.3,186.2"></path>
<path id="Fill_45" class="st0" d="M133.3,269c-5.7,0-10.3-4.6-10.3-10.3c0-5.7,4.6-10.3,10.3-10.3c5.7,0,10.3,4.6,10.3,10.3  C143.6,264.4,139,269,133.3,269"></path>
<path id="Fill_46" class="st0" d="M133.3,351.8c-5.7,0-10.3-4.6-10.3-10.3s4.6-10.3,10.3-10.3c5.7,0,10.3,4.6,10.3,10.3  C143.6,347.2,139,351.8,133.3,351.8"></path>
<path id="Fill_47" class="st0" d="M133.3,434.6c-5.7,0-10.3-4.6-10.3-10.3s4.6-10.3,10.3-10.3c5.7,0,10.3,4.6,10.3,10.3  S139,434.6,133.3,434.6C133.3,434.6,133.3,434.6,133.3,434.6"></path>
<path id="Fill_48" class="st0" d="M133.3,517.3c-5.7,0-10.3-4.6-10.3-10.3c0-5.7,4.6-10.3,10.3-10.3c5.7,0,10.3,4.6,10.3,10.3  C143.6,512.7,139,517.3,133.3,517.3"></path>
<path id="Fill_58" class="st0" d="M10.3,186.2c-5.7,0-10.3-4.6-10.3-10.3s4.6-10.3,10.3-10.3c5.7,0,10.3,4.6,10.3,10.3  C20.7,181.6,16.1,186.2,10.3,186.2"></path>
<path id="Fill_59" class="st0" d="M10.3,269C4.6,269,0,264.4,0,258.7c0-5.7,4.6-10.3,10.3-10.3c5.7,0,10.3,4.6,10.3,10.3  C20.7,264.4,16.1,269,10.3,269"></path>
<path id="Fill_58_1_" class="st0" d="M10.3,103.5C4.6,103.5,0,98.8,0,93.1c0-5.7,4.6-10.3,10.3-10.3c5.7,0,10.3,4.6,10.3,10.3  C20.7,98.8,16.1,103.5,10.3,103.5"></path>
<path id="Fill_59_1_" class="st0" d="M10.3,186.2c-5.7,0-10.3-4.6-10.3-10.3s4.6-10.3,10.3-10.3c5.7,0,10.3,4.6,10.3,10.3  C20.7,181.6,16.1,186.2,10.3,186.2"></path>
<path id="Fill_58_2_" class="st0" d="M10.3,20.7C4.6,20.7,0,16.1,0,10.3S4.6,0,10.3,0c5.7,0,10.3,4.6,10.3,10.3  C20.7,16.1,16.1,20.7,10.3,20.7"></path>
<path id="Fill_59_2_" class="st0" d="M10.3,103.5C4.6,103.5,0,98.8,0,93.1c0-5.7,4.6-10.3,10.3-10.3c5.7,0,10.3,4.6,10.3,10.3  C20.7,98.8,16.1,103.5,10.3,103.5"></path>
<path id="Fill_58_3_" class="st0" d="M133.3,103.5c-5.7,0-10.3-4.6-10.3-10.3c0-5.7,4.6-10.3,10.3-10.3c5.7,0,10.3,4.6,10.3,10.3  C143.6,98.8,139,103.5,133.3,103.5"></path>
<path id="Fill_59_3_" class="st0" d="M133.3,186.2c-5.7,0-10.3-4.6-10.3-10.3s4.6-10.3,10.3-10.3c5.7,0,10.3,4.6,10.3,10.3  C143.6,181.6,139,186.2,133.3,186.2"></path>
<path id="Fill_58_4_" class="st0" d="M1239.5,103.5c-5.7,0-10.3-4.6-10.3-10.3c0-5.7,4.6-10.3,10.3-10.3c5.7,0,10.3,4.6,10.3,10.3  C1249.8,98.8,1245.2,103.5,1239.5,103.5"></path>
<path id="Fill_59_4_" class="st0" d="M1239.5,186.2c-5.7,0-10.3-4.6-10.3-10.3s4.6-10.3,10.3-10.3c5.7,0,10.3,4.6,10.3,10.3  C1249.8,181.6,1245.2,186.2,1239.5,186.2"></path>
<path id="Fill_60" class="st0" d="M10.3,351.8c-5.7,0-10.3-4.6-10.3-10.3s4.6-10.3,10.3-10.3c5.7,0,10.3,4.6,10.3,10.3  C20.7,347.2,16.1,351.8,10.3,351.8"></path>
<path id="Fill_61" class="st0" d="M10.3,434.6c-5.7,0-10.3-4.6-10.3-10.3s4.6-10.3,10.3-10.3s10.3,4.6,10.3,10.3  S16.1,434.6,10.3,434.6C10.3,434.6,10.3,434.6,10.3,434.6"></path>
<path id="Fill_62" class="st0" d="M10.3,517.3C4.6,517.3,0,512.7,0,507c0-5.7,4.6-10.3,10.3-10.3s10.3,4.6,10.3,10.3  C20.7,512.7,16.1,517.3,10.3,517.3"></path>
<path id="Fill_86" class="st0" d="M256.2,186.2c-5.7,0-10.3-4.6-10.3-10.3c0-5.7,4.6-10.3,10.3-10.3c5.7,0,10.3,4.6,10.3,10.3  C266.5,181.6,261.9,186.2,256.2,186.2"></path>
<path id="Fill_87" class="st0" d="M256.2,269c-5.7,0-10.3-4.6-10.3-10.3c0-5.7,4.6-10.3,10.3-10.3c5.7,0,10.3,4.6,10.3,10.3  C266.5,264.4,261.9,269,256.2,269"></path>
<path id="Fill_88" class="st0" d="M256.2,351.8c-5.7,0-10.3-4.6-10.3-10.3c0-5.7,4.6-10.3,10.3-10.3c5.7,0,10.3,4.6,10.3,10.3  C266.5,347.2,261.9,351.8,256.2,351.8"></path>
<path id="Fill_90" class="st0" d="M256.2,517.3c-5.7,0-10.3-4.6-10.3-10.3c0-5.7,4.6-10.3,10.3-10.3c5.7,0,10.3,4.6,10.3,10.3  C266.5,512.7,261.9,517.3,256.2,517.3"></path>
<path id="Fill_44-2" class="st0" d="M624.9,186.2c-5.7,0-10.3-4.6-10.3-10.3c0-5.7,4.6-10.3,10.3-10.3c5.7,0,10.3,4.6,10.3,10.3  C635.3,181.6,630.6,186.2,624.9,186.2"></path>
<path id="Fill_45-2" class="st0" d="M624.9,269c-5.7,0-10.3-4.6-10.3-10.3c0-5.7,4.6-10.3,10.3-10.3c5.7,0,10.3,4.6,10.3,10.3  C635.3,264.4,630.6,269,624.9,269"></path>
<path id="Fill_46-2" class="st0" d="M624.9,351.8c-5.7,0-10.3-4.6-10.3-10.3c0-5.7,4.6-10.3,10.3-10.3c5.7,0,10.3,4.6,10.3,10.3  C635.3,347.2,630.6,351.8,624.9,351.8"></path>
<path id="Fill_47-2" class="st0" d="M624.9,434.6c-5.7,0-10.3-4.6-10.3-10.3c0-5.7,4.6-10.3,10.3-10.3c5.7,0,10.3,4.6,10.3,10.3  S630.6,434.6,624.9,434.6C624.9,434.6,624.9,434.6,624.9,434.6"></path>
<path id="Fill_48-2" class="st0" d="M624.9,517.3c-5.7,0-10.3-4.6-10.3-10.3c0-5.7,4.6-10.3,10.3-10.3c5.7,0,10.3,4.6,10.3,10.3  C635.3,512.7,630.6,517.3,624.9,517.3"></path>
<path id="Fill_58-2" class="st0" d="M502,186.2c-5.7,0-10.3-4.6-10.3-10.3s4.6-10.3,10.3-10.3c5.7,0,10.3,4.6,10.3,10.3  C512.3,181.6,507.7,186.2,502,186.2"></path>
<path id="Fill_60-2" class="st0" d="M502,351.8c-5.7,0-10.3-4.6-10.3-10.3s4.6-10.3,10.3-10.3c5.7,0,10.3,4.6,10.3,10.3  C512.3,347.2,507.7,351.8,502,351.8"></path>
<path id="Fill_61-2" class="st0" d="M502,434.6c-5.7,0-10.3-4.6-10.3-10.3s4.6-10.3,10.3-10.3c5.7,0,10.3,4.6,10.3,10.3  S507.7,434.6,502,434.6C502,434.6,502,434.6,502,434.6"></path>
<path id="Fill_62-2" class="st0" d="M502,517.3c-5.7,0-10.3-4.6-10.3-10.3c0-5.7,4.6-10.3,10.3-10.3c5.7,0,10.3,4.6,10.3,10.3  C512.3,512.7,507.7,517.3,502,517.3"></path>
<path id="Fill_72" class="st0" d="M379.1,186.2c-5.7,0-10.3-4.6-10.3-10.3s4.6-10.3,10.3-10.3c5.7,0,10.3,4.6,10.3,10.3  C389.4,181.6,384.8,186.2,379.1,186.2"></path>
<path id="Fill_73" class="st0" d="M379.1,269c-5.7,0-10.3-4.6-10.3-10.3c0-5.7,4.6-10.3,10.3-10.3c5.7,0,10.3,4.6,10.3,10.3  C389.4,264.4,384.8,269,379.1,269"></path>
<path id="Fill_74" class="st0" d="M379.1,351.8c-5.7,0-10.3-4.6-10.3-10.3s4.6-10.3,10.3-10.3c5.7,0,10.3,4.6,10.3,10.3  C389.4,347.2,384.8,351.8,379.1,351.8"></path>
<path id="Fill_75" class="st0" d="M379.1,434.6c-5.7,0-10.3-4.6-10.3-10.3s4.6-10.3,10.3-10.3c5.7,0,10.3,4.6,10.3,10.3  C389.4,429.9,384.8,434.6,379.1,434.6"></path>
<path id="Fill_76" class="st0" d="M379.1,517.3c-5.7,0-10.3-4.6-10.3-10.3c0-5.7,4.6-10.3,10.3-10.3c5.7,0,10.3,4.6,10.3,10.3  C389.4,512.7,384.8,517.3,379.1,517.3"></path>
<path id="Fill_86-2" class="st0" d="M747.8,186.2c-5.7,0-10.3-4.6-10.3-10.3c0-5.7,4.6-10.3,10.3-10.3c5.7,0,10.3,4.6,10.3,10.3  C758.2,181.6,753.5,186.2,747.8,186.2"></path>
<path id="Fill_87-2" class="st0" d="M747.8,269c-5.7,0-10.3-4.6-10.3-10.3c0-5.7,4.6-10.3,10.3-10.3c5.7,0,10.3,4.6,10.3,10.3  C758.2,264.4,753.5,269,747.8,269"></path>
<path id="Fill_88-2" class="st0" d="M747.8,351.8c-5.7,0-10.3-4.6-10.3-10.3c0-5.7,4.6-10.3,10.3-10.3c5.7,0,10.3,4.6,10.3,10.3  C758.2,347.2,753.5,351.8,747.8,351.8"></path>
<path id="Fill_89" class="st0" d="M747.8,434.6c-5.7,0-10.3-4.6-10.3-10.3c0-5.7,4.6-10.3,10.3-10.3c5.7,0,10.3,4.6,10.3,10.3  C758.2,429.9,753.5,434.6,747.8,434.6"></path>
<path id="Fill_90-2" class="st0" d="M747.8,517.3c-5.7,0-10.3-4.6-10.3-10.3c0-5.7,4.6-10.3,10.3-10.3c5.7,0,10.3,4.6,10.3,10.3  C758.2,512.7,753.5,517.3,747.8,517.3"></path>
<path id="Fill_44-3" class="st0" d="M1116.6,186.2c-5.7,0-10.3-4.6-10.3-10.3s4.6-10.3,10.3-10.3c5.7,0,10.3,4.6,10.3,10.3  C1126.9,181.6,1122.3,186.2,1116.6,186.2"></path>
<path id="Fill_45-3" class="st0" d="M1116.6,269c-5.7,0-10.3-4.6-10.3-10.3c0-5.7,4.6-10.3,10.3-10.3c5.7,0,10.3,4.6,10.3,10.3  C1126.9,264.4,1122.3,269,1116.6,269"></path>
<path id="Fill_46-3" class="st0" d="M1116.6,351.8c-5.7,0-10.3-4.6-10.3-10.3s4.6-10.3,10.3-10.3c5.7,0,10.3,4.6,10.3,10.3  C1126.9,347.2,1122.3,351.8,1116.6,351.8"></path>
<path id="Fill_47-3" class="st0" d="M1116.6,434.6c-5.7,0-10.3-4.6-10.3-10.3s4.6-10.3,10.3-10.3s10.3,4.6,10.3,10.3  S1122.3,434.6,1116.6,434.6C1116.6,434.6,1116.6,434.6,1116.6,434.6"></path>
<path id="Fill_48-3" class="st0" d="M1116.6,517.3c-5.7,0-10.3-4.6-10.3-10.3c0-5.7,4.6-10.3,10.3-10.3s10.3,4.6,10.3,10.3  C1126.9,512.7,1122.3,517.3,1116.6,517.3"></path>
<path id="Fill_58-3" class="st0" d="M993.7,186.2c-5.7,0-10.3-4.6-10.3-10.3c0-5.7,4.6-10.3,10.3-10.3c5.7,0,10.3,4.6,10.3,10.3  C1004,181.6,999.4,186.2,993.7,186.2"></path>
<path id="Fill_59-2" class="st0" d="M993.7,269c-5.7,0-10.3-4.6-10.3-10.3c0-5.7,4.6-10.3,10.3-10.3c5.7,0,10.3,4.6,10.3,10.3  C1004,264.4,999.4,269,993.7,269"></path>
<path id="Fill_61-3" class="st0" d="M993.7,434.6c-5.7,0-10.3-4.6-10.3-10.3c0-5.7,4.6-10.3,10.3-10.3c5.7,0,10.3,4.6,10.3,10.3  S999.4,434.6,993.7,434.6C993.7,434.6,993.7,434.6,993.7,434.6"></path>
<path id="Fill_62-3" class="st0" d="M993.7,517.3c-5.7,0-10.3-4.6-10.3-10.3c0-5.7,4.6-10.3,10.3-10.3c5.7,0,10.3,4.6,10.3,10.3  C1004,512.7,999.4,517.3,993.7,517.3"></path>
<path id="Fill_72-2" class="st0" d="M870.7,186.2c-5.7,0-10.3-4.6-10.3-10.3c0-5.7,4.6-10.3,10.3-10.3c5.7,0,10.3,4.6,10.3,10.3  C881.1,181.6,876.5,186.2,870.7,186.2"></path>
<path id="Fill_73-2" class="st0" d="M870.7,269c-5.7,0-10.3-4.6-10.3-10.3c0-5.7,4.6-10.3,10.3-10.3c5.7,0,10.3,4.6,10.3,10.3  C881.1,264.4,876.5,269,870.7,269"></path>
<path id="Fill_74-2" class="st0" d="M870.7,351.8c-5.7,0-10.3-4.6-10.3-10.3c0-5.7,4.6-10.3,10.3-10.3c5.7,0,10.3,4.6,10.3,10.3  C881.1,347.2,876.5,351.8,870.7,351.8"></path>
<path id="Fill_75-2" class="st0" d="M870.7,434.6c-5.7,0-10.3-4.6-10.3-10.3c0-5.7,4.6-10.3,10.3-10.3c5.7,0,10.3,4.6,10.3,10.3  C881.1,429.9,876.5,434.6,870.7,434.6"></path>
<path id="Fill_76-2" class="st0" d="M870.7,517.3c-5.7,0-10.3-4.6-10.3-10.3c0-5.7,4.6-10.3,10.3-10.3c5.7,0,10.3,4.6,10.3,10.3  C881.1,512.7,876.5,517.3,870.7,517.3"></path>
<path id="Fill_86-3" class="st0" d="M1239.5,186.2c-5.7,0-10.3-4.6-10.3-10.3s4.6-10.3,10.3-10.3c5.7,0,10.3,4.6,10.3,10.3  C1249.8,181.6,1245.2,186.2,1239.5,186.2"></path>
<path id="Fill_58_5_" class="st0" d="M1239.5,20.7c-5.7,0-10.3-4.6-10.3-10.3S1233.8,0,1239.5,0c5.7,0,10.3,4.6,10.3,10.3  C1249.8,16.1,1245.2,20.7,1239.5,20.7"></path>
<path id="Fill_59_5_" class="st0" d="M1239.5,103.5c-5.7,0-10.3-4.6-10.3-10.3c0-5.7,4.6-10.3,10.3-10.3c5.7,0,10.3,4.6,10.3,10.3  C1249.8,98.8,1245.2,103.5,1239.5,103.5"></path>
<path id="Fill_86-3_1_" class="st0" d="M1239.5,103.5c-5.7,0-10.3-4.6-10.3-10.3c0-5.7,4.6-10.3,10.3-10.3c5.7,0,10.3,4.6,10.3,10.3  C1249.8,98.8,1245.2,103.5,1239.5,103.5"></path>
<path id="Fill_58_6_" class="st0" d="M1116.6,103.5c-5.7,0-10.3-4.6-10.3-10.3c0-5.7,4.6-10.3,10.3-10.3c5.7,0,10.3,4.6,10.3,10.3  C1126.9,98.8,1122.3,103.5,1116.6,103.5"></path>
<path id="Fill_59_6_" class="st0" d="M1116.6,186.2c-5.7,0-10.3-4.6-10.3-10.3s4.6-10.3,10.3-10.3c5.7,0,10.3,4.6,10.3,10.3  C1126.9,181.6,1122.3,186.2,1116.6,186.2"></path>
<path id="Fill_86-3_2_" class="st0" d="M1116.6,186.2c-5.7,0-10.3-4.6-10.3-10.3s4.6-10.3,10.3-10.3c5.7,0,10.3,4.6,10.3,10.3  C1126.9,181.6,1122.3,186.2,1116.6,186.2"></path>
<path id="Fill_87-3" class="st0" d="M1239.5,269c-5.7,0-10.3-4.6-10.3-10.3c0-5.7,4.6-10.3,10.3-10.3c5.7,0,10.3,4.6,10.3,10.3  C1249.8,264.4,1245.2,269,1239.5,269"></path>
<path id="Fill_88-3" class="st0" d="M1239.5,351.8c-5.7,0-10.3-4.6-10.3-10.3s4.6-10.3,10.3-10.3c5.7,0,10.3,4.6,10.3,10.3  C1249.8,347.2,1245.2,351.8,1239.5,351.8"></path>
<path id="Fill_89-2" class="st0" d="M1239.5,434.6c-5.7,0-10.3-4.6-10.3-10.3s4.6-10.3,10.3-10.3s10.3,4.6,10.3,10.3  C1249.8,429.9,1245.2,434.6,1239.5,434.6"></path>
<path id="Fill_90-3" class="st0" d="M1239.5,517.3c-5.7,0-10.3-4.6-10.3-10.3c0-5.7,4.6-10.3,10.3-10.3s10.3,4.6,10.3,10.3  C1249.8,512.7,1245.2,517.3,1239.5,517.3"></path>
<linearGradient id="Polygon_2_1_" gradientUnits="userSpaceOnUse" x1="-122.6875" y1="1083.8639" x2="-121.5075" y2="1082.5919" gradientTransform="matrix(75 0 0 -65 9411.3555 70840.2969)">
	<stop offset="0" style="stop-color:#AD1E22"></stop>
	<stop offset="1" style="stop-color:#EC9727"></stop>
</linearGradient>
<path id="Polygon_2" class="st1" d="M272.3,397.5l37.5,65h-75L272.3,397.5z"></path>
<path id="Polygon_3" class="st0" d="M520.3,228.5l37.5,65h-75L520.3,228.5z"></path>
<linearGradient id="Polygon_5_1_" gradientUnits="userSpaceOnUse" x1="-122.8736" y1="1084.1344" x2="-121.5396" y2="1082.5754" gradientTransform="matrix(75 0 0 -65 10147.3555 70749.2969)">
	<stop offset="0" style="stop-color:#48022A"></stop>
	<stop offset="1" style="stop-color:#D12665"></stop>
</linearGradient>
<path id="Polygon_5" class="st2" d="M1008.3,306.5l37.5,65h-75L1008.3,306.5z"></path>
<g id="Polygon_1" transform="translate(315 1954)">
	<path class="st3" d="M-57.7-1556.5l37.5,65h-75L-57.7-1556.5z"></path>
	<path class="st0" d="M-57.7-1546.4l-28.8,50h57.7L-57.7-1546.4 M-57.7-1556.5l37.5,65h-75L-57.7-1556.5z"></path>
</g>
<g id="Polygon_4" transform="translate(563 1785)">
	<path class="st4" d="M-24.5-1494h-66.3l33.2-57.5L-24.5-1494z"></path>
	<path class="st0" d="M-57.7-1546.4l-28.8,50h57.7L-57.7-1546.4 M-57.7-1556.5l37.5,65h-75L-57.7-1556.5z"></path>
</g>
<g id="Polygon_6" transform="translate(1051 1863)">
	<path class="st3" d="M-57.7-1556.5l37.5,65h-75L-57.7-1556.5z"></path>
	<path class="st0" d="M-57.7-1546.4l-28.8,50h57.7L-57.7-1546.4 M-57.7-1556.5l37.5,65h-75L-57.7-1556.5z"></path>
</g>
</svg>