<?xml version="1.0" encoding="UTF-8"?><svg width="159" height="42" viewBox="0 0 159 42" fill="none" xmlns="http://www.w3.org/2000/svg">
<path d="M69.8495 27.6994V7.02424C69.8495 3.574 67.0577 0.755859 63.5811 0.755859H7.21839C3.76815 0.755859 0.950012 3.54766 0.950012 7.02424V27.6994C0.950012 31.1496 3.74181 33.9677 7.21839 33.9677H48.0155L59.0774 41.3423L56.865 33.9677H63.6075C67.0314 33.9677 69.8495 31.1496 69.8495 27.6994Z" fill="#87888B"/>
<path d="M12.8283 21.5356C13.1444 22.115 13.5921 22.5627 14.1189 22.8261C14.672 23.1422 15.2514 23.2739 15.9362 23.2739C16.621 23.2739 17.2267 23.1158 17.7535 22.7998C18.3066 22.4837 18.7543 22.036 19.044 21.4566C19.3601 20.8771 19.5445 20.2187 19.5445 19.4549V10.1577C19.5445 10.026 19.5971 9.92063 19.6761 9.84162C19.7552 9.76261 19.8605 9.70993 19.9922 9.70993H22.2572C22.3889 9.70993 22.5206 9.76261 22.5996 9.84162C22.6523 9.8943 22.6786 9.94697 22.705 9.97331C22.7313 10.026 22.7577 10.105 22.7313 10.1577V19.4286C22.7313 20.9035 22.4153 22.1413 21.8095 23.1685C21.2037 24.1693 20.3873 24.9068 19.3601 25.3809C18.3329 25.8813 17.1741 26.092 15.9362 26.092C14.6983 26.092 13.5395 25.855 12.5123 25.3545C11.4851 24.8541 10.6686 24.1167 10.0629 23.1158C9.4571 22.115 9.14105 20.8771 9.14105 19.4022V10.1577C9.14105 10.026 9.19373 9.94697 9.27274 9.84162C9.32542 9.78894 9.35175 9.76261 9.40443 9.73627C9.4571 9.70993 9.50978 9.68359 9.56246 9.68359H11.9329C12.0645 9.68359 12.1962 9.73627 12.2489 9.81528C12.3016 9.8943 12.3543 9.99965 12.3543 10.1313V19.4286C12.3543 20.2714 12.5123 20.9561 12.8283 21.5356Z" fill="white"/>
<path d="M47.8048 21.9838C47.9365 21.9838 48.0155 22.0365 48.0682 22.1155L49.1744 23.4851C49.2534 23.6168 49.3061 23.6958 49.3061 23.8011C49.3061 23.9328 49.2534 24.0118 49.1481 24.1172C48.3316 24.8283 47.5415 25.3287 46.725 25.6711C45.9349 25.9872 45.0657 26.1452 44.1439 26.1452C42.906 26.1452 41.7208 25.8291 40.641 25.197C39.5348 24.5386 38.6657 23.6958 38.0072 22.5896C37.3488 21.4834 37.0327 20.3246 37.0327 19.034C37.0327 17.7435 37.3488 16.5319 37.9545 15.4521C38.5603 14.3459 39.4031 13.5031 40.483 12.8446C41.5628 12.1862 42.748 11.8965 44.0912 11.8965C45.1711 11.8965 46.2246 12.1599 47.2781 12.6866C48.3316 13.2134 49.2007 14.0035 49.9119 15.0834C50.5966 16.1632 50.939 17.4801 50.939 19.034C50.939 19.3764 50.8864 19.6398 50.8073 19.7978C50.7283 19.9558 50.5966 20.0612 50.4913 20.0875C50.3596 20.1402 50.1226 20.1402 49.8328 20.1402H40.0879C40.2196 20.7986 40.5093 21.3517 40.9044 21.8521C41.2994 22.3526 41.7735 22.7213 42.3529 22.9847C42.9324 23.248 43.5381 23.3797 44.1702 23.3797C44.6707 23.3797 45.0921 23.3271 45.4871 23.2217C45.8559 23.1164 46.1456 23.011 46.4089 22.853C46.6987 22.695 46.962 22.5106 47.1991 22.2999L47.5151 22.0629C47.6205 21.9838 47.7258 21.9838 47.8048 21.9838Z" fill="white"/>
<path d="M42.4319 14.9253C41.9052 15.1886 41.4574 15.5574 41.0624 16.0051C40.6673 16.4529 40.4039 16.9533 40.1932 17.5327H47.9365C47.6205 16.6372 47.0937 15.8998 46.4353 15.3467C45.7768 14.7936 44.9604 14.5302 44.0912 14.5302C43.5118 14.5039 42.9587 14.6619 42.4319 14.9253Z" fill="#87888B"/>
<path d="M24.8647 23.1426C24.8647 23.1953 24.891 23.2743 24.9174 23.3533C24.97 23.4323 24.9964 23.5113 25.049 23.5903C25.5495 24.3805 26.2606 25.0126 27.1034 25.4603C27.9462 25.908 28.9207 26.1187 30.0005 26.1187C30.8433 26.1187 31.6862 25.9607 32.4763 25.6447C33.2664 25.3286 33.8985 24.8545 34.3989 24.1961C34.8994 23.564 35.1364 22.8002 35.1364 21.8784C35.1364 20.9565 34.8203 20.0611 34.2146 19.2973C33.6088 18.5335 32.687 17.9804 31.4491 17.5853C31.2911 17.5326 31.1331 17.48 31.0014 17.4536C30.8697 17.401 30.738 17.3746 30.6326 17.3483C30.0269 17.1903 29.5791 17.0322 29.2894 16.9269C28.9997 16.7952 28.7627 16.6635 28.6046 16.5055C28.4203 16.3211 28.3413 16.1104 28.3413 15.7944C28.3413 15.3993 28.4993 15.1096 28.8417 14.8725C29.1577 14.6355 29.6055 14.5038 30.1849 14.5038C30.7643 14.5038 31.1857 14.6092 31.5545 14.7935C31.9232 14.9779 32.2656 15.2939 32.608 15.6627C32.7397 15.7944 32.8187 15.8734 32.9504 15.8734C33.0294 15.8734 33.1347 15.8207 33.2401 15.7417L34.5306 14.6882C34.6623 14.5565 34.7413 14.4775 34.7413 14.3721C34.7413 14.2931 34.6887 14.1614 34.5833 14.0034C34.0829 13.3976 33.4771 12.8709 32.766 12.4495C32.0285 12.0281 31.1594 11.8174 30.1322 11.8174C29.1841 11.8174 28.3413 12.0017 27.6038 12.3968C26.8664 12.7918 26.3133 13.2659 25.9182 13.8717C25.5231 14.4775 25.3388 15.0832 25.3388 15.7153C25.3388 16.4791 25.4705 17.1639 25.7865 17.717C26.1026 18.2701 26.5503 18.7442 27.1561 19.1129C27.7618 19.508 28.552 19.8504 29.5528 20.1401C29.9742 20.2718 30.2376 20.3508 30.3166 20.3508C30.817 20.4825 31.1594 20.6142 31.3964 20.7195C31.6335 20.8249 31.8178 20.9302 31.9495 21.1146C32.0812 21.2989 32.1602 21.536 32.1602 21.8784C32.1602 22.1944 32.0285 22.4578 31.8178 22.7212C31.5808 22.9582 31.2911 23.1426 30.9224 23.3006C30.58 23.4323 30.1849 23.5113 29.8162 23.5113C29.2104 23.5113 28.71 23.3796 28.2886 23.0899C27.8935 22.8002 27.4985 22.4315 27.1561 21.931C27.0244 21.773 26.919 21.694 26.761 21.694C26.682 21.694 26.603 21.7467 26.524 21.773L25.1281 22.7739C24.9174 22.8792 24.8647 22.9846 24.8647 23.1426ZM55.4428 12.0017H53.8889C53.5991 12.0017 53.4674 12.1597 53.4674 12.4758V25.434C53.4674 25.75 53.5991 25.8817 53.8889 25.8817H56.1276C56.4436 25.8817 56.5753 25.75 56.5753 25.434V17.8224C56.5753 17.1376 56.707 16.5581 56.9704 16.0841C57.2337 15.61 57.5498 15.2676 57.9975 15.0569C58.3926 14.8462 58.8403 14.7145 59.3144 14.7145C59.7885 14.7145 60.2099 14.7935 60.605 14.9515C61 15.1359 61.3951 15.3466 61.7638 15.5836C61.8955 15.6627 62.0009 15.7153 62.1062 15.7153C62.2379 15.7153 62.3169 15.6627 62.4223 15.531L63.4494 14.0824C63.5285 13.977 63.5811 13.8717 63.5811 13.7663C63.5811 13.6347 63.5021 13.4766 63.3441 13.3186C62.949 12.9762 62.4223 12.6338 61.7638 12.2914C61.1317 11.9754 60.4469 11.791 59.6832 11.791C58.9984 11.791 58.3663 11.949 57.7868 12.2914C57.2074 12.6075 56.7597 13.0552 56.3909 13.661L56.1802 12.4495C56.1276 12.2388 56.0749 12.0807 55.9695 12.0281C55.7852 12.0281 55.6535 12.0017 55.4428 12.0017Z" fill="white"/>
<path d="M73.8528 9.73622H85.4678C85.7575 9.73622 85.8892 9.86791 85.8892 10.1576V12.212C85.8892 12.5017 85.7575 12.6597 85.4678 12.6597H81.1747V25.4335C81.1747 25.7232 81.043 25.8549 80.7533 25.8549H78.4093C78.1195 25.8549 77.9879 25.7232 77.9879 25.4335V12.6334H73.8265C73.5368 12.6334 73.4051 12.5017 73.4051 12.1856V10.1576C73.4051 9.89425 73.5631 9.73622 73.8528 9.73622ZM96.2662 21.9833C96.3979 21.9833 96.4769 22.0359 96.5296 22.115L97.6358 23.4845C97.7148 23.6162 97.7675 23.6952 97.7675 23.8006C97.7675 23.9323 97.7148 24.0113 97.6095 24.1166C96.793 24.8277 96.0029 25.3282 95.1864 25.6706C94.3699 25.9866 93.5271 26.1446 92.6053 26.1446C91.3674 26.1446 90.1822 25.8286 89.1024 25.1965C87.9962 24.538 87.127 23.6952 86.4686 22.589C85.8102 21.4829 85.4941 20.324 85.4941 19.0334C85.4941 17.7429 85.8102 16.5314 86.4159 15.4515C87.0217 14.3453 87.8645 13.5025 88.9443 12.8441C90.0242 12.1856 91.2094 11.8959 92.5526 11.8959C93.6325 11.8959 94.7123 12.1593 95.7395 12.6861C96.793 13.2128 97.6621 14.0029 98.3732 15.0828C99.058 16.1626 99.4004 17.4795 99.4004 19.0334C99.4004 19.3758 99.3477 19.6392 99.2687 19.7972C99.1897 19.9553 99.058 20.0606 98.9527 20.087C98.821 20.1396 98.584 20.1396 98.2942 20.1396H88.5493C88.681 20.7981 88.9707 21.3512 89.3658 21.8516C89.7608 22.352 90.2349 22.7207 90.8143 22.9841C91.3938 23.2475 91.9995 23.3792 92.658 23.3792C93.1584 23.3792 93.5798 23.3265 93.9749 23.2211C94.3436 23.1158 94.6333 23.0104 94.8967 22.8524C95.1864 22.6944 95.4498 22.51 95.6868 22.2993L96.0029 22.0623C96.0819 21.9833 96.1872 21.9833 96.2662 21.9833ZM90.867 14.9248C90.3402 15.1881 89.8925 15.5569 89.4974 16.0046C89.1024 16.4523 88.839 16.9528 88.6283 17.5322H96.3979C96.0819 16.6367 95.5551 15.8993 94.8967 15.3462C94.2382 14.7931 93.4218 14.5297 92.5263 14.5297C91.9732 14.5034 91.3674 14.6614 90.867 14.9248ZM100.349 23.3265C100.322 23.2738 100.296 23.1948 100.296 23.1158C100.296 22.9841 100.349 22.8524 100.48 22.7207L101.85 21.6672C101.903 21.6145 101.982 21.5619 102.087 21.5882C102.219 21.5882 102.377 21.6672 102.482 21.8252C102.824 22.3257 103.219 22.6944 103.614 22.9841C104.01 23.2738 104.536 23.4055 105.142 23.4055C105.537 23.4055 105.906 23.3528 106.248 23.1948C106.617 23.0631 106.907 22.8788 107.144 22.6154C107.354 22.3783 107.486 22.0886 107.486 21.7726C107.486 21.4565 107.433 21.1931 107.275 21.0088C107.144 20.8244 106.959 20.6927 106.722 20.6137C106.485 20.5347 106.143 20.403 105.642 20.245C105.563 20.2186 105.326 20.166 104.879 20.0343C103.878 19.7182 103.088 19.3758 102.482 19.0071C101.876 18.612 101.428 18.1643 101.112 17.6112C100.796 17.0581 100.665 16.3997 100.665 15.6095C100.665 14.9774 100.875 14.3717 101.244 13.7659C101.639 13.1601 102.192 12.6597 102.93 12.291C103.667 11.8959 104.484 11.7116 105.458 11.7116C106.485 11.7116 107.381 11.9223 108.092 12.3437C108.829 12.7651 109.435 13.2655 109.909 13.8976C110.041 14.0293 110.067 14.161 110.067 14.2663C110.067 14.3717 109.988 14.477 109.856 14.5824L108.566 15.6359C108.434 15.7149 108.355 15.7676 108.276 15.7676C108.171 15.7676 108.066 15.6886 107.934 15.5569C107.618 15.1618 107.249 14.8984 106.88 14.6877C106.512 14.5034 106.038 14.398 105.511 14.398C104.931 14.398 104.484 14.5297 104.168 14.7667C103.851 15.0038 103.667 15.3198 103.667 15.6886C103.667 16.0046 103.746 16.2153 103.931 16.3997C104.115 16.584 104.326 16.7157 104.615 16.8211C104.905 16.9528 105.379 17.0581 105.959 17.2425C106.09 17.2688 106.196 17.2952 106.327 17.3478C106.459 17.4005 106.617 17.4268 106.775 17.4795C108.013 17.8482 108.935 18.4013 109.54 19.1915C110.146 19.9816 110.462 20.8244 110.462 21.7726C110.462 22.6681 110.225 23.4318 109.725 24.0903C109.224 24.7224 108.592 25.1965 107.802 25.5389C107.012 25.8549 106.169 26.0393 105.326 26.0129C104.247 26.0129 103.272 25.8022 102.429 25.3545C101.586 24.9068 100.902 24.2747 100.375 23.4845C100.428 23.4845 100.375 23.4055 100.349 23.3265ZM117.995 12.1066C118.311 12.1066 118.469 12.2646 118.469 12.5807V14.3717C118.469 14.5034 118.416 14.635 118.337 14.7141C118.232 14.7931 118.127 14.8457 117.969 14.8457H116.415V21.6145C116.415 22.115 116.494 22.4837 116.678 22.7997C116.862 23.0895 117.178 23.2475 117.6 23.2738L117.942 23.3002C118.179 23.3265 118.337 23.3792 118.416 23.5109C118.495 23.6425 118.522 23.7742 118.495 23.9059V25.4599C118.495 25.8286 118.206 26.0129 117.652 26.0129C116.81 26.0129 116.046 25.8549 115.387 25.5125C114.729 25.1965 114.202 24.7224 113.833 24.1166C113.465 23.5109 113.28 22.7997 113.28 21.9833V14.8984H112.016C111.885 14.8984 111.779 14.8457 111.7 14.7667C111.595 14.6877 111.568 14.556 111.568 14.4243V12.6597C111.568 12.5017 111.621 12.37 111.7 12.2646C111.779 12.1856 111.911 12.133 112.016 12.133H113.28V9.81524C113.28 9.65721 113.307 9.55186 113.359 9.47285C113.412 9.39383 113.544 9.34116 113.702 9.28848L115.914 8.63004C115.967 8.6037 115.993 8.6037 116.046 8.6037C116.099 8.6037 116.151 8.63004 116.178 8.65638C116.23 8.68272 116.257 8.70905 116.283 8.76173C116.336 8.84074 116.362 8.97243 116.362 9.10412V12.0803L117.995 12.1066ZM121.445 7.02344H123.341C123.736 7.02344 123.947 7.23414 123.947 7.70822V9.63087C123.947 9.84158 123.895 10.0259 123.815 10.105C123.736 10.184 123.552 10.2366 123.341 10.2366H121.445C120.997 10.2366 120.787 10.0259 120.787 9.63087V7.70822C120.76 7.26048 120.997 7.02344 121.445 7.02344ZM120.997 12.1066C121.076 12.0276 121.182 11.9749 121.313 11.9749H123.605C123.736 11.9749 123.815 12.0276 123.921 12.1066C124 12.1856 124.053 12.291 124.053 12.4227V25.4072C124.053 25.6969 123.921 25.8549 123.631 25.8549H121.34C121.05 25.8549 120.918 25.7232 120.918 25.4072V12.449C120.866 12.291 120.918 12.1856 120.997 12.1066ZM129.373 25.7496C129.241 25.8286 129.083 25.8813 128.951 25.8813H126.95C126.634 25.8813 126.476 25.7232 126.476 25.4072V12.449C126.476 12.133 126.634 11.9749 126.95 11.9749H128.425C128.556 11.9749 128.741 12.0276 128.82 12.133C128.951 12.2383 129.03 12.37 129.057 12.528L129.241 14.082C129.768 13.3182 130.4 12.7914 131.164 12.4227C131.928 12.0539 132.718 11.8696 133.56 11.8696C134.403 11.8696 135.22 12.0803 136.01 12.5017C136.8 12.9231 137.458 13.5815 137.985 14.4507C138.486 15.3198 138.749 16.426 138.749 17.7166V25.3808C138.749 25.6969 138.617 25.8286 138.328 25.8286H136.142C135.825 25.8286 135.667 25.6969 135.667 25.3808V17.8219C135.667 17.2952 135.536 16.7947 135.272 16.347C135.009 15.8993 134.64 15.5042 134.193 15.2145C133.718 14.9248 133.218 14.7931 132.639 14.7931C132.138 14.7931 131.664 14.9248 131.19 15.1881C130.69 15.4515 130.321 15.8202 130.005 16.2943C129.689 16.7947 129.531 17.3478 129.531 17.9799V25.3545C129.557 25.5389 129.504 25.6442 129.373 25.7496ZM153.84 27.1718C153.235 28.278 152.418 29.0945 151.365 29.6739C150.311 30.2533 149.1 30.5167 147.73 30.5167C146.808 30.5167 145.913 30.3587 145.044 30.0426C144.148 29.7266 143.384 29.3052 142.779 28.7784C142.647 28.6731 142.594 28.5677 142.594 28.4624C142.594 28.3833 142.647 28.278 142.726 28.1463L143.648 26.8294C143.753 26.6977 143.858 26.6187 144.043 26.6187C144.175 26.6187 144.28 26.6714 144.438 26.7504C145.386 27.4088 146.571 27.7512 148.02 27.7512C148.757 27.7512 149.389 27.5932 149.969 27.2508C150.548 26.9348 150.996 26.487 151.312 25.9076C151.628 25.3282 151.812 24.6961 151.812 23.9586V23.9059C151.207 24.5644 150.548 25.0384 149.89 25.3808C149.231 25.6969 148.415 25.8813 147.519 25.8813C146.308 25.8813 145.175 25.5915 144.148 24.9858C143.095 24.4063 142.252 23.5635 141.62 22.51C140.988 21.4565 140.672 20.245 140.698 18.9018C140.698 17.6375 141.014 16.4523 141.62 15.3988C142.252 14.319 143.095 13.4498 144.148 12.7914C145.202 12.133 146.334 11.8169 147.519 11.8169C149.258 11.8169 150.733 12.4753 151.971 13.8186L152.155 12.528C152.181 12.3173 152.234 12.1856 152.313 12.1066C152.392 12.0276 152.524 11.9749 152.682 11.9749H154.42C154.683 11.9749 154.815 12.133 154.815 12.449V23.1158C154.736 24.7487 154.42 26.0656 153.84 27.1718ZM151.259 16.7947C150.891 16.1363 150.417 15.6095 149.784 15.2408C149.152 14.8457 148.468 14.6614 147.677 14.6614C146.887 14.6614 146.15 14.8721 145.518 15.2408C144.886 15.6359 144.412 16.1626 144.043 16.8211C143.7 17.4795 143.516 18.1906 143.516 19.0071C143.516 19.8236 143.7 20.561 144.069 21.2195C144.438 21.8779 144.938 22.3783 145.57 22.7471C146.203 23.1158 146.914 23.3002 147.677 23.3002C148.441 23.3002 149.152 23.1158 149.758 22.7207C150.364 22.3257 150.864 21.7989 151.233 21.1668C151.575 20.5084 151.76 19.7972 151.76 19.0071C151.786 18.1643 151.602 17.4532 151.259 16.7947ZM157.37 12.0013C156.501 12.0013 155.789 12.7124 155.789 13.5815C155.789 14.4507 156.501 15.1618 157.37 15.1618C158.239 15.1618 158.95 14.4507 158.95 13.5815C158.95 12.7124 158.239 12.0013 157.37 12.0013ZM157.37 14.8457C156.711 14.8457 156.132 14.2663 156.132 13.5815C156.132 12.8968 156.711 12.3173 157.37 12.3173C158.028 12.3173 158.608 12.8704 158.608 13.5815C158.608 14.2927 158.028 14.8457 157.37 14.8457ZM156.764 12.7387C156.764 12.7387 156.79 12.7124 156.817 12.7124H157.554C157.659 12.7124 157.765 12.7387 157.844 12.7914C157.923 12.8441 157.976 12.9231 158.055 13.0021C158.107 13.0811 158.134 13.1865 158.134 13.2918C158.134 13.3972 158.107 13.4762 158.055 13.5815C158.002 13.6605 157.923 13.7396 157.844 13.7922L158.16 14.4243V14.477H157.765C157.765 14.477 157.738 14.4507 157.738 14.4243L157.449 13.8449H157.106V14.398C157.106 14.4507 157.08 14.4507 157.054 14.4507H156.817C156.764 14.4507 156.764 14.4243 156.764 14.398V12.7387C156.746 12.7387 156.746 12.7387 156.764 12.7387ZM157.08 13.5552H157.449C157.501 13.5552 157.554 13.5289 157.58 13.5025C157.633 13.4762 157.659 13.4498 157.686 13.3972C157.712 13.3445 157.738 13.3182 157.738 13.2655C157.738 13.2128 157.712 13.1601 157.686 13.1338C157.659 13.0811 157.633 13.0548 157.58 13.0284C157.528 13.0021 157.501 12.9758 157.449 12.9758H157.08V13.5552Z" fill="#87888B"/>
</svg>
