<?xml version="1.0" encoding="UTF-8"?><svg width="168" height="41" viewBox="0 0 168 41" fill="none" xmlns="http://www.w3.org/2000/svg">
<path fill-rule="evenodd" clip-rule="evenodd" d="M1.95085 11.7633C1.77347 14.3991 1.8471 16.8334 1.91194 19.3695C2.86765 18.5329 3.41634 17.7262 3.45385 16.7869C3.5173 15.2097 3.47121 13.6279 3.47121 11.924C2.99794 11.8739 2.56398 11.828 1.95085 11.7633ZM20.4455 11.9423C20.4455 13.5078 20.4174 14.863 20.4539 16.2165C20.4876 17.4571 21.0263 18.4815 21.9603 19.3394C22.3962 17.6335 22.3011 12.8301 21.7745 11.7731C21.3767 11.8237 20.9417 11.8791 20.4455 11.9423ZM15.661 24.2846C15.6754 24.5673 15.6885 24.8215 15.7007 25.0644C17.5674 25.24 20.5934 25.1735 21.4021 24.9472C22.0254 25.4172 22.0312 25.5451 21.5226 26.017C20.8715 25.9639 20.2869 25.8825 19.7013 25.8752C18.1736 25.8555 16.6451 25.8684 15.0237 25.8684C14.3775 26.4293 13.6931 27.0236 12.9878 27.6355C13.7079 28.7553 12.9122 29.9176 13.0808 31.1115C14.7939 30.8521 16.3897 29.7154 18.1441 30.6016C18.2817 31.0807 18.399 31.4899 18.5417 31.9878C19.4416 32.327 20.3871 32.7056 21.3484 33.0405C22.8977 33.5805 23.4154 33.6123 23.4262 35.8703C23.4276 36.1677 23.4655 36.4658 23.4513 36.7619C23.423 37.3476 23.1291 37.7006 22.5978 37.8305C22.0278 37.9699 21.4837 37.7761 21.1971 37.331C20.9326 36.9208 20.9352 36.3222 21.2434 35.9412C21.4068 35.7394 21.6303 35.5859 21.7774 35.4544C21.7905 35.3031 21.8161 35.2322 21.7977 35.1756C21.7367 34.9905 21.6596 34.8107 21.6102 34.6838C18.9962 33.3638 16.2719 32.8859 13.3196 32.8998C12.899 34.6844 13.1877 36.4801 12.728 38.123C13.5588 38.818 13.5588 38.818 13.8318 39.7634C13.7043 40.06 13.5523 40.4139 13.4337 40.6898C12.8005 40.9698 12.3591 40.8149 12.073 40.5313C11.6061 40.6725 11.2189 40.7897 10.8924 40.8884C9.89781 39.8429 10.0199 39.0798 11.3256 38.1268C11.2306 37.6875 11.1111 37.1897 11.0187 36.687C10.9601 36.3673 10.9234 36.0406 10.9096 35.7158C10.8821 35.0548 10.9064 34.3906 10.8483 33.733C10.8224 33.4395 10.6492 33.1586 10.5465 32.8822C7.62406 32.9425 4.90098 33.3416 2.32934 34.7273C2.3058 34.9186 2.27448 35.1728 2.24654 35.4008C3.0556 36.1488 3.19886 36.5703 2.88222 37.2043C2.60887 37.7518 2.1386 37.9636 1.46382 37.8434C0.980974 37.7576 0.508706 37.3365 0.524069 36.8354C0.549807 35.9837 0.630414 35.1263 0.784445 34.289C0.879617 33.7733 1.33253 33.4971 1.83034 33.3209C3.01171 32.9028 4.18729 32.4672 5.42912 32.0154C5.54684 31.6148 5.67493 31.1788 5.8138 30.7063C6.49437 30.0684 7.34453 30.2479 8.14082 30.3824C8.85132 30.5021 9.53468 30.7782 10.2322 30.9776C10.414 31.0297 10.6039 31.0533 10.917 31.1149C10.8266 30.0715 10.7432 29.1063 10.6588 28.1275C10.8535 27.9608 11.0201 27.8182 11.1969 27.6671C10.2935 27.2311 9.82319 26.2931 8.73261 25.9018C6.59433 25.7433 3.46941 25.8229 2.48457 26.0793C1.94826 25.5187 1.94806 25.5077 2.39978 25.0344C3.32795 25.0698 4.18111 25.1174 5.03486 25.1311C6.0642 25.1474 7.09413 25.1349 8.19749 25.1349C8.2342 24.8459 8.26971 24.5687 8.30164 24.3172C8.00894 24.0435 7.74976 23.801 7.41636 23.4892C5.73898 23.9639 4.74017 22.7041 3.50952 21.7402H1.60069C1.37623 21.1052 1.5121 20.5949 1.98517 20.0531C1.58014 19.9874 1.27766 19.9383 0.831732 19.866C0.735762 19.5957 0.527461 19.2763 0.523271 18.9542C0.494939 16.771 0.489951 14.5868 0.522473 12.4034C0.532648 11.7277 0.78225 11.0828 1.40556 10.7187C1.7655 10.5086 2.17731 10.3803 2.63421 10.592C3.04802 10.7841 3.50413 10.886 4.0163 11.0516C4.24954 10.1662 4.0997 9.28811 4.12524 8.42433C4.15178 7.53194 4.13223 6.63797 4.13243 5.7446C4.13282 4.85122 4.13302 3.95784 4.13302 3.06446C4.13322 2.17923 4.13302 1.2938 4.13302 0.363281H19.8119V11.1126C20.5359 10.8681 21.1449 10.6625 21.7265 10.4663C23.0661 10.8286 23.4376 11.2769 23.4517 12.636C23.4715 14.555 23.4597 16.4743 23.4593 18.3933C23.4589 19.7909 23.412 19.8454 22.1676 20.0247C22.2913 20.5433 22.417 21.0694 22.5665 21.6961H20.588C19.8055 22.3003 19.0732 22.8655 18.26 23.4934H16.6341C16.2787 23.7825 16.002 24.0074 15.661 24.2846Z" fill="#D6D9D0"/>
<path fill-rule="evenodd" clip-rule="evenodd" d="M76.5016 16.1256L76.5017 16.1256C77.0685 16.1387 77.6071 16.1512 78.1395 16.1005C79.9097 15.9323 81.2874 15.2431 81.7329 13.2705C82.2076 11.1695 81.4197 9.39406 79.3329 8.8572C78.1616 8.55601 76.9538 8.63153 75.7346 8.70776L75.6826 8.71102V16.1131C75.9633 16.1131 76.2356 16.1194 76.5016 16.1256ZM75.6611 18.4581V28.2209H72.9214V6.38241C73.3285 6.38241 73.7341 6.38005 74.1388 6.37771C75.0597 6.37237 75.9754 6.36706 76.8905 6.38956C77.1167 6.39514 77.3434 6.39906 77.5703 6.40298C78.5706 6.42027 79.575 6.43763 80.5534 6.5979C83.2774 7.0442 84.5933 9.14933 84.806 11.4992C84.8934 12.4666 84.7649 13.4142 84.4113 14.3163C83.8561 15.7347 82.7569 16.5849 81.3606 17.1027C81.252 17.1432 81.1444 17.1861 80.9818 17.2508L80.9818 17.2508L80.9817 17.2509C80.8857 17.2891 80.7705 17.335 80.6246 17.3925C82.0815 17.7365 82.5881 18.6841 82.9636 19.7787C83.5799 21.5744 84.2107 23.3652 84.8414 25.1561L84.8418 25.1571L84.8424 25.1588L84.8426 25.1594L84.8428 25.1601L84.8431 25.1608L84.8433 25.1615L84.8436 25.1621L84.8438 25.1628L84.844 25.1635L84.8443 25.1642L84.8445 25.1648L84.8448 25.1655C85.1418 26.0089 85.4388 26.8522 85.7344 27.6961C85.7696 27.797 85.7966 27.9008 85.828 28.0222L85.8281 28.0224L85.8281 28.0225C85.8443 28.0851 85.8618 28.1525 85.8822 28.2264H82.9071C82.8628 28.1082 82.8158 27.9863 82.7677 27.8615L82.7676 27.8613C82.6609 27.5843 82.5488 27.2933 82.4482 26.9984C82.1241 26.0469 81.802 25.0948 81.4799 24.1427L81.4789 24.1395L81.4778 24.1363L81.4767 24.1332C81.1254 23.0946 80.7741 22.056 80.4201 21.0183C80.3554 20.8287 80.2738 20.6448 80.1922 20.4609C80.1535 20.3736 80.1148 20.2864 80.0779 20.1986C79.6256 19.1199 78.8193 18.5197 77.6419 18.4633C77.2175 18.4429 76.7917 18.4478 76.3348 18.453C76.1183 18.4555 75.8948 18.4581 75.6611 18.4581ZM43.1695 28.2399L43.8624 24.8855H33.9613C34.0191 24.8006 34.068 24.7248 34.1124 24.656L34.1125 24.6559L34.1125 24.6558C34.1962 24.5261 34.2638 24.4213 34.3446 24.3277C35.0371 23.5267 35.7335 22.7291 36.4348 21.9356C37.3694 20.8786 38.3044 19.8219 39.2393 18.7652L39.2479 18.7555C41.7551 15.9217 44.2624 13.0879 46.764 10.2492C46.9522 10.0353 47.1222 9.76519 47.1894 9.49388C47.3702 8.76475 47.5264 8.02963 47.6852 7.28191C47.7449 7.00065 47.805 6.7176 47.867 6.43241H32.7171L32.4313 7.75977L31.9689 9.9076H41.4606C41.3089 10.0892 41.1695 10.2582 41.0377 10.4181L41.0377 10.4181L41.0376 10.4182C40.7724 10.7399 40.5375 11.0248 40.2933 11.3015C38.8103 12.9836 37.3266 14.6651 35.8428 16.3466L35.8428 16.3467C33.4705 19.0351 31.0982 21.7235 28.7289 24.4145C28.5601 24.6066 28.3817 24.8348 28.3264 25.0734C28.1494 25.837 27.9961 26.6059 27.8402 27.3881C27.7839 27.6702 27.7274 27.954 27.6692 28.2399H43.1695ZM65.4823 18.4482L65.4823 18.4487C65.4841 18.5406 65.4859 18.6319 65.49 18.7221C65.3844 20.3255 65.0758 21.8699 64.2442 23.2575C63.5947 24.3413 62.7142 25.1348 61.3842 25.3352C59.8898 25.5602 58.7102 24.9175 58.3465 23.466C58.1418 22.6487 58.0614 21.7621 58.1292 20.9231C58.2809 19.0458 58.8742 17.3149 60.2996 15.9714C61.0079 15.3043 61.8555 14.9573 62.83 15.0626C64.3136 15.223 65.218 16.2038 65.4463 17.8408C65.4744 18.0421 65.4784 18.2466 65.4823 18.4482ZM56.4688 28.1619L56.9172 25.9968C57.9725 27.7502 58.7057 28.3983 60.2061 28.6013C63.0645 28.9882 65.5377 28.1921 67.4194 25.939C68.9065 24.158 69.6439 22.0442 69.8496 19.7698C69.998 18.1263 70.0204 16.4632 69.2861 14.9039C68.5699 13.3821 67.4438 12.3161 65.7676 11.9731C64.9653 11.8089 64.1231 11.7642 63.3019 11.7831C61.9972 11.813 60.8561 12.3132 59.9128 13.2278C59.7539 13.3819 59.5963 13.5372 59.4019 13.7288L59.4015 13.7293L59.4014 13.7294L59.4009 13.7298L59.4008 13.7299C59.3018 13.8275 59.1932 13.9346 59.07 14.0556L59.4924 12.1964H55.4848C54.7268 16.0592 53.9212 19.9091 53.1143 23.7658C52.3416 27.4587 51.5676 31.1578 50.8328 34.8804H55.0774C55.5405 32.6435 56.0012 30.4194 56.4688 28.1619ZM131.132 12.2963H128.424V13.3635C128.424 14.0643 128.424 14.7652 128.425 15.4661V15.4721C128.426 17.5136 128.427 19.5553 128.42 21.5969C128.418 22.1235 128.406 22.657 128.32 23.1745C128.15 24.207 127.783 25.1401 126.828 25.7379C124.848 26.9781 122.803 26.0342 122.517 23.7311C122.469 23.3396 122.456 22.9416 122.456 22.5463C122.452 20.206 122.453 17.8658 122.453 15.5255L122.453 13.3208V12.3096H119.727V13.3216L119.727 15.394C119.727 17.8776 119.727 20.3611 119.729 22.8446C119.729 22.9354 119.728 23.0264 119.728 23.1174C119.725 23.4899 119.723 23.8632 119.761 24.232C119.991 26.4406 120.964 27.8381 122.982 28.3743C123.394 28.484 123.832 28.5372 124.259 28.5465C125.806 28.5805 127.126 28.1016 128.053 26.7919C128.137 26.6737 128.224 26.5577 128.33 26.4166C128.383 26.3457 128.441 26.2684 128.506 26.1812L128.67 28.2152H131.132V12.2963ZM149.502 19.0332H155.837C155.937 17.7969 155.735 16.6721 155.229 15.6105C154.851 14.8172 154.222 14.3062 153.336 14.1606C151.922 13.9284 150.765 14.5171 150.145 15.8071C149.665 16.8044 149.485 17.8703 149.502 19.0332ZM158.531 21.1209H149.488C149.488 22.3658 149.638 23.5172 150.215 24.586C151.062 26.1545 152.849 26.7807 154.779 26.3562C155.404 26.2187 156.004 25.9686 156.634 25.7062C156.928 25.5835 157.229 25.4582 157.542 25.3405C157.656 25.7836 157.658 26.2567 157.66 26.7662C157.662 27.0368 157.663 27.3176 157.681 27.6097C157.539 27.6603 157.397 27.7126 157.254 27.7651C156.947 27.8782 156.638 27.9919 156.324 28.09C154.845 28.5514 153.324 28.688 151.806 28.4227C149.717 28.0578 148.25 26.8262 147.491 24.8674C146.337 21.8862 146.354 18.8547 147.425 15.8578C148.018 14.2017 149.113 12.9085 150.855 12.38C153.794 11.4888 157.059 12.1703 158.219 16.4971C158.615 17.9711 158.627 19.4919 158.531 21.1209ZM95.5992 19.0396H89.2456L89.2505 18.9839C89.3588 17.752 89.4583 16.6203 90.0445 15.6036C90.5345 14.7537 91.231 14.1978 92.2556 14.1332C93.6961 14.0426 94.6804 14.6468 95.1967 15.9877C95.568 16.9518 95.7071 17.9542 95.5992 19.0396ZM97.3528 27.6229V25.1946C97.2295 25.2628 97.1188 25.3247 97.0163 25.3822C96.8201 25.4921 96.6535 25.5853 96.4845 25.6736C95.4408 26.2196 94.3462 26.5591 93.1489 26.4661C91.8967 26.3684 90.8385 25.9201 90.1387 24.8194C89.4242 23.6954 89.3321 22.4418 89.2734 21.0908H98.3752C98.3752 20.8721 98.3777 20.6602 98.3802 20.453C98.3856 20.0085 98.3906 19.5855 98.3698 19.1638C98.305 17.8416 98.1284 16.5345 97.5947 15.3069C96.9915 13.9205 96.0663 12.8339 94.5731 12.3592C92.0809 11.5667 88.9669 12.1733 87.5735 15.1162C85.9769 18.4883 86.0054 21.9534 87.5102 25.3529C88.2648 27.0582 89.6914 28.0692 91.5358 28.4183C92.7186 28.6422 93.9127 28.5695 95.0925 28.3403C95.8971 28.184 96.6976 28.0062 97.3528 27.6229ZM146.444 26.0232V28.1108C145.265 28.5845 144.026 28.6588 142.781 28.4052C141.485 28.1414 140.667 27.1404 140.517 25.728C140.477 25.3597 140.478 24.9864 140.479 24.6144L140.479 24.6064L140.479 24.4404C140.477 22.1836 140.477 19.9265 140.477 17.6695L140.478 15.5146V14.4736H137.966V12.2597H140.45V9.03393L143.095 8.21266V12.16C143.73 12.2801 144.349 12.2699 144.966 12.2597C145.456 12.2516 145.944 12.2436 146.437 12.3006V14.4369H143.219C143.206 14.5312 143.192 14.618 143.178 14.6999L143.178 14.7C143.15 14.8625 143.126 15.0056 143.125 15.1487C143.12 17.9917 143.115 20.8349 143.129 23.6777C143.131 24.1365 143.197 24.5997 143.282 25.0522C143.459 26.0045 143.994 26.4319 144.957 26.3448C145.291 26.3145 145.62 26.2298 145.961 26.142C146.119 26.1014 146.279 26.0601 146.444 26.0232ZM109.926 27.9V25.4284C109.748 25.4931 109.579 25.5567 109.417 25.618L109.417 25.6182L109.416 25.6184L109.415 25.6189L109.414 25.6192L109.414 25.6194C109.079 25.7461 108.77 25.8629 108.455 25.9581C105.809 26.7583 103.659 25.8232 102.821 23.391C102.078 21.2364 102.119 19.0353 102.944 16.8964C103.596 15.2032 104.9 14.3936 106.714 14.3486C107.776 14.3221 108.759 14.6328 109.765 15.0763L109.935 12.7306C109.156 12.2625 108.333 12.1652 107.514 12.0937C104.073 11.7934 101.273 13.2681 100.111 16.613C99.3103 18.9175 99.2717 21.2697 99.9443 23.6184C100.466 25.4407 101.484 26.9222 103.215 27.7782C105.426 28.8708 107.685 28.7204 109.926 27.9ZM48.7003 12.1802H52.9777L50.8421 22.3656L49.6073 28.2544C49.3822 28.2571 49.157 28.2601 48.9318 28.2632C48.4403 28.2697 47.9487 28.2763 47.4571 28.2795C46.981 28.2825 46.5049 28.2818 46.0053 28.2811H46.0034H46.0014H45.9995H45.9975C45.7757 28.2808 45.5493 28.2805 45.3162 28.2805L46.3961 23.1428L48.7003 12.1802ZM167.5 14.663V12.0986C166.497 12.0263 165.632 12.1854 164.811 12.5785C164.225 12.8586 163.815 13.3194 163.39 13.7977L163.39 13.7978C163.197 14.0144 163.001 14.2346 162.784 14.4433V12.3H160.327V28.234H163.049V27.2181C163.049 26.4666 163.05 25.715 163.05 24.9635C163.051 23.1009 163.052 21.2384 163.047 19.3757C163.044 18.4023 163.241 17.474 163.635 16.5882C164.144 15.441 165.013 14.7418 166.278 14.6062C166.54 14.5781 166.807 14.6033 167.089 14.6298C167.222 14.6424 167.359 14.6553 167.5 14.663ZM111.366 12.3087H113.821L113.981 14.5142C115.406 12.5342 116.388 12.0084 118.556 12.1141V13.3487V14.5992C118.399 14.5992 118.249 14.5944 118.104 14.5898C117.801 14.5802 117.52 14.5713 117.244 14.6077C115.94 14.7799 115.086 15.5513 114.594 16.7299C114.18 17.7188 114.075 18.7691 114.074 19.8305C114.072 21.583 114.072 23.3357 114.073 25.0881V25.1049L114.073 27.169V28.2135H111.366V12.3087ZM136.261 28.2061H133.592V12.3126H136.261V28.2061ZM54.2372 6.43893C53.9431 7.7786 53.6628 9.05571 53.3763 10.3622H49.0983L49.4163 8.91093L49.9577 6.43893H54.2372ZM136.284 9.50631H133.453V6.42915H136.284V9.50631Z" fill="#9CA393"/>
</svg>
